<?xml version="1.0" encoding="utf-8" standalone="no"?>
<!DOCTYPE svg PUBLIC "-//W3C//DTD SVG 1.1//EN"
  "http://www.w3.org/Graphics/SVG/1.1/DTD/svg11.dtd">
<svg xmlns:xlink="http://www.w3.org/1999/xlink" width="1440pt" height="720pt" viewBox="0 0 1440 720" xmlns="http://www.w3.org/2000/svg" version="1.1">
 <metadata>
  <rdf:RDF xmlns:dc="http://purl.org/dc/elements/1.1/" xmlns:cc="http://creativecommons.org/ns#" xmlns:rdf="http://www.w3.org/1999/02/22-rdf-syntax-ns#">
   <cc:Work>
    <dc:type rdf:resource="http://purl.org/dc/dcmitype/StillImage"/>
    <dc:date>2023-01-09T11:44:22.111596</dc:date>
    <dc:format>image/svg+xml</dc:format>
    <dc:creator>
     <cc:Agent>
      <dc:title>Matplotlib v3.6.2, https://matplotlib.org/</dc:title>
     </cc:Agent>
    </dc:creator>
   </cc:Work>
  </rdf:RDF>
 </metadata>
 <defs>
  <style type="text/css">*{stroke-linejoin: round; stroke-linecap: butt}</style>
 </defs>
 <g id="figure_1">
  <g id="patch_1">
   <path d="M 0 720 
L 1440 720 
L 1440 0 
L 0 0 
z
" style="fill: #ffffff"/>
  </g>
  <g id="axes_1">
   <g id="patch_2">
    <path d="M 55.76625 672.66 
L 1427.04 672.66 
L 1427.04 12.96 
L 55.76625 12.96 
z
" style="fill: #eaeaf2"/>
   </g>
   <g id="matplotlib.axis_1">
    <g id="xtick_1">
     <g id="text_1">
      <!-- RO -->
      <g style="fill: #262626" transform="translate(90.368555 690.033594) scale(0.11 -0.11)">
       <defs>
        <path id="ArialMT-52" d="M 503 0 
L 503 4581 
L 2534 4581 
Q 3147 4581 3465 4457 
Q 3784 4334 3975 4021 
Q 4166 3709 4166 3331 
Q 4166 2844 3850 2509 
Q 3534 2175 2875 2084 
Q 3116 1969 3241 1856 
Q 3506 1613 3744 1247 
L 4541 0 
L 3778 0 
L 3172 953 
Q 2906 1366 2734 1584 
Q 2563 1803 2427 1890 
Q 2291 1978 2150 2013 
Q 2047 2034 1813 2034 
L 1109 2034 
L 1109 0 
L 503 0 
z
M 1109 2559 
L 2413 2559 
Q 2828 2559 3062 2645 
Q 3297 2731 3419 2920 
Q 3541 3109 3541 3331 
Q 3541 3656 3305 3865 
Q 3069 4075 2559 4075 
L 1109 4075 
L 1109 2559 
z
" transform="scale(0.015625)"/>
        <path id="ArialMT-4f" d="M 309 2231 
Q 309 3372 921 4017 
Q 1534 4663 2503 4663 
Q 3138 4663 3647 4359 
Q 4156 4056 4423 3514 
Q 4691 2972 4691 2284 
Q 4691 1588 4409 1038 
Q 4128 488 3612 205 
Q 3097 -78 2500 -78 
Q 1853 -78 1343 234 
Q 834 547 571 1087 
Q 309 1628 309 2231 
z
M 934 2222 
Q 934 1394 1379 917 
Q 1825 441 2497 441 
Q 3181 441 3623 922 
Q 4066 1403 4066 2288 
Q 4066 2847 3877 3264 
Q 3688 3681 3323 3911 
Q 2959 4141 2506 4141 
Q 1863 4141 1398 3698 
Q 934 3256 934 2222 
z
" transform="scale(0.015625)"/>
       </defs>
       <use xlink:href="#ArialMT-52"/>
       <use xlink:href="#ArialMT-4f" x="72.216797"/>
      </g>
     </g>
    </g>
    <g id="xtick_2">
     <g id="text_2">
      <!-- BG -->
      <g style="fill: #262626" transform="translate(176.376523 690.033594) scale(0.11 -0.11)">
       <defs>
        <path id="ArialMT-42" d="M 469 0 
L 469 4581 
L 2188 4581 
Q 2713 4581 3030 4442 
Q 3347 4303 3526 4014 
Q 3706 3725 3706 3409 
Q 3706 3116 3547 2856 
Q 3388 2597 3066 2438 
Q 3481 2316 3704 2022 
Q 3928 1728 3928 1328 
Q 3928 1006 3792 729 
Q 3656 453 3456 303 
Q 3256 153 2954 76 
Q 2653 0 2216 0 
L 469 0 
z
M 1075 2656 
L 2066 2656 
Q 2469 2656 2644 2709 
Q 2875 2778 2992 2937 
Q 3109 3097 3109 3338 
Q 3109 3566 3000 3739 
Q 2891 3913 2687 3977 
Q 2484 4041 1991 4041 
L 1075 4041 
L 1075 2656 
z
M 1075 541 
L 2216 541 
Q 2509 541 2628 563 
Q 2838 600 2978 687 
Q 3119 775 3209 942 
Q 3300 1109 3300 1328 
Q 3300 1584 3169 1773 
Q 3038 1963 2805 2039 
Q 2572 2116 2134 2116 
L 1075 2116 
L 1075 541 
z
" transform="scale(0.015625)"/>
        <path id="ArialMT-47" d="M 2638 1797 
L 2638 2334 
L 4578 2338 
L 4578 638 
Q 4131 281 3656 101 
Q 3181 -78 2681 -78 
Q 2006 -78 1454 211 
Q 903 500 622 1047 
Q 341 1594 341 2269 
Q 341 2938 620 3517 
Q 900 4097 1425 4378 
Q 1950 4659 2634 4659 
Q 3131 4659 3532 4498 
Q 3934 4338 4162 4050 
Q 4391 3763 4509 3300 
L 3963 3150 
Q 3859 3500 3706 3700 
Q 3553 3900 3268 4020 
Q 2984 4141 2638 4141 
Q 2222 4141 1919 4014 
Q 1616 3888 1430 3681 
Q 1244 3475 1141 3228 
Q 966 2803 966 2306 
Q 966 1694 1177 1281 
Q 1388 869 1791 669 
Q 2194 469 2647 469 
Q 3041 469 3416 620 
Q 3791 772 3984 944 
L 3984 1797 
L 2638 1797 
z
" transform="scale(0.015625)"/>
       </defs>
       <use xlink:href="#ArialMT-42"/>
       <use xlink:href="#ArialMT-47" x="66.699219"/>
      </g>
     </g>
    </g>
    <g id="xtick_3">
     <g id="text_3">
      <!-- CZ -->
      <g style="fill: #262626" transform="translate(262.696445 690.033594) scale(0.11 -0.11)">
       <defs>
        <path id="ArialMT-43" d="M 3763 1606 
L 4369 1453 
Q 4178 706 3683 314 
Q 3188 -78 2472 -78 
Q 1731 -78 1267 223 
Q 803 525 561 1097 
Q 319 1669 319 2325 
Q 319 3041 592 3573 
Q 866 4106 1370 4382 
Q 1875 4659 2481 4659 
Q 3169 4659 3637 4309 
Q 4106 3959 4291 3325 
L 3694 3184 
Q 3534 3684 3231 3912 
Q 2928 4141 2469 4141 
Q 1941 4141 1586 3887 
Q 1231 3634 1087 3207 
Q 944 2781 944 2328 
Q 944 1744 1114 1308 
Q 1284 872 1643 656 
Q 2003 441 2422 441 
Q 2931 441 3284 734 
Q 3638 1028 3763 1606 
z
" transform="scale(0.015625)"/>
        <path id="ArialMT-5a" d="M 128 0 
L 128 563 
L 2475 3497 
Q 2725 3809 2950 4041 
L 394 4041 
L 394 4581 
L 3675 4581 
L 3675 4041 
L 1103 863 
L 825 541 
L 3750 541 
L 3750 0 
L 128 0 
z
" transform="scale(0.015625)"/>
       </defs>
       <use xlink:href="#ArialMT-43"/>
       <use xlink:href="#ArialMT-5a" x="72.216797"/>
      </g>
     </g>
    </g>
    <g id="xtick_4">
     <g id="text_4">
      <!-- DE -->
      <g style="fill: #262626" transform="translate(348.09168 690.033594) scale(0.11 -0.11)">
       <defs>
        <path id="ArialMT-44" d="M 494 0 
L 494 4581 
L 2072 4581 
Q 2606 4581 2888 4516 
Q 3281 4425 3559 4188 
Q 3922 3881 4101 3404 
Q 4281 2928 4281 2316 
Q 4281 1794 4159 1391 
Q 4038 988 3847 723 
Q 3656 459 3429 307 
Q 3203 156 2883 78 
Q 2563 0 2147 0 
L 494 0 
z
M 1100 541 
L 2078 541 
Q 2531 541 2789 625 
Q 3047 709 3200 863 
Q 3416 1078 3536 1442 
Q 3656 1806 3656 2325 
Q 3656 3044 3420 3430 
Q 3184 3816 2847 3947 
Q 2603 4041 2063 4041 
L 1100 4041 
L 1100 541 
z
" transform="scale(0.015625)"/>
        <path id="ArialMT-45" d="M 506 0 
L 506 4581 
L 3819 4581 
L 3819 4041 
L 1113 4041 
L 1113 2638 
L 3647 2638 
L 3647 2100 
L 1113 2100 
L 1113 541 
L 3925 541 
L 3925 0 
L 506 0 
z
" transform="scale(0.015625)"/>
       </defs>
       <use xlink:href="#ArialMT-44"/>
       <use xlink:href="#ArialMT-45" x="72.216797"/>
      </g>
     </g>
    </g>
    <g id="xtick_5">
     <g id="text_5">
      <!-- LT -->
      <g style="fill: #262626" transform="translate(435.424805 690.033594) scale(0.11 -0.11)">
       <defs>
        <path id="ArialMT-4c" d="M 469 0 
L 469 4581 
L 1075 4581 
L 1075 541 
L 3331 541 
L 3331 0 
L 469 0 
z
" transform="scale(0.015625)"/>
        <path id="ArialMT-54" d="M 1659 0 
L 1659 4041 
L 150 4041 
L 150 4581 
L 3781 4581 
L 3781 4041 
L 2266 4041 
L 2266 0 
L 1659 0 
z
" transform="scale(0.015625)"/>
       </defs>
       <use xlink:href="#ArialMT-4c"/>
       <use xlink:href="#ArialMT-54" x="48.240234"/>
      </g>
     </g>
    </g>
    <g id="xtick_6">
     <g id="text_6">
      <!-- LV -->
      <g style="fill: #262626" transform="translate(520.820039 690.033594) scale(0.11 -0.11)">
       <defs>
        <path id="ArialMT-56" d="M 1803 0 
L 28 4581 
L 684 4581 
L 1875 1253 
Q 2019 853 2116 503 
Q 2222 878 2363 1253 
L 3600 4581 
L 4219 4581 
L 2425 0 
L 1803 0 
z
" transform="scale(0.015625)"/>
       </defs>
       <use xlink:href="#ArialMT-4c"/>
       <use xlink:href="#ArialMT-56" x="48.240234"/>
      </g>
     </g>
    </g>
    <g id="xtick_7">
     <g id="text_7">
      <!-- PL -->
      <g style="fill: #262626" transform="translate(606.119023 690.033594) scale(0.11 -0.11)">
       <defs>
        <path id="ArialMT-50" d="M 494 0 
L 494 4581 
L 2222 4581 
Q 2678 4581 2919 4538 
Q 3256 4481 3484 4323 
Q 3713 4166 3852 3881 
Q 3991 3597 3991 3256 
Q 3991 2672 3619 2267 
Q 3247 1863 2275 1863 
L 1100 1863 
L 1100 0 
L 494 0 
z
M 1100 2403 
L 2284 2403 
Q 2872 2403 3119 2622 
Q 3366 2841 3366 3238 
Q 3366 3525 3220 3729 
Q 3075 3934 2838 4000 
Q 2684 4041 2272 4041 
L 1100 4041 
L 1100 2403 
z
" transform="scale(0.015625)"/>
       </defs>
       <use xlink:href="#ArialMT-50"/>
       <use xlink:href="#ArialMT-4c" x="66.699219"/>
      </g>
     </g>
    </g>
    <g id="xtick_8">
     <g id="text_8">
      <!-- SK -->
      <g style="fill: #262626" transform="translate(691.213477 690.033594) scale(0.11 -0.11)">
       <defs>
        <path id="ArialMT-53" d="M 288 1472 
L 859 1522 
Q 900 1178 1048 958 
Q 1197 738 1509 602 
Q 1822 466 2213 466 
Q 2559 466 2825 569 
Q 3091 672 3220 851 
Q 3350 1031 3350 1244 
Q 3350 1459 3225 1620 
Q 3100 1781 2813 1891 
Q 2628 1963 1997 2114 
Q 1366 2266 1113 2400 
Q 784 2572 623 2826 
Q 463 3081 463 3397 
Q 463 3744 659 4045 
Q 856 4347 1234 4503 
Q 1613 4659 2075 4659 
Q 2584 4659 2973 4495 
Q 3363 4331 3572 4012 
Q 3781 3694 3797 3291 
L 3216 3247 
Q 3169 3681 2898 3903 
Q 2628 4125 2100 4125 
Q 1550 4125 1298 3923 
Q 1047 3722 1047 3438 
Q 1047 3191 1225 3031 
Q 1400 2872 2139 2705 
Q 2878 2538 3153 2413 
Q 3553 2228 3743 1945 
Q 3934 1663 3934 1294 
Q 3934 928 3725 604 
Q 3516 281 3123 101 
Q 2731 -78 2241 -78 
Q 1619 -78 1198 103 
Q 778 284 539 648 
Q 300 1013 288 1472 
z
" transform="scale(0.015625)"/>
        <path id="ArialMT-4b" d="M 469 0 
L 469 4581 
L 1075 4581 
L 1075 2309 
L 3350 4581 
L 4172 4581 
L 2250 2725 
L 4256 0 
L 3456 0 
L 1825 2319 
L 1075 1588 
L 1075 0 
L 469 0 
z
" transform="scale(0.015625)"/>
       </defs>
       <use xlink:href="#ArialMT-53"/>
       <use xlink:href="#ArialMT-4b" x="66.699219"/>
      </g>
     </g>
    </g>
    <g id="xtick_9">
     <g id="text_9">
      <!-- FR -->
      <g style="fill: #262626" transform="translate(776.924102 690.033594) scale(0.11 -0.11)">
       <defs>
        <path id="ArialMT-46" d="M 525 0 
L 525 4581 
L 3616 4581 
L 3616 4041 
L 1131 4041 
L 1131 2622 
L 3281 2622 
L 3281 2081 
L 1131 2081 
L 1131 0 
L 525 0 
z
" transform="scale(0.015625)"/>
       </defs>
       <use xlink:href="#ArialMT-46"/>
       <use xlink:href="#ArialMT-52" x="61.083984"/>
      </g>
     </g>
    </g>
    <g id="xtick_10">
     <g id="text_10">
      <!-- AT -->
      <g style="fill: #262626" transform="translate(863.337695 690.033594) scale(0.11 -0.11)">
       <defs>
        <path id="ArialMT-41" d="M -9 0 
L 1750 4581 
L 2403 4581 
L 4278 0 
L 3588 0 
L 3053 1388 
L 1138 1388 
L 634 0 
L -9 0 
z
M 1313 1881 
L 2866 1881 
L 2388 3150 
Q 2169 3728 2063 4100 
Q 1975 3659 1816 3225 
L 1313 1881 
z
" transform="scale(0.015625)"/>
       </defs>
       <use xlink:href="#ArialMT-41"/>
       <use xlink:href="#ArialMT-54" x="59.324219"/>
      </g>
     </g>
    </g>
    <g id="xtick_11">
     <g id="text_11">
      <!-- PT -->
      <g style="fill: #262626" transform="translate(948.63668 690.033594) scale(0.11 -0.11)">
       <use xlink:href="#ArialMT-50"/>
       <use xlink:href="#ArialMT-54" x="66.699219"/>
      </g>
     </g>
    </g>
    <g id="xtick_12">
     <g id="text_12">
      <!-- BE -->
      <g style="fill: #262626" transform="translate(1034.031914 690.033594) scale(0.11 -0.11)">
       <use xlink:href="#ArialMT-42"/>
       <use xlink:href="#ArialMT-45" x="66.699219"/>
      </g>
     </g>
    </g>
    <g id="xtick_13">
     <g id="text_13">
      <!-- HU -->
      <g style="fill: #262626" transform="translate(1119.129805 690.033594) scale(0.11 -0.11)">
       <defs>
        <path id="ArialMT-48" d="M 513 0 
L 513 4581 
L 1119 4581 
L 1119 2700 
L 3500 2700 
L 3500 4581 
L 4106 4581 
L 4106 0 
L 3500 0 
L 3500 2159 
L 1119 2159 
L 1119 0 
L 513 0 
z
" transform="scale(0.015625)"/>
        <path id="ArialMT-55" d="M 3500 4581 
L 4106 4581 
L 4106 1934 
Q 4106 1244 3950 837 
Q 3794 431 3386 176 
Q 2978 -78 2316 -78 
Q 1672 -78 1262 144 
Q 853 366 678 786 
Q 503 1206 503 1934 
L 503 4581 
L 1109 4581 
L 1109 1938 
Q 1109 1341 1220 1058 
Q 1331 775 1601 622 
Q 1872 469 2263 469 
Q 2931 469 3215 772 
Q 3500 1075 3500 1938 
L 3500 4581 
z
" transform="scale(0.015625)"/>
       </defs>
       <use xlink:href="#ArialMT-48"/>
       <use xlink:href="#ArialMT-55" x="72.216797"/>
      </g>
     </g>
    </g>
    <g id="xtick_14">
     <g id="text_14">
      <!-- NL -->
      <g style="fill: #262626" transform="translate(1205.74793 690.033594) scale(0.11 -0.11)">
       <defs>
        <path id="ArialMT-4e" d="M 488 0 
L 488 4581 
L 1109 4581 
L 3516 984 
L 3516 4581 
L 4097 4581 
L 4097 0 
L 3475 0 
L 1069 3600 
L 1069 0 
L 488 0 
z
" transform="scale(0.015625)"/>
       </defs>
       <use xlink:href="#ArialMT-4e"/>
       <use xlink:href="#ArialMT-4c" x="72.216797"/>
      </g>
     </g>
    </g>
    <g id="xtick_15">
     <g id="text_15">
      <!-- IE -->
      <g style="fill: #262626" transform="translate(1293.286445 690.033594) scale(0.11 -0.11)">
       <defs>
        <path id="ArialMT-49" d="M 597 0 
L 597 4581 
L 1203 4581 
L 1203 0 
L 597 0 
z
" transform="scale(0.015625)"/>
       </defs>
       <use xlink:href="#ArialMT-49"/>
       <use xlink:href="#ArialMT-45" x="27.783203"/>
      </g>
     </g>
    </g>
    <g id="xtick_16">
     <g id="text_16">
      <!-- UK -->
      <g style="fill: #262626" transform="translate(1376.546992 690.033594) scale(0.11 -0.11)">
       <use xlink:href="#ArialMT-55"/>
       <use xlink:href="#ArialMT-4b" x="72.216797"/>
      </g>
     </g>
    </g>
    <g id="text_17">
     <!-- memberStateCode -->
     <g style="fill: #262626" transform="translate(691.048125 704.809219) scale(0.12 -0.12)">
      <defs>
       <path id="ArialMT-6d" d="M 422 0 
L 422 3319 
L 925 3319 
L 925 2853 
Q 1081 3097 1340 3245 
Q 1600 3394 1931 3394 
Q 2300 3394 2536 3241 
Q 2772 3088 2869 2813 
Q 3263 3394 3894 3394 
Q 4388 3394 4653 3120 
Q 4919 2847 4919 2278 
L 4919 0 
L 4359 0 
L 4359 2091 
Q 4359 2428 4304 2576 
Q 4250 2725 4106 2815 
Q 3963 2906 3769 2906 
Q 3419 2906 3187 2673 
Q 2956 2441 2956 1928 
L 2956 0 
L 2394 0 
L 2394 2156 
Q 2394 2531 2256 2718 
Q 2119 2906 1806 2906 
Q 1569 2906 1367 2781 
Q 1166 2656 1075 2415 
Q 984 2175 984 1722 
L 984 0 
L 422 0 
z
" transform="scale(0.015625)"/>
       <path id="ArialMT-65" d="M 2694 1069 
L 3275 997 
Q 3138 488 2766 206 
Q 2394 -75 1816 -75 
Q 1088 -75 661 373 
Q 234 822 234 1631 
Q 234 2469 665 2931 
Q 1097 3394 1784 3394 
Q 2450 3394 2872 2941 
Q 3294 2488 3294 1666 
Q 3294 1616 3291 1516 
L 816 1516 
Q 847 969 1125 678 
Q 1403 388 1819 388 
Q 2128 388 2347 550 
Q 2566 713 2694 1069 
z
M 847 1978 
L 2700 1978 
Q 2663 2397 2488 2606 
Q 2219 2931 1791 2931 
Q 1403 2931 1139 2672 
Q 875 2413 847 1978 
z
" transform="scale(0.015625)"/>
       <path id="ArialMT-62" d="M 941 0 
L 419 0 
L 419 4581 
L 981 4581 
L 981 2947 
Q 1338 3394 1891 3394 
Q 2197 3394 2470 3270 
Q 2744 3147 2920 2923 
Q 3097 2700 3197 2384 
Q 3297 2069 3297 1709 
Q 3297 856 2875 390 
Q 2453 -75 1863 -75 
Q 1275 -75 941 416 
L 941 0 
z
M 934 1684 
Q 934 1088 1097 822 
Q 1363 388 1816 388 
Q 2184 388 2453 708 
Q 2722 1028 2722 1663 
Q 2722 2313 2464 2622 
Q 2206 2931 1841 2931 
Q 1472 2931 1203 2611 
Q 934 2291 934 1684 
z
" transform="scale(0.015625)"/>
       <path id="ArialMT-72" d="M 416 0 
L 416 3319 
L 922 3319 
L 922 2816 
Q 1116 3169 1280 3281 
Q 1444 3394 1641 3394 
Q 1925 3394 2219 3213 
L 2025 2691 
Q 1819 2813 1613 2813 
Q 1428 2813 1281 2702 
Q 1134 2591 1072 2394 
Q 978 2094 978 1738 
L 978 0 
L 416 0 
z
" transform="scale(0.015625)"/>
       <path id="ArialMT-74" d="M 1650 503 
L 1731 6 
Q 1494 -44 1306 -44 
Q 1000 -44 831 53 
Q 663 150 594 308 
Q 525 466 525 972 
L 525 2881 
L 113 2881 
L 113 3319 
L 525 3319 
L 525 4141 
L 1084 4478 
L 1084 3319 
L 1650 3319 
L 1650 2881 
L 1084 2881 
L 1084 941 
Q 1084 700 1114 631 
Q 1144 563 1211 522 
Q 1278 481 1403 481 
Q 1497 481 1650 503 
z
" transform="scale(0.015625)"/>
       <path id="ArialMT-61" d="M 2588 409 
Q 2275 144 1986 34 
Q 1697 -75 1366 -75 
Q 819 -75 525 192 
Q 231 459 231 875 
Q 231 1119 342 1320 
Q 453 1522 633 1644 
Q 813 1766 1038 1828 
Q 1203 1872 1538 1913 
Q 2219 1994 2541 2106 
Q 2544 2222 2544 2253 
Q 2544 2597 2384 2738 
Q 2169 2928 1744 2928 
Q 1347 2928 1158 2789 
Q 969 2650 878 2297 
L 328 2372 
Q 403 2725 575 2942 
Q 747 3159 1072 3276 
Q 1397 3394 1825 3394 
Q 2250 3394 2515 3294 
Q 2781 3194 2906 3042 
Q 3031 2891 3081 2659 
Q 3109 2516 3109 2141 
L 3109 1391 
Q 3109 606 3145 398 
Q 3181 191 3288 0 
L 2700 0 
Q 2613 175 2588 409 
z
M 2541 1666 
Q 2234 1541 1622 1453 
Q 1275 1403 1131 1340 
Q 988 1278 909 1158 
Q 831 1038 831 891 
Q 831 666 1001 516 
Q 1172 366 1500 366 
Q 1825 366 2078 508 
Q 2331 650 2450 897 
Q 2541 1088 2541 1459 
L 2541 1666 
z
" transform="scale(0.015625)"/>
       <path id="ArialMT-6f" d="M 213 1659 
Q 213 2581 725 3025 
Q 1153 3394 1769 3394 
Q 2453 3394 2887 2945 
Q 3322 2497 3322 1706 
Q 3322 1066 3130 698 
Q 2938 331 2570 128 
Q 2203 -75 1769 -75 
Q 1072 -75 642 372 
Q 213 819 213 1659 
z
M 791 1659 
Q 791 1022 1069 705 
Q 1347 388 1769 388 
Q 2188 388 2466 706 
Q 2744 1025 2744 1678 
Q 2744 2294 2464 2611 
Q 2184 2928 1769 2928 
Q 1347 2928 1069 2612 
Q 791 2297 791 1659 
z
" transform="scale(0.015625)"/>
       <path id="ArialMT-64" d="M 2575 0 
L 2575 419 
Q 2259 -75 1647 -75 
Q 1250 -75 917 144 
Q 584 363 401 755 
Q 219 1147 219 1656 
Q 219 2153 384 2558 
Q 550 2963 881 3178 
Q 1213 3394 1622 3394 
Q 1922 3394 2156 3267 
Q 2391 3141 2538 2938 
L 2538 4581 
L 3097 4581 
L 3097 0 
L 2575 0 
z
M 797 1656 
Q 797 1019 1065 703 
Q 1334 388 1700 388 
Q 2069 388 2326 689 
Q 2584 991 2584 1609 
Q 2584 2291 2321 2609 
Q 2059 2928 1675 2928 
Q 1300 2928 1048 2622 
Q 797 2316 797 1656 
z
" transform="scale(0.015625)"/>
      </defs>
      <use xlink:href="#ArialMT-6d"/>
      <use xlink:href="#ArialMT-65" x="83.300781"/>
      <use xlink:href="#ArialMT-6d" x="138.916016"/>
      <use xlink:href="#ArialMT-62" x="222.216797"/>
      <use xlink:href="#ArialMT-65" x="277.832031"/>
      <use xlink:href="#ArialMT-72" x="333.447266"/>
      <use xlink:href="#ArialMT-53" x="366.748047"/>
      <use xlink:href="#ArialMT-74" x="433.447266"/>
      <use xlink:href="#ArialMT-61" x="461.230469"/>
      <use xlink:href="#ArialMT-74" x="516.845703"/>
      <use xlink:href="#ArialMT-65" x="544.628906"/>
      <use xlink:href="#ArialMT-43" x="600.244141"/>
      <use xlink:href="#ArialMT-6f" x="672.460938"/>
      <use xlink:href="#ArialMT-64" x="728.076172"/>
      <use xlink:href="#ArialMT-65" x="783.691406"/>
     </g>
    </g>
   </g>
   <g id="matplotlib.axis_2">
    <g id="ytick_1">
     <g id="line2d_1">
      <path d="M 55.76625 596.623873 
L 1427.04 596.623873 
" clip-path="url(#pf057e48327)" style="fill: none; stroke: #ffffff; stroke-linecap: round"/>
     </g>
     <g id="text_18">
      <!-- 100 -->
      <g style="fill: #262626" transform="translate(27.915156 600.56067) scale(0.11 -0.11)">
       <defs>
        <path id="ArialMT-31" d="M 2384 0 
L 1822 0 
L 1822 3584 
Q 1619 3391 1289 3197 
Q 959 3003 697 2906 
L 697 3450 
Q 1169 3672 1522 3987 
Q 1875 4303 2022 4600 
L 2384 4600 
L 2384 0 
z
" transform="scale(0.015625)"/>
        <path id="ArialMT-30" d="M 266 2259 
Q 266 3072 433 3567 
Q 600 4063 929 4331 
Q 1259 4600 1759 4600 
Q 2128 4600 2406 4451 
Q 2684 4303 2865 4023 
Q 3047 3744 3150 3342 
Q 3253 2941 3253 2259 
Q 3253 1453 3087 958 
Q 2922 463 2592 192 
Q 2263 -78 1759 -78 
Q 1097 -78 719 397 
Q 266 969 266 2259 
z
M 844 2259 
Q 844 1131 1108 757 
Q 1372 384 1759 384 
Q 2147 384 2411 759 
Q 2675 1134 2675 2259 
Q 2675 3391 2411 3762 
Q 2147 4134 1753 4134 
Q 1366 4134 1134 3806 
Q 844 3388 844 2259 
z
" transform="scale(0.015625)"/>
       </defs>
       <use xlink:href="#ArialMT-31"/>
       <use xlink:href="#ArialMT-30" x="55.615234"/>
       <use xlink:href="#ArialMT-30" x="111.230469"/>
      </g>
     </g>
    </g>
    <g id="ytick_2">
     <g id="line2d_2">
      <path d="M 55.76625 461.580578 
L 1427.04 461.580578 
" clip-path="url(#pf057e48327)" style="fill: none; stroke: #ffffff; stroke-linecap: round"/>
     </g>
     <g id="text_19">
      <!-- 150 -->
      <g style="fill: #262626" transform="translate(27.915156 465.517375) scale(0.11 -0.11)">
       <defs>
        <path id="ArialMT-35" d="M 266 1200 
L 856 1250 
Q 922 819 1161 601 
Q 1400 384 1738 384 
Q 2144 384 2425 690 
Q 2706 997 2706 1503 
Q 2706 1984 2436 2262 
Q 2166 2541 1728 2541 
Q 1456 2541 1237 2417 
Q 1019 2294 894 2097 
L 366 2166 
L 809 4519 
L 3088 4519 
L 3088 3981 
L 1259 3981 
L 1013 2750 
Q 1425 3038 1878 3038 
Q 2478 3038 2890 2622 
Q 3303 2206 3303 1553 
Q 3303 931 2941 478 
Q 2500 -78 1738 -78 
Q 1113 -78 717 272 
Q 322 622 266 1200 
z
" transform="scale(0.015625)"/>
       </defs>
       <use xlink:href="#ArialMT-31"/>
       <use xlink:href="#ArialMT-35" x="55.615234"/>
       <use xlink:href="#ArialMT-30" x="111.230469"/>
      </g>
     </g>
    </g>
    <g id="ytick_3">
     <g id="line2d_3">
      <path d="M 55.76625 326.537283 
L 1427.04 326.537283 
" clip-path="url(#pf057e48327)" style="fill: none; stroke: #ffffff; stroke-linecap: round"/>
     </g>
     <g id="text_20">
      <!-- 200 -->
      <g style="fill: #262626" transform="translate(27.915156 330.47408) scale(0.11 -0.11)">
       <defs>
        <path id="ArialMT-32" d="M 3222 541 
L 3222 0 
L 194 0 
Q 188 203 259 391 
Q 375 700 629 1000 
Q 884 1300 1366 1694 
Q 2113 2306 2375 2664 
Q 2638 3022 2638 3341 
Q 2638 3675 2398 3904 
Q 2159 4134 1775 4134 
Q 1369 4134 1125 3890 
Q 881 3647 878 3216 
L 300 3275 
Q 359 3922 746 4261 
Q 1134 4600 1788 4600 
Q 2447 4600 2831 4234 
Q 3216 3869 3216 3328 
Q 3216 3053 3103 2787 
Q 2991 2522 2730 2228 
Q 2469 1934 1863 1422 
Q 1356 997 1212 845 
Q 1069 694 975 541 
L 3222 541 
z
" transform="scale(0.015625)"/>
       </defs>
       <use xlink:href="#ArialMT-32"/>
       <use xlink:href="#ArialMT-30" x="55.615234"/>
       <use xlink:href="#ArialMT-30" x="111.230469"/>
      </g>
     </g>
    </g>
    <g id="ytick_4">
     <g id="line2d_4">
      <path d="M 55.76625 191.493988 
L 1427.04 191.493988 
" clip-path="url(#pf057e48327)" style="fill: none; stroke: #ffffff; stroke-linecap: round"/>
     </g>
     <g id="text_21">
      <!-- 250 -->
      <g style="fill: #262626" transform="translate(27.915156 195.430785) scale(0.11 -0.11)">
       <use xlink:href="#ArialMT-32"/>
       <use xlink:href="#ArialMT-35" x="55.615234"/>
       <use xlink:href="#ArialMT-30" x="111.230469"/>
      </g>
     </g>
    </g>
    <g id="ytick_5">
     <g id="line2d_5">
      <path d="M 55.76625 56.450693 
L 1427.04 56.450693 
" clip-path="url(#pf057e48327)" style="fill: none; stroke: #ffffff; stroke-linecap: round"/>
     </g>
     <g id="text_22">
      <!-- 300 -->
      <g style="fill: #262626" transform="translate(27.915156 60.38749) scale(0.11 -0.11)">
       <defs>
        <path id="ArialMT-33" d="M 269 1209 
L 831 1284 
Q 928 806 1161 595 
Q 1394 384 1728 384 
Q 2125 384 2398 659 
Q 2672 934 2672 1341 
Q 2672 1728 2419 1979 
Q 2166 2231 1775 2231 
Q 1616 2231 1378 2169 
L 1441 2663 
Q 1497 2656 1531 2656 
Q 1891 2656 2178 2843 
Q 2466 3031 2466 3422 
Q 2466 3731 2256 3934 
Q 2047 4138 1716 4138 
Q 1388 4138 1169 3931 
Q 950 3725 888 3313 
L 325 3413 
Q 428 3978 793 4289 
Q 1159 4600 1703 4600 
Q 2078 4600 2393 4439 
Q 2709 4278 2876 4000 
Q 3044 3722 3044 3409 
Q 3044 3113 2884 2869 
Q 2725 2625 2413 2481 
Q 2819 2388 3044 2092 
Q 3269 1797 3269 1353 
Q 3269 753 2831 336 
Q 2394 -81 1725 -81 
Q 1122 -81 723 278 
Q 325 638 269 1209 
z
" transform="scale(0.015625)"/>
       </defs>
       <use xlink:href="#ArialMT-33"/>
       <use xlink:href="#ArialMT-30" x="55.615234"/>
       <use xlink:href="#ArialMT-30" x="111.230469"/>
      </g>
     </g>
    </g>
    <g id="text_23">
     <!-- barley_price -->
     <g style="fill: #262626" transform="translate(21.389531 375.49125) rotate(-90) scale(0.12 -0.12)">
      <defs>
       <path id="ArialMT-6c" d="M 409 0 
L 409 4581 
L 972 4581 
L 972 0 
L 409 0 
z
" transform="scale(0.015625)"/>
       <path id="ArialMT-79" d="M 397 -1278 
L 334 -750 
Q 519 -800 656 -800 
Q 844 -800 956 -737 
Q 1069 -675 1141 -563 
Q 1194 -478 1313 -144 
Q 1328 -97 1363 -6 
L 103 3319 
L 709 3319 
L 1400 1397 
Q 1534 1031 1641 628 
Q 1738 1016 1872 1384 
L 2581 3319 
L 3144 3319 
L 1881 -56 
Q 1678 -603 1566 -809 
Q 1416 -1088 1222 -1217 
Q 1028 -1347 759 -1347 
Q 597 -1347 397 -1278 
z
" transform="scale(0.015625)"/>
       <path id="ArialMT-5f" d="M -97 -1272 
L -97 -866 
L 3631 -866 
L 3631 -1272 
L -97 -1272 
z
" transform="scale(0.015625)"/>
       <path id="ArialMT-70" d="M 422 -1272 
L 422 3319 
L 934 3319 
L 934 2888 
Q 1116 3141 1344 3267 
Q 1572 3394 1897 3394 
Q 2322 3394 2647 3175 
Q 2972 2956 3137 2557 
Q 3303 2159 3303 1684 
Q 3303 1175 3120 767 
Q 2938 359 2589 142 
Q 2241 -75 1856 -75 
Q 1575 -75 1351 44 
Q 1128 163 984 344 
L 984 -1272 
L 422 -1272 
z
M 931 1641 
Q 931 1000 1190 694 
Q 1450 388 1819 388 
Q 2194 388 2461 705 
Q 2728 1022 2728 1688 
Q 2728 2322 2467 2637 
Q 2206 2953 1844 2953 
Q 1484 2953 1207 2617 
Q 931 2281 931 1641 
z
" transform="scale(0.015625)"/>
       <path id="ArialMT-69" d="M 425 3934 
L 425 4581 
L 988 4581 
L 988 3934 
L 425 3934 
z
M 425 0 
L 425 3319 
L 988 3319 
L 988 0 
L 425 0 
z
" transform="scale(0.015625)"/>
       <path id="ArialMT-63" d="M 2588 1216 
L 3141 1144 
Q 3050 572 2676 248 
Q 2303 -75 1759 -75 
Q 1078 -75 664 370 
Q 250 816 250 1647 
Q 250 2184 428 2587 
Q 606 2991 970 3192 
Q 1334 3394 1763 3394 
Q 2303 3394 2647 3120 
Q 2991 2847 3088 2344 
L 2541 2259 
Q 2463 2594 2264 2762 
Q 2066 2931 1784 2931 
Q 1359 2931 1093 2626 
Q 828 2322 828 1663 
Q 828 994 1084 691 
Q 1341 388 1753 388 
Q 2084 388 2306 591 
Q 2528 794 2588 1216 
z
" transform="scale(0.015625)"/>
      </defs>
      <use xlink:href="#ArialMT-62"/>
      <use xlink:href="#ArialMT-61" x="55.615234"/>
      <use xlink:href="#ArialMT-72" x="111.230469"/>
      <use xlink:href="#ArialMT-6c" x="144.53125"/>
      <use xlink:href="#ArialMT-65" x="166.748047"/>
      <use xlink:href="#ArialMT-79" x="222.363281"/>
      <use xlink:href="#ArialMT-5f" x="272.363281"/>
      <use xlink:href="#ArialMT-70" x="327.978516"/>
      <use xlink:href="#ArialMT-72" x="383.59375"/>
      <use xlink:href="#ArialMT-69" x="416.894531"/>
      <use xlink:href="#ArialMT-63" x="439.111328"/>
      <use xlink:href="#ArialMT-65" x="489.111328"/>
     </g>
    </g>
   </g>
   <g id="patch_3">
    <path d="M 64.336711 520.972619 
L 132.900398 520.972619 
L 132.900398 382.904354 
L 64.336711 382.904354 
L 64.336711 520.972619 
z
" clip-path="url(#pf057e48327)" style="fill: #ea96a3; stroke: #464646; stroke-width: 1.5; stroke-linejoin: miter"/>
   </g>
   <g id="patch_4">
    <path d="M 150.04132 562.890058 
L 218.605008 562.890058 
L 218.605008 562.890058 
L 150.04132 562.890058 
L 150.04132 562.890058 
z
" clip-path="url(#pf057e48327)" style="fill: #e69576; stroke: #464646; stroke-width: 1.5; stroke-linejoin: miter"/>
   </g>
   <g id="patch_5">
    <path d="M 235.74593 522.957755 
L 304.309617 522.957755 
L 304.309617 477.785773 
L 235.74593 477.785773 
L 235.74593 522.957755 
z
" clip-path="url(#pf057e48327)" style="fill: #ca984c; stroke: #464646; stroke-width: 1.5; stroke-linejoin: miter"/>
   </g>
   <g id="patch_6">
    <path d="M 321.450539 448.076248 
L 390.014227 448.076248 
L 390.014227 377.853735 
L 321.450539 377.853735 
L 321.450539 448.076248 
z
" clip-path="url(#pf057e48327)" style="fill: #b09d48; stroke: #464646; stroke-width: 1.5; stroke-linejoin: miter"/>
   </g>
   <g id="patch_7">
    <path d="M 407.155148 517.515511 
L 475.718836 517.515511 
L 475.718836 408.238476 
L 407.155148 408.238476 
L 407.155148 517.515511 
z
" clip-path="url(#pf057e48327)" style="fill: #98a246; stroke: #464646; stroke-width: 1.5; stroke-linejoin: miter"/>
   </g>
   <g id="patch_8">
    <path d="M 492.859758 512.924039 
L 561.423445 512.924039 
L 561.423445 456.19235 
L 492.859758 456.19235 
L 492.859758 512.924039 
z
" clip-path="url(#pf057e48327)" style="fill: #76ab47; stroke: #464646; stroke-width: 1.5; stroke-linejoin: miter"/>
   </g>
   <g id="patch_9">
    <path d="M 578.564367 485.321189 
L 647.128055 485.321189 
L 647.128055 390.061649 
L 578.564367 390.061649 
L 578.564367 485.321189 
z
" clip-path="url(#pf057e48327)" style="fill: #49af72; stroke: #464646; stroke-width: 1.5; stroke-linejoin: miter"/>
   </g>
   <g id="patch_10">
    <path d="M 664.268977 558.298586 
L 732.832664 558.298586 
L 732.832664 514.963192 
L 664.268977 514.963192 
L 664.268977 558.298586 
z
" clip-path="url(#pf057e48327)" style="fill: #4aad92; stroke: #464646; stroke-width: 1.5; stroke-linejoin: miter"/>
   </g>
   <g id="patch_11">
    <path d="M 749.973586 474.396187 
L 818.537273 474.396187 
L 818.537273 389.791562 
L 749.973586 389.791562 
L 749.973586 474.396187 
z
" clip-path="url(#pf057e48327)" style="fill: #4baba4; stroke: #464646; stroke-width: 1.5; stroke-linejoin: miter"/>
   </g>
   <g id="patch_12">
    <path d="M 835.678195 498.717484 
L 904.241883 498.717484 
L 904.241883 373.464828 
L 835.678195 373.464828 
L 835.678195 498.717484 
z
" clip-path="url(#pf057e48327)" style="fill: #4eabb6; stroke: #464646; stroke-width: 1.5; stroke-linejoin: miter"/>
   </g>
   <g id="patch_13">
    <path d="M 921.382805 395.746972 
L 989.946492 395.746972 
L 989.946492 323.161201 
L 921.382805 323.161201 
L 921.382805 395.746972 
z
" clip-path="url(#pf057e48327)" style="fill: #53accd; stroke: #464646; stroke-width: 1.5; stroke-linejoin: miter"/>
   </g>
   <g id="patch_14">
    <path d="M 1007.087414 463.606227 
L 1075.651102 463.606227 
L 1075.651102 385.956333 
L 1007.087414 385.956333 
L 1007.087414 463.606227 
z
" clip-path="url(#pf057e48327)" style="fill: #88aee6; stroke: #464646; stroke-width: 1.5; stroke-linejoin: miter"/>
   </g>
   <g id="patch_15">
    <path d="M 1092.792023 508.899748 
L 1161.355711 508.899748 
L 1161.355711 469.332063 
L 1092.792023 469.332063 
L 1092.792023 508.899748 
z
" clip-path="url(#pf057e48327)" style="fill: #b6a8eb; stroke: #464646; stroke-width: 1.5; stroke-linejoin: miter"/>
   </g>
   <g id="patch_16">
    <path d="M 1178.496633 431.195837 
L 1247.06032 431.195837 
L 1247.06032 364.349406 
L 1178.496633 364.349406 
L 1178.496633 431.195837 
z
" clip-path="url(#pf057e48327)" style="fill: #d497e8; stroke: #464646; stroke-width: 1.5; stroke-linejoin: miter"/>
   </g>
   <g id="patch_17">
    <path d="M 1264.201242 429.170187 
L 1332.76493 429.170187 
L 1332.76493 335.990314 
L 1264.201242 335.990314 
L 1264.201242 429.170187 
z
" clip-path="url(#pf057e48327)" style="fill: #e78cd7; stroke: #464646; stroke-width: 1.5; stroke-linejoin: miter"/>
   </g>
   <g id="patch_18">
    <path d="M 1349.905852 511.627623 
L 1418.469539 511.627623 
L 1418.469539 455.989785 
L 1349.905852 455.989785 
L 1349.905852 511.627623 
z
" clip-path="url(#pf057e48327)" style="fill: #e992be; stroke: #464646; stroke-width: 1.5; stroke-linejoin: miter"/>
   </g>
   <g id="line2d_6">
    <path d="M 98.618555 520.972619 
L 98.618555 642.673636 
" clip-path="url(#pf057e48327)" style="fill: none; stroke: #464646; stroke-width: 1.5; stroke-linecap: round"/>
   </g>
   <g id="line2d_7">
    <path d="M 98.618555 382.904354 
L 98.618555 203.728911 
" clip-path="url(#pf057e48327)" style="fill: none; stroke: #464646; stroke-width: 1.5; stroke-linecap: round"/>
   </g>
   <g id="line2d_8">
    <path d="M 81.477633 642.673636 
L 115.759477 642.673636 
" clip-path="url(#pf057e48327)" style="fill: none; stroke: #464646; stroke-width: 1.5; stroke-linecap: round"/>
   </g>
   <g id="line2d_9">
    <path d="M 81.477633 203.728911 
L 115.759477 203.728911 
" clip-path="url(#pf057e48327)" style="fill: none; stroke: #464646; stroke-width: 1.5; stroke-linecap: round"/>
   </g>
   <g id="line2d_10"/>
   <g id="line2d_11">
    <path d="M 184.323164 562.890058 
L 184.323164 562.890058 
" clip-path="url(#pf057e48327)" style="fill: none; stroke: #464646; stroke-width: 1.5; stroke-linecap: round"/>
   </g>
   <g id="line2d_12">
    <path d="M 184.323164 562.890058 
L 184.323164 562.890058 
" clip-path="url(#pf057e48327)" style="fill: none; stroke: #464646; stroke-width: 1.5; stroke-linecap: round"/>
   </g>
   <g id="line2d_13">
    <path d="M 167.182242 562.890058 
L 201.464086 562.890058 
" clip-path="url(#pf057e48327)" style="fill: none; stroke: #464646; stroke-width: 1.5; stroke-linecap: round"/>
   </g>
   <g id="line2d_14">
    <path d="M 167.182242 562.890058 
L 201.464086 562.890058 
" clip-path="url(#pf057e48327)" style="fill: none; stroke: #464646; stroke-width: 1.5; stroke-linecap: round"/>
   </g>
   <g id="line2d_15"/>
   <g id="line2d_16">
    <path d="M 270.027773 522.957755 
L 270.027773 577.74482 
" clip-path="url(#pf057e48327)" style="fill: none; stroke: #464646; stroke-width: 1.5; stroke-linecap: round"/>
   </g>
   <g id="line2d_17">
    <path d="M 270.027773 477.785773 
L 270.027773 460.93237 
" clip-path="url(#pf057e48327)" style="fill: none; stroke: #464646; stroke-width: 1.5; stroke-linecap: round"/>
   </g>
   <g id="line2d_18">
    <path d="M 252.886852 577.74482 
L 287.168695 577.74482 
" clip-path="url(#pf057e48327)" style="fill: none; stroke: #464646; stroke-width: 1.5; stroke-linecap: round"/>
   </g>
   <g id="line2d_19">
    <path d="M 252.886852 460.93237 
L 287.168695 460.93237 
" clip-path="url(#pf057e48327)" style="fill: none; stroke: #464646; stroke-width: 1.5; stroke-linecap: round"/>
   </g>
   <g id="line2d_20">
    <defs>
     <path id="m2ebe1315db" d="M 0 3.535534 
L 2.12132 0 
L 0 -3.535534 
L -2.12132 0 
z
" style="stroke: #464646; stroke-linejoin: miter"/>
    </defs>
    <g clip-path="url(#pf057e48327)">
     <use xlink:href="#m2ebe1315db" x="270.027773" y="398.461342" style="fill: #464646; stroke: #464646; stroke-linejoin: miter"/>
    </g>
   </g>
   <g id="line2d_21">
    <path d="M 355.732383 448.076248 
L 355.732383 503.443999 
" clip-path="url(#pf057e48327)" style="fill: none; stroke: #464646; stroke-width: 1.5; stroke-linecap: round"/>
   </g>
   <g id="line2d_22">
    <path d="M 355.732383 377.853735 
L 355.732383 300.879057 
" clip-path="url(#pf057e48327)" style="fill: none; stroke: #464646; stroke-width: 1.5; stroke-linecap: round"/>
   </g>
   <g id="line2d_23">
    <path d="M 338.591461 503.443999 
L 372.873305 503.443999 
" clip-path="url(#pf057e48327)" style="fill: none; stroke: #464646; stroke-width: 1.5; stroke-linecap: round"/>
   </g>
   <g id="line2d_24">
    <path d="M 338.591461 300.879057 
L 372.873305 300.879057 
" clip-path="url(#pf057e48327)" style="fill: none; stroke: #464646; stroke-width: 1.5; stroke-linecap: round"/>
   </g>
   <g id="line2d_25">
    <g clip-path="url(#pf057e48327)">
     <use xlink:href="#m2ebe1315db" x="355.732383" y="267.118233" style="fill: #464646; stroke: #464646; stroke-linejoin: miter"/>
     <use xlink:href="#m2ebe1315db" x="355.732383" y="150.981" style="fill: #464646; stroke: #464646; stroke-linejoin: miter"/>
     <use xlink:href="#m2ebe1315db" x="355.732383" y="167.186195" style="fill: #464646; stroke: #464646; stroke-linejoin: miter"/>
     <use xlink:href="#m2ebe1315db" x="355.732383" y="204.998318" style="fill: #464646; stroke: #464646; stroke-linejoin: miter"/>
    </g>
   </g>
   <g id="line2d_26">
    <path d="M 441.436992 517.515511 
L 441.436992 602.133639 
" clip-path="url(#pf057e48327)" style="fill: none; stroke: #464646; stroke-width: 1.5; stroke-linecap: round"/>
   </g>
   <g id="line2d_27">
    <path d="M 441.436992 408.238476 
L 441.436992 329.589261 
" clip-path="url(#pf057e48327)" style="fill: none; stroke: #464646; stroke-width: 1.5; stroke-linecap: round"/>
   </g>
   <g id="line2d_28">
    <path d="M 424.29607 602.133639 
L 458.577914 602.133639 
" clip-path="url(#pf057e48327)" style="fill: none; stroke: #464646; stroke-width: 1.5; stroke-linecap: round"/>
   </g>
   <g id="line2d_29">
    <path d="M 424.29607 329.589261 
L 458.577914 329.589261 
" clip-path="url(#pf057e48327)" style="fill: none; stroke: #464646; stroke-width: 1.5; stroke-linecap: round"/>
   </g>
   <g id="line2d_30">
    <g clip-path="url(#pf057e48327)">
     <use xlink:href="#m2ebe1315db" x="441.436992" y="195.194174" style="fill: #464646; stroke: #464646; stroke-linejoin: miter"/>
     <use xlink:href="#m2ebe1315db" x="441.436992" y="167.969446" style="fill: #464646; stroke: #464646; stroke-linejoin: miter"/>
    </g>
   </g>
   <g id="line2d_31">
    <path d="M 527.141602 512.924039 
L 527.141602 595.516518 
" clip-path="url(#pf057e48327)" style="fill: none; stroke: #464646; stroke-width: 1.5; stroke-linecap: round"/>
   </g>
   <g id="line2d_32">
    <path d="M 527.141602 456.19235 
L 527.141602 401.810416 
" clip-path="url(#pf057e48327)" style="fill: none; stroke: #464646; stroke-width: 1.5; stroke-linecap: round"/>
   </g>
   <g id="line2d_33">
    <path d="M 510.00068 595.516518 
L 544.282523 595.516518 
" clip-path="url(#pf057e48327)" style="fill: none; stroke: #464646; stroke-width: 1.5; stroke-linecap: round"/>
   </g>
   <g id="line2d_34">
    <path d="M 510.00068 401.810416 
L 544.282523 401.810416 
" clip-path="url(#pf057e48327)" style="fill: none; stroke: #464646; stroke-width: 1.5; stroke-linecap: round"/>
   </g>
   <g id="line2d_35">
    <g clip-path="url(#pf057e48327)">
     <use xlink:href="#m2ebe1315db" x="527.141602" y="325.943092" style="fill: #464646; stroke: #464646; stroke-linejoin: miter"/>
     <use xlink:href="#m2ebe1315db" x="527.141602" y="356.246808" style="fill: #464646; stroke: #464646; stroke-linejoin: miter"/>
     <use xlink:href="#m2ebe1315db" x="527.141602" y="288.72516" style="fill: #464646; stroke: #464646; stroke-linejoin: miter"/>
    </g>
   </g>
   <g id="line2d_36">
    <path d="M 612.846211 485.321189 
L 612.846211 538.87936 
" clip-path="url(#pf057e48327)" style="fill: none; stroke: #464646; stroke-width: 1.5; stroke-linecap: round"/>
   </g>
   <g id="line2d_37">
    <path d="M 612.846211 390.061649 
L 612.846211 296.206559 
" clip-path="url(#pf057e48327)" style="fill: none; stroke: #464646; stroke-width: 1.5; stroke-linecap: round"/>
   </g>
   <g id="line2d_38">
    <path d="M 595.705289 538.87936 
L 629.987133 538.87936 
" clip-path="url(#pf057e48327)" style="fill: none; stroke: #464646; stroke-width: 1.5; stroke-linecap: round"/>
   </g>
   <g id="line2d_39">
    <path d="M 595.705289 296.206559 
L 629.987133 296.206559 
" clip-path="url(#pf057e48327)" style="fill: none; stroke: #464646; stroke-width: 1.5; stroke-linecap: round"/>
   </g>
   <g id="line2d_40">
    <g clip-path="url(#pf057e48327)">
     <use xlink:href="#m2ebe1315db" x="612.846211" y="210.021928" style="fill: #464646; stroke: #464646; stroke-linejoin: miter"/>
    </g>
   </g>
   <g id="line2d_41">
    <path d="M 698.55082 558.298586 
L 698.55082 622.336116 
" clip-path="url(#pf057e48327)" style="fill: none; stroke: #464646; stroke-width: 1.5; stroke-linecap: round"/>
   </g>
   <g id="line2d_42">
    <path d="M 698.55082 514.963192 
L 698.55082 461.202457 
" clip-path="url(#pf057e48327)" style="fill: none; stroke: #464646; stroke-width: 1.5; stroke-linecap: round"/>
   </g>
   <g id="line2d_43">
    <path d="M 681.409898 622.336116 
L 715.691742 622.336116 
" clip-path="url(#pf057e48327)" style="fill: none; stroke: #464646; stroke-width: 1.5; stroke-linecap: round"/>
   </g>
   <g id="line2d_44">
    <path d="M 681.409898 461.202457 
L 715.691742 461.202457 
" clip-path="url(#pf057e48327)" style="fill: none; stroke: #464646; stroke-width: 1.5; stroke-linecap: round"/>
   </g>
   <g id="line2d_45">
    <g clip-path="url(#pf057e48327)">
     <use xlink:href="#m2ebe1315db" x="698.55082" y="249.8597" style="fill: #464646; stroke: #464646; stroke-linejoin: miter"/>
     <use xlink:href="#m2ebe1315db" x="698.55082" y="425.794105" style="fill: #464646; stroke: #464646; stroke-linejoin: miter"/>
    </g>
   </g>
   <g id="line2d_46">
    <path d="M 784.25543 474.396187 
L 784.25543 510.574285 
" clip-path="url(#pf057e48327)" style="fill: none; stroke: #464646; stroke-width: 1.5; stroke-linecap: round"/>
   </g>
   <g id="line2d_47">
    <path d="M 784.25543 389.791562 
L 784.25543 307.820282 
" clip-path="url(#pf057e48327)" style="fill: none; stroke: #464646; stroke-width: 1.5; stroke-linecap: round"/>
   </g>
   <g id="line2d_48">
    <path d="M 767.114508 510.574285 
L 801.396352 510.574285 
" clip-path="url(#pf057e48327)" style="fill: none; stroke: #464646; stroke-width: 1.5; stroke-linecap: round"/>
   </g>
   <g id="line2d_49">
    <path d="M 767.114508 307.820282 
L 801.396352 307.820282 
" clip-path="url(#pf057e48327)" style="fill: none; stroke: #464646; stroke-width: 1.5; stroke-linecap: round"/>
   </g>
   <g id="line2d_50"/>
   <g id="line2d_51">
    <path d="M 869.960039 498.717484 
L 869.960039 515.597896 
" clip-path="url(#pf057e48327)" style="fill: none; stroke: #464646; stroke-width: 1.5; stroke-linecap: round"/>
   </g>
   <g id="line2d_52">
    <path d="M 869.960039 373.464828 
L 869.960039 191.493988 
" clip-path="url(#pf057e48327)" style="fill: none; stroke: #464646; stroke-width: 1.5; stroke-linecap: round"/>
   </g>
   <g id="line2d_53">
    <path d="M 852.819117 515.597896 
L 887.100961 515.597896 
" clip-path="url(#pf057e48327)" style="fill: none; stroke: #464646; stroke-width: 1.5; stroke-linecap: round"/>
   </g>
   <g id="line2d_54">
    <path d="M 852.819117 191.493988 
L 887.100961 191.493988 
" clip-path="url(#pf057e48327)" style="fill: none; stroke: #464646; stroke-width: 1.5; stroke-linecap: round"/>
   </g>
   <g id="line2d_55"/>
   <g id="line2d_56">
    <path d="M 955.664648 395.746972 
L 955.664648 448.076248 
" clip-path="url(#pf057e48327)" style="fill: none; stroke: #464646; stroke-width: 1.5; stroke-linecap: round"/>
   </g>
   <g id="line2d_57">
    <path d="M 955.664648 323.161201 
L 955.664648 232.006977 
" clip-path="url(#pf057e48327)" style="fill: none; stroke: #464646; stroke-width: 1.5; stroke-linecap: round"/>
   </g>
   <g id="line2d_58">
    <path d="M 938.523727 448.076248 
L 972.80557 448.076248 
" clip-path="url(#pf057e48327)" style="fill: none; stroke: #464646; stroke-width: 1.5; stroke-linecap: round"/>
   </g>
   <g id="line2d_59">
    <path d="M 938.523727 232.006977 
L 972.80557 232.006977 
" clip-path="url(#pf057e48327)" style="fill: none; stroke: #464646; stroke-width: 1.5; stroke-linecap: round"/>
   </g>
   <g id="line2d_60">
    <g clip-path="url(#pf057e48327)">
     <use xlink:href="#m2ebe1315db" x="955.664648" y="191.493988" style="fill: #464646; stroke: #464646; stroke-linejoin: miter"/>
     <use xlink:href="#m2ebe1315db" x="955.664648" y="56.450693" style="fill: #464646; stroke: #464646; stroke-linejoin: miter"/>
     <use xlink:href="#m2ebe1315db" x="955.664648" y="42.946364" style="fill: #464646; stroke: #464646; stroke-linejoin: miter"/>
    </g>
   </g>
   <g id="line2d_61">
    <path d="M 1041.369258 463.606227 
L 1041.369258 493.990969 
" clip-path="url(#pf057e48327)" style="fill: none; stroke: #464646; stroke-width: 1.5; stroke-linecap: round"/>
   </g>
   <g id="line2d_62">
    <path d="M 1041.369258 385.956333 
L 1041.369258 269.819099 
" clip-path="url(#pf057e48327)" style="fill: none; stroke: #464646; stroke-width: 1.5; stroke-linecap: round"/>
   </g>
   <g id="line2d_63">
    <path d="M 1024.228336 493.990969 
L 1058.51018 493.990969 
" clip-path="url(#pf057e48327)" style="fill: none; stroke: #464646; stroke-width: 1.5; stroke-linecap: round"/>
   </g>
   <g id="line2d_64">
    <path d="M 1024.228336 269.819099 
L 1058.51018 269.819099 
" clip-path="url(#pf057e48327)" style="fill: none; stroke: #464646; stroke-width: 1.5; stroke-linecap: round"/>
   </g>
   <g id="line2d_65"/>
   <g id="line2d_66">
    <path d="M 1127.073867 508.899748 
L 1127.073867 523.322372 
" clip-path="url(#pf057e48327)" style="fill: none; stroke: #464646; stroke-width: 1.5; stroke-linecap: round"/>
   </g>
   <g id="line2d_67">
    <path d="M 1127.073867 469.332063 
L 1127.073867 450.426002 
" clip-path="url(#pf057e48327)" style="fill: none; stroke: #464646; stroke-width: 1.5; stroke-linecap: round"/>
   </g>
   <g id="line2d_68">
    <path d="M 1109.932945 523.322372 
L 1144.214789 523.322372 
" clip-path="url(#pf057e48327)" style="fill: none; stroke: #464646; stroke-width: 1.5; stroke-linecap: round"/>
   </g>
   <g id="line2d_69">
    <path d="M 1109.932945 450.426002 
L 1144.214789 450.426002 
" clip-path="url(#pf057e48327)" style="fill: none; stroke: #464646; stroke-width: 1.5; stroke-linecap: round"/>
   </g>
   <g id="line2d_70">
    <g clip-path="url(#pf057e48327)">
     <use xlink:href="#m2ebe1315db" x="1127.073867" y="362.269739" style="fill: #464646; stroke: #464646; stroke-linejoin: miter"/>
    </g>
   </g>
   <g id="line2d_71">
    <path d="M 1212.778477 431.195837 
L 1212.778477 491.290103 
" clip-path="url(#pf057e48327)" style="fill: none; stroke: #464646; stroke-width: 1.5; stroke-linecap: round"/>
   </g>
   <g id="line2d_72">
    <path d="M 1212.778477 364.349406 
L 1212.778477 264.417367 
" clip-path="url(#pf057e48327)" style="fill: none; stroke: #464646; stroke-width: 1.5; stroke-linecap: round"/>
   </g>
   <g id="line2d_73">
    <path d="M 1195.637555 491.290103 
L 1229.919398 491.290103 
" clip-path="url(#pf057e48327)" style="fill: none; stroke: #464646; stroke-width: 1.5; stroke-linecap: round"/>
   </g>
   <g id="line2d_74">
    <path d="M 1195.637555 264.417367 
L 1229.919398 264.417367 
" clip-path="url(#pf057e48327)" style="fill: none; stroke: #464646; stroke-width: 1.5; stroke-linecap: round"/>
   </g>
   <g id="line2d_75">
    <g clip-path="url(#pf057e48327)">
     <use xlink:href="#m2ebe1315db" x="1212.778477" y="232.006977" style="fill: #464646; stroke: #464646; stroke-linejoin: miter"/>
     <use xlink:href="#m2ebe1315db" x="1212.778477" y="234.707842" style="fill: #464646; stroke: #464646; stroke-linejoin: miter"/>
     <use xlink:href="#m2ebe1315db" x="1212.778477" y="64.553291" style="fill: #464646; stroke: #464646; stroke-linejoin: miter"/>
     <use xlink:href="#m2ebe1315db" x="1212.778477" y="118.570609" style="fill: #464646; stroke: #464646; stroke-linejoin: miter"/>
     <use xlink:href="#m2ebe1315db" x="1212.778477" y="186.092256" style="fill: #464646; stroke: #464646; stroke-linejoin: miter"/>
    </g>
   </g>
   <g id="line2d_76">
    <path d="M 1298.483086 429.170187 
L 1298.483086 480.486639 
" clip-path="url(#pf057e48327)" style="fill: none; stroke: #464646; stroke-width: 1.5; stroke-linecap: round"/>
   </g>
   <g id="line2d_77">
    <path d="M 1298.483086 335.990314 
L 1298.483086 213.100915 
" clip-path="url(#pf057e48327)" style="fill: none; stroke: #464646; stroke-width: 1.5; stroke-linecap: round"/>
   </g>
   <g id="line2d_78">
    <path d="M 1281.342164 480.486639 
L 1315.624008 480.486639 
" clip-path="url(#pf057e48327)" style="fill: none; stroke: #464646; stroke-width: 1.5; stroke-linecap: round"/>
   </g>
   <g id="line2d_79">
    <path d="M 1281.342164 213.100915 
L 1315.624008 213.100915 
" clip-path="url(#pf057e48327)" style="fill: none; stroke: #464646; stroke-width: 1.5; stroke-linecap: round"/>
   </g>
   <g id="line2d_80">
    <g clip-path="url(#pf057e48327)">
     <use xlink:href="#m2ebe1315db" x="1298.483086" y="96.963682" style="fill: #464646; stroke: #464646; stroke-linejoin: miter"/>
     <use xlink:href="#m2ebe1315db" x="1298.483086" y="42.946364" style="fill: #464646; stroke: #464646; stroke-linejoin: miter"/>
    </g>
   </g>
   <g id="line2d_81">
    <path d="M 1384.187695 511.627623 
L 1384.187695 559.676027 
" clip-path="url(#pf057e48327)" style="fill: none; stroke: #464646; stroke-width: 1.5; stroke-linecap: round"/>
   </g>
   <g id="line2d_82">
    <path d="M 1384.187695 455.989785 
L 1384.187695 386.388471 
" clip-path="url(#pf057e48327)" style="fill: none; stroke: #464646; stroke-width: 1.5; stroke-linecap: round"/>
   </g>
   <g id="line2d_83">
    <path d="M 1367.046773 559.676027 
L 1401.328617 559.676027 
" clip-path="url(#pf057e48327)" style="fill: none; stroke: #464646; stroke-width: 1.5; stroke-linecap: round"/>
   </g>
   <g id="line2d_84">
    <path d="M 1367.046773 386.388471 
L 1401.328617 386.388471 
" clip-path="url(#pf057e48327)" style="fill: none; stroke: #464646; stroke-width: 1.5; stroke-linecap: round"/>
   </g>
   <g id="line2d_85">
    <g clip-path="url(#pf057e48327)">
     <use xlink:href="#m2ebe1315db" x="1384.187695" y="363.025981" style="fill: #464646; stroke: #464646; stroke-linejoin: miter"/>
     <use xlink:href="#m2ebe1315db" x="1384.187695" y="331.776963" style="fill: #464646; stroke: #464646; stroke-linejoin: miter"/>
     <use xlink:href="#m2ebe1315db" x="1384.187695" y="370.858492" style="fill: #464646; stroke: #464646; stroke-linejoin: miter"/>
     <use xlink:href="#m2ebe1315db" x="1384.187695" y="358.326475" style="fill: #464646; stroke: #464646; stroke-linejoin: miter"/>
    </g>
   </g>
   <g id="line2d_86">
    <path d="M 64.336711 465.982989 
L 132.900398 465.982989 
" clip-path="url(#pf057e48327)" style="fill: none; stroke: #464646; stroke-width: 1.5; stroke-linecap: round"/>
   </g>
   <g id="line2d_87">
    <path d="M 150.04132 562.890058 
L 218.605008 562.890058 
" clip-path="url(#pf057e48327)" style="fill: none; stroke: #464646; stroke-width: 1.5; stroke-linecap: round"/>
   </g>
   <g id="line2d_88">
    <path d="M 235.74593 505.645205 
L 304.309617 505.645205 
" clip-path="url(#pf057e48327)" style="fill: none; stroke: #464646; stroke-width: 1.5; stroke-linecap: round"/>
   </g>
   <g id="line2d_89">
    <path d="M 321.450539 413.640208 
L 390.014227 413.640208 
" clip-path="url(#pf057e48327)" style="fill: none; stroke: #464646; stroke-width: 1.5; stroke-linecap: round"/>
   </g>
   <g id="line2d_90">
    <path d="M 407.155148 479.973475 
L 475.718836 479.973475 
" clip-path="url(#pf057e48327)" style="fill: none; stroke: #464646; stroke-width: 1.5; stroke-linecap: round"/>
   </g>
   <g id="line2d_91">
    <path d="M 492.859758 484.483921 
L 561.423445 484.483921 
" clip-path="url(#pf057e48327)" style="fill: none; stroke: #464646; stroke-width: 1.5; stroke-linecap: round"/>
   </g>
   <g id="line2d_92">
    <path d="M 578.564367 453.315928 
L 647.128055 453.315928 
" clip-path="url(#pf057e48327)" style="fill: none; stroke: #464646; stroke-width: 1.5; stroke-linecap: round"/>
   </g>
   <g id="line2d_93">
    <path d="M 664.268977 525.942212 
L 732.832664 525.942212 
" clip-path="url(#pf057e48327)" style="fill: none; stroke: #464646; stroke-width: 1.5; stroke-linecap: round"/>
   </g>
   <g id="line2d_94">
    <path d="M 749.973586 434.571919 
L 818.537273 434.571919 
" clip-path="url(#pf057e48327)" style="fill: none; stroke: #464646; stroke-width: 1.5; stroke-linecap: round"/>
   </g>
   <g id="line2d_95">
    <path d="M 835.678195 396.08458 
L 904.241883 396.08458 
" clip-path="url(#pf057e48327)" style="fill: none; stroke: #464646; stroke-width: 1.5; stroke-linecap: round"/>
   </g>
   <g id="line2d_96">
    <path d="M 921.382805 354.896375 
L 989.946492 354.896375 
" clip-path="url(#pf057e48327)" style="fill: none; stroke: #464646; stroke-width: 1.5; stroke-linecap: round"/>
   </g>
   <g id="line2d_97">
    <path d="M 1007.087414 419.717156 
L 1075.651102 419.717156 
" clip-path="url(#pf057e48327)" style="fill: none; stroke: #464646; stroke-width: 1.5; stroke-linecap: round"/>
   </g>
   <g id="line2d_98">
    <path d="M 1092.792023 489.966678 
L 1161.355711 489.966678 
" clip-path="url(#pf057e48327)" style="fill: none; stroke: #464646; stroke-width: 1.5; stroke-linecap: round"/>
   </g>
   <g id="line2d_99">
    <path d="M 1178.496633 402.161528 
L 1247.06032 402.161528 
" clip-path="url(#pf057e48327)" style="fill: none; stroke: #464646; stroke-width: 1.5; stroke-linecap: round"/>
   </g>
   <g id="line2d_100">
    <path d="M 1264.201242 407.56326 
L 1332.76493 407.56326 
" clip-path="url(#pf057e48327)" style="fill: none; stroke: #464646; stroke-width: 1.5; stroke-linecap: round"/>
   </g>
   <g id="line2d_101">
    <path d="M 1349.905852 485.267172 
L 1418.469539 485.267172 
" clip-path="url(#pf057e48327)" style="fill: none; stroke: #464646; stroke-width: 1.5; stroke-linecap: round"/>
   </g>
   <g id="patch_19">
    <path d="M 55.76625 672.66 
L 55.76625 12.96 
" style="fill: none; stroke: #ffffff; stroke-width: 1.25; stroke-linejoin: miter; stroke-linecap: square"/>
   </g>
   <g id="patch_20">
    <path d="M 55.76625 672.66 
L 1427.04 672.66 
" style="fill: none; stroke: #ffffff; stroke-width: 1.25; stroke-linejoin: miter; stroke-linecap: square"/>
   </g>
  </g>
 </g>
 <defs>
  <clipPath id="pf057e48327">
   <rect x="55.76625" y="12.96" width="1371.27375" height="659.7"/>
  </clipPath>
 </defs>
</svg>
