<?xml version="1.0" encoding="utf-8" standalone="no"?>
<!DOCTYPE svg PUBLIC "-//W3C//DTD SVG 1.1//EN"
  "http://www.w3.org/Graphics/SVG/1.1/DTD/svg11.dtd">
<svg xmlns:xlink="http://www.w3.org/1999/xlink" width="1440pt" height="720pt" viewBox="0 0 1440 720" xmlns="http://www.w3.org/2000/svg" version="1.1">
 <metadata>
  <rdf:RDF xmlns:dc="http://purl.org/dc/elements/1.1/" xmlns:cc="http://creativecommons.org/ns#" xmlns:rdf="http://www.w3.org/1999/02/22-rdf-syntax-ns#">
   <cc:Work>
    <dc:type rdf:resource="http://purl.org/dc/dcmitype/StillImage"/>
    <dc:date>2023-01-08T20:23:15.416072</dc:date>
    <dc:format>image/svg+xml</dc:format>
    <dc:creator>
     <cc:Agent>
      <dc:title>Matplotlib v3.6.2, https://matplotlib.org/</dc:title>
     </cc:Agent>
    </dc:creator>
   </cc:Work>
  </rdf:RDF>
 </metadata>
 <defs>
  <style type="text/css">*{stroke-linejoin: round; stroke-linecap: butt}</style>
 </defs>
 <g id="figure_1">
  <g id="patch_1">
   <path d="M 0 720 
L 1440 720 
L 1440 0 
L 0 0 
z
" style="fill: #ffffff"/>
  </g>
  <g id="axes_1">
   <g id="patch_2">
    <path d="M 55.8225 672.66 
L 1427.04 672.66 
L 1427.04 12.96 
L 55.8225 12.96 
z
" style="fill: #eaeaf2"/>
   </g>
   <g id="matplotlib.axis_1">
    <g id="xtick_1">
     <g id="text_1">
      <!-- RO -->
      <g style="fill: #262626" transform="translate(90.423047 690.033594) scale(0.11 -0.11)">
       <defs>
        <path id="ArialMT-52" d="M 503 0 
L 503 4581 
L 2534 4581 
Q 3147 4581 3465 4457 
Q 3784 4334 3975 4021 
Q 4166 3709 4166 3331 
Q 4166 2844 3850 2509 
Q 3534 2175 2875 2084 
Q 3116 1969 3241 1856 
Q 3506 1613 3744 1247 
L 4541 0 
L 3778 0 
L 3172 953 
Q 2906 1366 2734 1584 
Q 2563 1803 2427 1890 
Q 2291 1978 2150 2013 
Q 2047 2034 1813 2034 
L 1109 2034 
L 1109 0 
L 503 0 
z
M 1109 2559 
L 2413 2559 
Q 2828 2559 3062 2645 
Q 3297 2731 3419 2920 
Q 3541 3109 3541 3331 
Q 3541 3656 3305 3865 
Q 3069 4075 2559 4075 
L 1109 4075 
L 1109 2559 
z
" transform="scale(0.015625)"/>
        <path id="ArialMT-4f" d="M 309 2231 
Q 309 3372 921 4017 
Q 1534 4663 2503 4663 
Q 3138 4663 3647 4359 
Q 4156 4056 4423 3514 
Q 4691 2972 4691 2284 
Q 4691 1588 4409 1038 
Q 4128 488 3612 205 
Q 3097 -78 2500 -78 
Q 1853 -78 1343 234 
Q 834 547 571 1087 
Q 309 1628 309 2231 
z
M 934 2222 
Q 934 1394 1379 917 
Q 1825 441 2497 441 
Q 3181 441 3623 922 
Q 4066 1403 4066 2288 
Q 4066 2847 3877 3264 
Q 3688 3681 3323 3911 
Q 2959 4141 2506 4141 
Q 1863 4141 1398 3698 
Q 934 3256 934 2222 
z
" transform="scale(0.015625)"/>
       </defs>
       <use xlink:href="#ArialMT-52"/>
       <use xlink:href="#ArialMT-4f" x="72.216797"/>
      </g>
     </g>
    </g>
    <g id="xtick_2">
     <g id="text_2">
      <!-- BG -->
      <g style="fill: #262626" transform="translate(176.4275 690.033594) scale(0.11 -0.11)">
       <defs>
        <path id="ArialMT-42" d="M 469 0 
L 469 4581 
L 2188 4581 
Q 2713 4581 3030 4442 
Q 3347 4303 3526 4014 
Q 3706 3725 3706 3409 
Q 3706 3116 3547 2856 
Q 3388 2597 3066 2438 
Q 3481 2316 3704 2022 
Q 3928 1728 3928 1328 
Q 3928 1006 3792 729 
Q 3656 453 3456 303 
Q 3256 153 2954 76 
Q 2653 0 2216 0 
L 469 0 
z
M 1075 2656 
L 2066 2656 
Q 2469 2656 2644 2709 
Q 2875 2778 2992 2937 
Q 3109 3097 3109 3338 
Q 3109 3566 3000 3739 
Q 2891 3913 2687 3977 
Q 2484 4041 1991 4041 
L 1075 4041 
L 1075 2656 
z
M 1075 541 
L 2216 541 
Q 2509 541 2628 563 
Q 2838 600 2978 687 
Q 3119 775 3209 942 
Q 3300 1109 3300 1328 
Q 3300 1584 3169 1773 
Q 3038 1963 2805 2039 
Q 2572 2116 2134 2116 
L 1075 2116 
L 1075 541 
z
" transform="scale(0.015625)"/>
        <path id="ArialMT-47" d="M 2638 1797 
L 2638 2334 
L 4578 2338 
L 4578 638 
Q 4131 281 3656 101 
Q 3181 -78 2681 -78 
Q 2006 -78 1454 211 
Q 903 500 622 1047 
Q 341 1594 341 2269 
Q 341 2938 620 3517 
Q 900 4097 1425 4378 
Q 1950 4659 2634 4659 
Q 3131 4659 3532 4498 
Q 3934 4338 4162 4050 
Q 4391 3763 4509 3300 
L 3963 3150 
Q 3859 3500 3706 3700 
Q 3553 3900 3268 4020 
Q 2984 4141 2638 4141 
Q 2222 4141 1919 4014 
Q 1616 3888 1430 3681 
Q 1244 3475 1141 3228 
Q 966 2803 966 2306 
Q 966 1694 1177 1281 
Q 1388 869 1791 669 
Q 2194 469 2647 469 
Q 3041 469 3416 620 
Q 3791 772 3984 944 
L 3984 1797 
L 2638 1797 
z
" transform="scale(0.015625)"/>
       </defs>
       <use xlink:href="#ArialMT-42"/>
       <use xlink:href="#ArialMT-47" x="66.699219"/>
      </g>
     </g>
    </g>
    <g id="xtick_3">
     <g id="text_3">
      <!-- CZ -->
      <g style="fill: #262626" transform="translate(262.743906 690.033594) scale(0.11 -0.11)">
       <defs>
        <path id="ArialMT-43" d="M 3763 1606 
L 4369 1453 
Q 4178 706 3683 314 
Q 3188 -78 2472 -78 
Q 1731 -78 1267 223 
Q 803 525 561 1097 
Q 319 1669 319 2325 
Q 319 3041 592 3573 
Q 866 4106 1370 4382 
Q 1875 4659 2481 4659 
Q 3169 4659 3637 4309 
Q 4106 3959 4291 3325 
L 3694 3184 
Q 3534 3684 3231 3912 
Q 2928 4141 2469 4141 
Q 1941 4141 1586 3887 
Q 1231 3634 1087 3207 
Q 944 2781 944 2328 
Q 944 1744 1114 1308 
Q 1284 872 1643 656 
Q 2003 441 2422 441 
Q 2931 441 3284 734 
Q 3638 1028 3763 1606 
z
" transform="scale(0.015625)"/>
        <path id="ArialMT-5a" d="M 128 0 
L 128 563 
L 2475 3497 
Q 2725 3809 2950 4041 
L 394 4041 
L 394 4581 
L 3675 4581 
L 3675 4041 
L 1103 863 
L 825 541 
L 3750 541 
L 3750 0 
L 128 0 
z
" transform="scale(0.015625)"/>
       </defs>
       <use xlink:href="#ArialMT-43"/>
       <use xlink:href="#ArialMT-5a" x="72.216797"/>
      </g>
     </g>
    </g>
    <g id="xtick_4">
     <g id="text_4">
      <!-- DE -->
      <g style="fill: #262626" transform="translate(348.135625 690.033594) scale(0.11 -0.11)">
       <defs>
        <path id="ArialMT-44" d="M 494 0 
L 494 4581 
L 2072 4581 
Q 2606 4581 2888 4516 
Q 3281 4425 3559 4188 
Q 3922 3881 4101 3404 
Q 4281 2928 4281 2316 
Q 4281 1794 4159 1391 
Q 4038 988 3847 723 
Q 3656 459 3429 307 
Q 3203 156 2883 78 
Q 2563 0 2147 0 
L 494 0 
z
M 1100 541 
L 2078 541 
Q 2531 541 2789 625 
Q 3047 709 3200 863 
Q 3416 1078 3536 1442 
Q 3656 1806 3656 2325 
Q 3656 3044 3420 3430 
Q 3184 3816 2847 3947 
Q 2603 4041 2063 4041 
L 1100 4041 
L 1100 541 
z
" transform="scale(0.015625)"/>
        <path id="ArialMT-45" d="M 506 0 
L 506 4581 
L 3819 4581 
L 3819 4041 
L 1113 4041 
L 1113 2638 
L 3647 2638 
L 3647 2100 
L 1113 2100 
L 1113 541 
L 3925 541 
L 3925 0 
L 506 0 
z
" transform="scale(0.015625)"/>
       </defs>
       <use xlink:href="#ArialMT-44"/>
       <use xlink:href="#ArialMT-45" x="72.216797"/>
      </g>
     </g>
    </g>
    <g id="xtick_5">
     <g id="text_5">
      <!-- LT -->
      <g style="fill: #262626" transform="translate(435.465234 690.033594) scale(0.11 -0.11)">
       <defs>
        <path id="ArialMT-4c" d="M 469 0 
L 469 4581 
L 1075 4581 
L 1075 541 
L 3331 541 
L 3331 0 
L 469 0 
z
" transform="scale(0.015625)"/>
        <path id="ArialMT-54" d="M 1659 0 
L 1659 4041 
L 150 4041 
L 150 4581 
L 3781 4581 
L 3781 4041 
L 2266 4041 
L 2266 0 
L 1659 0 
z
" transform="scale(0.015625)"/>
       </defs>
       <use xlink:href="#ArialMT-4c"/>
       <use xlink:href="#ArialMT-54" x="48.240234"/>
      </g>
     </g>
    </g>
    <g id="xtick_6">
     <g id="text_6">
      <!-- LV -->
      <g style="fill: #262626" transform="translate(520.856953 690.033594) scale(0.11 -0.11)">
       <defs>
        <path id="ArialMT-56" d="M 1803 0 
L 28 4581 
L 684 4581 
L 1875 1253 
Q 2019 853 2116 503 
Q 2222 878 2363 1253 
L 3600 4581 
L 4219 4581 
L 2425 0 
L 1803 0 
z
" transform="scale(0.015625)"/>
       </defs>
       <use xlink:href="#ArialMT-4c"/>
       <use xlink:href="#ArialMT-56" x="48.240234"/>
      </g>
     </g>
    </g>
    <g id="xtick_7">
     <g id="text_7">
      <!-- PL -->
      <g style="fill: #262626" transform="translate(606.152422 690.033594) scale(0.11 -0.11)">
       <defs>
        <path id="ArialMT-50" d="M 494 0 
L 494 4581 
L 2222 4581 
Q 2678 4581 2919 4538 
Q 3256 4481 3484 4323 
Q 3713 4166 3852 3881 
Q 3991 3597 3991 3256 
Q 3991 2672 3619 2267 
Q 3247 1863 2275 1863 
L 1100 1863 
L 1100 0 
L 494 0 
z
M 1100 2403 
L 2284 2403 
Q 2872 2403 3119 2622 
Q 3366 2841 3366 3238 
Q 3366 3525 3220 3729 
Q 3075 3934 2838 4000 
Q 2684 4041 2272 4041 
L 1100 4041 
L 1100 2403 
z
" transform="scale(0.015625)"/>
       </defs>
       <use xlink:href="#ArialMT-50"/>
       <use xlink:href="#ArialMT-4c" x="66.699219"/>
      </g>
     </g>
    </g>
    <g id="xtick_8">
     <g id="text_8">
      <!-- SK -->
      <g style="fill: #262626" transform="translate(691.243359 690.033594) scale(0.11 -0.11)">
       <defs>
        <path id="ArialMT-53" d="M 288 1472 
L 859 1522 
Q 900 1178 1048 958 
Q 1197 738 1509 602 
Q 1822 466 2213 466 
Q 2559 466 2825 569 
Q 3091 672 3220 851 
Q 3350 1031 3350 1244 
Q 3350 1459 3225 1620 
Q 3100 1781 2813 1891 
Q 2628 1963 1997 2114 
Q 1366 2266 1113 2400 
Q 784 2572 623 2826 
Q 463 3081 463 3397 
Q 463 3744 659 4045 
Q 856 4347 1234 4503 
Q 1613 4659 2075 4659 
Q 2584 4659 2973 4495 
Q 3363 4331 3572 4012 
Q 3781 3694 3797 3291 
L 3216 3247 
Q 3169 3681 2898 3903 
Q 2628 4125 2100 4125 
Q 1550 4125 1298 3923 
Q 1047 3722 1047 3438 
Q 1047 3191 1225 3031 
Q 1400 2872 2139 2705 
Q 2878 2538 3153 2413 
Q 3553 2228 3743 1945 
Q 3934 1663 3934 1294 
Q 3934 928 3725 604 
Q 3516 281 3123 101 
Q 2731 -78 2241 -78 
Q 1619 -78 1198 103 
Q 778 284 539 648 
Q 300 1013 288 1472 
z
" transform="scale(0.015625)"/>
        <path id="ArialMT-4b" d="M 469 0 
L 469 4581 
L 1075 4581 
L 1075 2309 
L 3350 4581 
L 4172 4581 
L 2250 2725 
L 4256 0 
L 3456 0 
L 1825 2319 
L 1075 1588 
L 1075 0 
L 469 0 
z
" transform="scale(0.015625)"/>
       </defs>
       <use xlink:href="#ArialMT-53"/>
       <use xlink:href="#ArialMT-4b" x="66.699219"/>
      </g>
     </g>
    </g>
    <g id="xtick_9">
     <g id="text_9">
      <!-- FR -->
      <g style="fill: #262626" transform="translate(776.950469 690.033594) scale(0.11 -0.11)">
       <defs>
        <path id="ArialMT-46" d="M 525 0 
L 525 4581 
L 3616 4581 
L 3616 4041 
L 1131 4041 
L 1131 2622 
L 3281 2622 
L 3281 2081 
L 1131 2081 
L 1131 0 
L 525 0 
z
" transform="scale(0.015625)"/>
       </defs>
       <use xlink:href="#ArialMT-46"/>
       <use xlink:href="#ArialMT-52" x="61.083984"/>
      </g>
     </g>
    </g>
    <g id="xtick_10">
     <g id="text_10">
      <!-- AT -->
      <g style="fill: #262626" transform="translate(863.360547 690.033594) scale(0.11 -0.11)">
       <defs>
        <path id="ArialMT-41" d="M -9 0 
L 1750 4581 
L 2403 4581 
L 4278 0 
L 3588 0 
L 3053 1388 
L 1138 1388 
L 634 0 
L -9 0 
z
M 1313 1881 
L 2866 1881 
L 2388 3150 
Q 2169 3728 2063 4100 
Q 1975 3659 1816 3225 
L 1313 1881 
z
" transform="scale(0.015625)"/>
       </defs>
       <use xlink:href="#ArialMT-41"/>
       <use xlink:href="#ArialMT-54" x="59.324219"/>
      </g>
     </g>
    </g>
    <g id="xtick_11">
     <g id="text_11">
      <!-- PT -->
      <g style="fill: #262626" transform="translate(948.656016 690.033594) scale(0.11 -0.11)">
       <use xlink:href="#ArialMT-50"/>
       <use xlink:href="#ArialMT-54" x="66.699219"/>
      </g>
     </g>
    </g>
    <g id="xtick_12">
     <g id="text_12">
      <!-- BE -->
      <g style="fill: #262626" transform="translate(1034.047734 690.033594) scale(0.11 -0.11)">
       <use xlink:href="#ArialMT-42"/>
       <use xlink:href="#ArialMT-45" x="66.699219"/>
      </g>
     </g>
    </g>
    <g id="xtick_13">
     <g id="text_13">
      <!-- HU -->
      <g style="fill: #262626" transform="translate(1119.142109 690.033594) scale(0.11 -0.11)">
       <defs>
        <path id="ArialMT-48" d="M 513 0 
L 513 4581 
L 1119 4581 
L 1119 2700 
L 3500 2700 
L 3500 4581 
L 4106 4581 
L 4106 0 
L 3500 0 
L 3500 2159 
L 1119 2159 
L 1119 0 
L 513 0 
z
" transform="scale(0.015625)"/>
        <path id="ArialMT-55" d="M 3500 4581 
L 4106 4581 
L 4106 1934 
Q 4106 1244 3950 837 
Q 3794 431 3386 176 
Q 2978 -78 2316 -78 
Q 1672 -78 1262 144 
Q 853 366 678 786 
Q 503 1206 503 1934 
L 503 4581 
L 1109 4581 
L 1109 1938 
Q 1109 1341 1220 1058 
Q 1331 775 1601 622 
Q 1872 469 2263 469 
Q 2931 469 3215 772 
Q 3500 1075 3500 1938 
L 3500 4581 
z
" transform="scale(0.015625)"/>
       </defs>
       <use xlink:href="#ArialMT-48"/>
       <use xlink:href="#ArialMT-55" x="72.216797"/>
      </g>
     </g>
    </g>
    <g id="xtick_14">
     <g id="text_14">
      <!-- NL -->
      <g style="fill: #262626" transform="translate(1205.756719 690.033594) scale(0.11 -0.11)">
       <defs>
        <path id="ArialMT-4e" d="M 488 0 
L 488 4581 
L 1109 4581 
L 3516 984 
L 3516 4581 
L 4097 4581 
L 4097 0 
L 3475 0 
L 1069 3600 
L 1069 0 
L 488 0 
z
" transform="scale(0.015625)"/>
       </defs>
       <use xlink:href="#ArialMT-4e"/>
       <use xlink:href="#ArialMT-4c" x="72.216797"/>
      </g>
     </g>
    </g>
    <g id="xtick_15">
     <g id="text_15">
      <!-- IE -->
      <g style="fill: #262626" transform="translate(1293.291719 690.033594) scale(0.11 -0.11)">
       <defs>
        <path id="ArialMT-49" d="M 597 0 
L 597 4581 
L 1203 4581 
L 1203 0 
L 597 0 
z
" transform="scale(0.015625)"/>
       </defs>
       <use xlink:href="#ArialMT-49"/>
       <use xlink:href="#ArialMT-45" x="27.783203"/>
      </g>
     </g>
    </g>
    <g id="xtick_16">
     <g id="text_16">
      <!-- UK -->
      <g style="fill: #262626" transform="translate(1376.54875 690.033594) scale(0.11 -0.11)">
       <use xlink:href="#ArialMT-55"/>
       <use xlink:href="#ArialMT-4b" x="72.216797"/>
      </g>
     </g>
    </g>
    <g id="text_17">
     <!-- memberStateCode -->
     <g style="fill: #262626" transform="translate(691.07625 704.809219) scale(0.12 -0.12)">
      <defs>
       <path id="ArialMT-6d" d="M 422 0 
L 422 3319 
L 925 3319 
L 925 2853 
Q 1081 3097 1340 3245 
Q 1600 3394 1931 3394 
Q 2300 3394 2536 3241 
Q 2772 3088 2869 2813 
Q 3263 3394 3894 3394 
Q 4388 3394 4653 3120 
Q 4919 2847 4919 2278 
L 4919 0 
L 4359 0 
L 4359 2091 
Q 4359 2428 4304 2576 
Q 4250 2725 4106 2815 
Q 3963 2906 3769 2906 
Q 3419 2906 3187 2673 
Q 2956 2441 2956 1928 
L 2956 0 
L 2394 0 
L 2394 2156 
Q 2394 2531 2256 2718 
Q 2119 2906 1806 2906 
Q 1569 2906 1367 2781 
Q 1166 2656 1075 2415 
Q 984 2175 984 1722 
L 984 0 
L 422 0 
z
" transform="scale(0.015625)"/>
       <path id="ArialMT-65" d="M 2694 1069 
L 3275 997 
Q 3138 488 2766 206 
Q 2394 -75 1816 -75 
Q 1088 -75 661 373 
Q 234 822 234 1631 
Q 234 2469 665 2931 
Q 1097 3394 1784 3394 
Q 2450 3394 2872 2941 
Q 3294 2488 3294 1666 
Q 3294 1616 3291 1516 
L 816 1516 
Q 847 969 1125 678 
Q 1403 388 1819 388 
Q 2128 388 2347 550 
Q 2566 713 2694 1069 
z
M 847 1978 
L 2700 1978 
Q 2663 2397 2488 2606 
Q 2219 2931 1791 2931 
Q 1403 2931 1139 2672 
Q 875 2413 847 1978 
z
" transform="scale(0.015625)"/>
       <path id="ArialMT-62" d="M 941 0 
L 419 0 
L 419 4581 
L 981 4581 
L 981 2947 
Q 1338 3394 1891 3394 
Q 2197 3394 2470 3270 
Q 2744 3147 2920 2923 
Q 3097 2700 3197 2384 
Q 3297 2069 3297 1709 
Q 3297 856 2875 390 
Q 2453 -75 1863 -75 
Q 1275 -75 941 416 
L 941 0 
z
M 934 1684 
Q 934 1088 1097 822 
Q 1363 388 1816 388 
Q 2184 388 2453 708 
Q 2722 1028 2722 1663 
Q 2722 2313 2464 2622 
Q 2206 2931 1841 2931 
Q 1472 2931 1203 2611 
Q 934 2291 934 1684 
z
" transform="scale(0.015625)"/>
       <path id="ArialMT-72" d="M 416 0 
L 416 3319 
L 922 3319 
L 922 2816 
Q 1116 3169 1280 3281 
Q 1444 3394 1641 3394 
Q 1925 3394 2219 3213 
L 2025 2691 
Q 1819 2813 1613 2813 
Q 1428 2813 1281 2702 
Q 1134 2591 1072 2394 
Q 978 2094 978 1738 
L 978 0 
L 416 0 
z
" transform="scale(0.015625)"/>
       <path id="ArialMT-74" d="M 1650 503 
L 1731 6 
Q 1494 -44 1306 -44 
Q 1000 -44 831 53 
Q 663 150 594 308 
Q 525 466 525 972 
L 525 2881 
L 113 2881 
L 113 3319 
L 525 3319 
L 525 4141 
L 1084 4478 
L 1084 3319 
L 1650 3319 
L 1650 2881 
L 1084 2881 
L 1084 941 
Q 1084 700 1114 631 
Q 1144 563 1211 522 
Q 1278 481 1403 481 
Q 1497 481 1650 503 
z
" transform="scale(0.015625)"/>
       <path id="ArialMT-61" d="M 2588 409 
Q 2275 144 1986 34 
Q 1697 -75 1366 -75 
Q 819 -75 525 192 
Q 231 459 231 875 
Q 231 1119 342 1320 
Q 453 1522 633 1644 
Q 813 1766 1038 1828 
Q 1203 1872 1538 1913 
Q 2219 1994 2541 2106 
Q 2544 2222 2544 2253 
Q 2544 2597 2384 2738 
Q 2169 2928 1744 2928 
Q 1347 2928 1158 2789 
Q 969 2650 878 2297 
L 328 2372 
Q 403 2725 575 2942 
Q 747 3159 1072 3276 
Q 1397 3394 1825 3394 
Q 2250 3394 2515 3294 
Q 2781 3194 2906 3042 
Q 3031 2891 3081 2659 
Q 3109 2516 3109 2141 
L 3109 1391 
Q 3109 606 3145 398 
Q 3181 191 3288 0 
L 2700 0 
Q 2613 175 2588 409 
z
M 2541 1666 
Q 2234 1541 1622 1453 
Q 1275 1403 1131 1340 
Q 988 1278 909 1158 
Q 831 1038 831 891 
Q 831 666 1001 516 
Q 1172 366 1500 366 
Q 1825 366 2078 508 
Q 2331 650 2450 897 
Q 2541 1088 2541 1459 
L 2541 1666 
z
" transform="scale(0.015625)"/>
       <path id="ArialMT-6f" d="M 213 1659 
Q 213 2581 725 3025 
Q 1153 3394 1769 3394 
Q 2453 3394 2887 2945 
Q 3322 2497 3322 1706 
Q 3322 1066 3130 698 
Q 2938 331 2570 128 
Q 2203 -75 1769 -75 
Q 1072 -75 642 372 
Q 213 819 213 1659 
z
M 791 1659 
Q 791 1022 1069 705 
Q 1347 388 1769 388 
Q 2188 388 2466 706 
Q 2744 1025 2744 1678 
Q 2744 2294 2464 2611 
Q 2184 2928 1769 2928 
Q 1347 2928 1069 2612 
Q 791 2297 791 1659 
z
" transform="scale(0.015625)"/>
       <path id="ArialMT-64" d="M 2575 0 
L 2575 419 
Q 2259 -75 1647 -75 
Q 1250 -75 917 144 
Q 584 363 401 755 
Q 219 1147 219 1656 
Q 219 2153 384 2558 
Q 550 2963 881 3178 
Q 1213 3394 1622 3394 
Q 1922 3394 2156 3267 
Q 2391 3141 2538 2938 
L 2538 4581 
L 3097 4581 
L 3097 0 
L 2575 0 
z
M 797 1656 
Q 797 1019 1065 703 
Q 1334 388 1700 388 
Q 2069 388 2326 689 
Q 2584 991 2584 1609 
Q 2584 2291 2321 2609 
Q 2059 2928 1675 2928 
Q 1300 2928 1048 2622 
Q 797 2316 797 1656 
z
" transform="scale(0.015625)"/>
      </defs>
      <use xlink:href="#ArialMT-6d"/>
      <use xlink:href="#ArialMT-65" x="83.300781"/>
      <use xlink:href="#ArialMT-6d" x="138.916016"/>
      <use xlink:href="#ArialMT-62" x="222.216797"/>
      <use xlink:href="#ArialMT-65" x="277.832031"/>
      <use xlink:href="#ArialMT-72" x="333.447266"/>
      <use xlink:href="#ArialMT-53" x="366.748047"/>
      <use xlink:href="#ArialMT-74" x="433.447266"/>
      <use xlink:href="#ArialMT-61" x="461.230469"/>
      <use xlink:href="#ArialMT-74" x="516.845703"/>
      <use xlink:href="#ArialMT-65" x="544.628906"/>
      <use xlink:href="#ArialMT-43" x="600.244141"/>
      <use xlink:href="#ArialMT-6f" x="672.460938"/>
      <use xlink:href="#ArialMT-64" x="728.076172"/>
      <use xlink:href="#ArialMT-65" x="783.691406"/>
     </g>
    </g>
   </g>
   <g id="matplotlib.axis_2">
    <g id="ytick_1">
     <g id="line2d_1">
      <path d="M 55.8225 648.231786 
L 1427.04 648.231786 
" clip-path="url(#p89ed6b3084)" style="fill: none; stroke: #ffffff; stroke-linecap: round"/>
     </g>
     <g id="text_18">
      <!-- 100 -->
      <g style="fill: #262626" transform="translate(27.971406 652.168583) scale(0.11 -0.11)">
       <defs>
        <path id="ArialMT-31" d="M 2384 0 
L 1822 0 
L 1822 3584 
Q 1619 3391 1289 3197 
Q 959 3003 697 2906 
L 697 3450 
Q 1169 3672 1522 3987 
Q 1875 4303 2022 4600 
L 2384 4600 
L 2384 0 
z
" transform="scale(0.015625)"/>
        <path id="ArialMT-30" d="M 266 2259 
Q 266 3072 433 3567 
Q 600 4063 929 4331 
Q 1259 4600 1759 4600 
Q 2128 4600 2406 4451 
Q 2684 4303 2865 4023 
Q 3047 3744 3150 3342 
Q 3253 2941 3253 2259 
Q 3253 1453 3087 958 
Q 2922 463 2592 192 
Q 2263 -78 1759 -78 
Q 1097 -78 719 397 
Q 266 969 266 2259 
z
M 844 2259 
Q 844 1131 1108 757 
Q 1372 384 1759 384 
Q 2147 384 2411 759 
Q 2675 1134 2675 2259 
Q 2675 3391 2411 3762 
Q 2147 4134 1753 4134 
Q 1366 4134 1134 3806 
Q 844 3388 844 2259 
z
" transform="scale(0.015625)"/>
       </defs>
       <use xlink:href="#ArialMT-31"/>
       <use xlink:href="#ArialMT-30" x="55.615234"/>
       <use xlink:href="#ArialMT-30" x="111.230469"/>
      </g>
     </g>
    </g>
    <g id="ytick_2">
     <g id="line2d_2">
      <path d="M 55.8225 502.730483 
L 1427.04 502.730483 
" clip-path="url(#p89ed6b3084)" style="fill: none; stroke: #ffffff; stroke-linecap: round"/>
     </g>
     <g id="text_19">
      <!-- 150 -->
      <g style="fill: #262626" transform="translate(27.971406 506.66728) scale(0.11 -0.11)">
       <defs>
        <path id="ArialMT-35" d="M 266 1200 
L 856 1250 
Q 922 819 1161 601 
Q 1400 384 1738 384 
Q 2144 384 2425 690 
Q 2706 997 2706 1503 
Q 2706 1984 2436 2262 
Q 2166 2541 1728 2541 
Q 1456 2541 1237 2417 
Q 1019 2294 894 2097 
L 366 2166 
L 809 4519 
L 3088 4519 
L 3088 3981 
L 1259 3981 
L 1013 2750 
Q 1425 3038 1878 3038 
Q 2478 3038 2890 2622 
Q 3303 2206 3303 1553 
Q 3303 931 2941 478 
Q 2500 -78 1738 -78 
Q 1113 -78 717 272 
Q 322 622 266 1200 
z
" transform="scale(0.015625)"/>
       </defs>
       <use xlink:href="#ArialMT-31"/>
       <use xlink:href="#ArialMT-35" x="55.615234"/>
       <use xlink:href="#ArialMT-30" x="111.230469"/>
      </g>
     </g>
    </g>
    <g id="ytick_3">
     <g id="line2d_3">
      <path d="M 55.8225 357.229179 
L 1427.04 357.229179 
" clip-path="url(#p89ed6b3084)" style="fill: none; stroke: #ffffff; stroke-linecap: round"/>
     </g>
     <g id="text_20">
      <!-- 200 -->
      <g style="fill: #262626" transform="translate(27.971406 361.165976) scale(0.11 -0.11)">
       <defs>
        <path id="ArialMT-32" d="M 3222 541 
L 3222 0 
L 194 0 
Q 188 203 259 391 
Q 375 700 629 1000 
Q 884 1300 1366 1694 
Q 2113 2306 2375 2664 
Q 2638 3022 2638 3341 
Q 2638 3675 2398 3904 
Q 2159 4134 1775 4134 
Q 1369 4134 1125 3890 
Q 881 3647 878 3216 
L 300 3275 
Q 359 3922 746 4261 
Q 1134 4600 1788 4600 
Q 2447 4600 2831 4234 
Q 3216 3869 3216 3328 
Q 3216 3053 3103 2787 
Q 2991 2522 2730 2228 
Q 2469 1934 1863 1422 
Q 1356 997 1212 845 
Q 1069 694 975 541 
L 3222 541 
z
" transform="scale(0.015625)"/>
       </defs>
       <use xlink:href="#ArialMT-32"/>
       <use xlink:href="#ArialMT-30" x="55.615234"/>
       <use xlink:href="#ArialMT-30" x="111.230469"/>
      </g>
     </g>
    </g>
    <g id="ytick_4">
     <g id="line2d_4">
      <path d="M 55.8225 211.727876 
L 1427.04 211.727876 
" clip-path="url(#p89ed6b3084)" style="fill: none; stroke: #ffffff; stroke-linecap: round"/>
     </g>
     <g id="text_21">
      <!-- 250 -->
      <g style="fill: #262626" transform="translate(27.971406 215.664673) scale(0.11 -0.11)">
       <use xlink:href="#ArialMT-32"/>
       <use xlink:href="#ArialMT-35" x="55.615234"/>
       <use xlink:href="#ArialMT-30" x="111.230469"/>
      </g>
     </g>
    </g>
    <g id="ytick_5">
     <g id="line2d_5">
      <path d="M 55.8225 66.226572 
L 1427.04 66.226572 
" clip-path="url(#p89ed6b3084)" style="fill: none; stroke: #ffffff; stroke-linecap: round"/>
     </g>
     <g id="text_22">
      <!-- 300 -->
      <g style="fill: #262626" transform="translate(27.971406 70.163369) scale(0.11 -0.11)">
       <defs>
        <path id="ArialMT-33" d="M 269 1209 
L 831 1284 
Q 928 806 1161 595 
Q 1394 384 1728 384 
Q 2125 384 2398 659 
Q 2672 934 2672 1341 
Q 2672 1728 2419 1979 
Q 2166 2231 1775 2231 
Q 1616 2231 1378 2169 
L 1441 2663 
Q 1497 2656 1531 2656 
Q 1891 2656 2178 2843 
Q 2466 3031 2466 3422 
Q 2466 3731 2256 3934 
Q 2047 4138 1716 4138 
Q 1388 4138 1169 3931 
Q 950 3725 888 3313 
L 325 3413 
Q 428 3978 793 4289 
Q 1159 4600 1703 4600 
Q 2078 4600 2393 4439 
Q 2709 4278 2876 4000 
Q 3044 3722 3044 3409 
Q 3044 3113 2884 2869 
Q 2725 2625 2413 2481 
Q 2819 2388 3044 2092 
Q 3269 1797 3269 1353 
Q 3269 753 2831 336 
Q 2394 -81 1725 -81 
Q 1122 -81 723 278 
Q 325 638 269 1209 
z
" transform="scale(0.015625)"/>
       </defs>
       <use xlink:href="#ArialMT-33"/>
       <use xlink:href="#ArialMT-30" x="55.615234"/>
       <use xlink:href="#ArialMT-30" x="111.230469"/>
      </g>
     </g>
    </g>
    <g id="text_23">
     <!-- wheat_price -->
     <g style="fill: #262626" transform="translate(21.586406 375.160313) rotate(-90) scale(0.12 -0.12)">
      <defs>
       <path id="ArialMT-77" d="M 1034 0 
L 19 3319 
L 600 3319 
L 1128 1403 
L 1325 691 
Q 1338 744 1497 1375 
L 2025 3319 
L 2603 3319 
L 3100 1394 
L 3266 759 
L 3456 1400 
L 4025 3319 
L 4572 3319 
L 3534 0 
L 2950 0 
L 2422 1988 
L 2294 2553 
L 1622 0 
L 1034 0 
z
" transform="scale(0.015625)"/>
       <path id="ArialMT-68" d="M 422 0 
L 422 4581 
L 984 4581 
L 984 2938 
Q 1378 3394 1978 3394 
Q 2347 3394 2619 3248 
Q 2891 3103 3008 2847 
Q 3125 2591 3125 2103 
L 3125 0 
L 2563 0 
L 2563 2103 
Q 2563 2525 2380 2717 
Q 2197 2909 1863 2909 
Q 1613 2909 1392 2779 
Q 1172 2650 1078 2428 
Q 984 2206 984 1816 
L 984 0 
L 422 0 
z
" transform="scale(0.015625)"/>
       <path id="ArialMT-5f" d="M -97 -1272 
L -97 -866 
L 3631 -866 
L 3631 -1272 
L -97 -1272 
z
" transform="scale(0.015625)"/>
       <path id="ArialMT-70" d="M 422 -1272 
L 422 3319 
L 934 3319 
L 934 2888 
Q 1116 3141 1344 3267 
Q 1572 3394 1897 3394 
Q 2322 3394 2647 3175 
Q 2972 2956 3137 2557 
Q 3303 2159 3303 1684 
Q 3303 1175 3120 767 
Q 2938 359 2589 142 
Q 2241 -75 1856 -75 
Q 1575 -75 1351 44 
Q 1128 163 984 344 
L 984 -1272 
L 422 -1272 
z
M 931 1641 
Q 931 1000 1190 694 
Q 1450 388 1819 388 
Q 2194 388 2461 705 
Q 2728 1022 2728 1688 
Q 2728 2322 2467 2637 
Q 2206 2953 1844 2953 
Q 1484 2953 1207 2617 
Q 931 2281 931 1641 
z
" transform="scale(0.015625)"/>
       <path id="ArialMT-69" d="M 425 3934 
L 425 4581 
L 988 4581 
L 988 3934 
L 425 3934 
z
M 425 0 
L 425 3319 
L 988 3319 
L 988 0 
L 425 0 
z
" transform="scale(0.015625)"/>
       <path id="ArialMT-63" d="M 2588 1216 
L 3141 1144 
Q 3050 572 2676 248 
Q 2303 -75 1759 -75 
Q 1078 -75 664 370 
Q 250 816 250 1647 
Q 250 2184 428 2587 
Q 606 2991 970 3192 
Q 1334 3394 1763 3394 
Q 2303 3394 2647 3120 
Q 2991 2847 3088 2344 
L 2541 2259 
Q 2463 2594 2264 2762 
Q 2066 2931 1784 2931 
Q 1359 2931 1093 2626 
Q 828 2322 828 1663 
Q 828 994 1084 691 
Q 1341 388 1753 388 
Q 2084 388 2306 591 
Q 2528 794 2588 1216 
z
" transform="scale(0.015625)"/>
      </defs>
      <use xlink:href="#ArialMT-77"/>
      <use xlink:href="#ArialMT-68" x="72.216797"/>
      <use xlink:href="#ArialMT-65" x="127.832031"/>
      <use xlink:href="#ArialMT-61" x="183.447266"/>
      <use xlink:href="#ArialMT-74" x="239.0625"/>
      <use xlink:href="#ArialMT-5f" x="266.845703"/>
      <use xlink:href="#ArialMT-70" x="322.460938"/>
      <use xlink:href="#ArialMT-72" x="378.076172"/>
      <use xlink:href="#ArialMT-69" x="411.376953"/>
      <use xlink:href="#ArialMT-63" x="433.59375"/>
      <use xlink:href="#ArialMT-65" x="483.59375"/>
     </g>
    </g>
   </g>
   <g id="patch_3">
    <path d="M 64.392609 540.444421 
L 132.953484 540.444421 
L 132.953484 462.077418 
L 64.392609 462.077418 
L 64.392609 540.444421 
z
" clip-path="url(#p89ed6b3084)" style="fill: #ea96a3; stroke: #464646; stroke-width: 1.5; stroke-linejoin: miter"/>
   </g>
   <g id="patch_4">
    <path d="M 150.093703 507.735728 
L 218.654578 507.735728 
L 218.654578 507.735728 
L 150.093703 507.735728 
L 150.093703 507.735728 
z
" clip-path="url(#p89ed6b3084)" style="fill: #e69576; stroke: #464646; stroke-width: 1.5; stroke-linejoin: miter"/>
   </g>
   <g id="patch_5">
    <path d="M 235.794797 527.924033 
L 304.355672 527.924033 
L 304.355672 482.687678 
L 235.794797 482.687678 
L 235.794797 527.924033 
z
" clip-path="url(#p89ed6b3084)" style="fill: #ca984c; stroke: #464646; stroke-width: 1.5; stroke-linejoin: miter"/>
   </g>
   <g id="patch_6">
    <path d="M 321.495891 452.896286 
L 390.056766 452.896286 
L 390.056766 346.680335 
L 321.495891 346.680335 
L 321.495891 452.896286 
z
" clip-path="url(#p89ed6b3084)" style="fill: #b09d48; stroke: #464646; stroke-width: 1.5; stroke-linejoin: miter"/>
   </g>
   <g id="patch_7">
    <path d="M 407.196984 543.73275 
L 475.757859 543.73275 
L 475.757859 425.178288 
L 407.196984 425.178288 
L 407.196984 543.73275 
z
" clip-path="url(#p89ed6b3084)" style="fill: #98a246; stroke: #464646; stroke-width: 1.5; stroke-linejoin: miter"/>
   </g>
   <g id="patch_8">
    <path d="M 492.898078 567.798666 
L 561.458953 567.798666 
L 561.458953 480.366932 
L 492.898078 480.366932 
L 492.898078 567.798666 
z
" clip-path="url(#p89ed6b3084)" style="fill: #76ab47; stroke: #464646; stroke-width: 1.5; stroke-linejoin: miter"/>
   </g>
   <g id="patch_9">
    <path d="M 578.599172 490.479273 
L 647.160047 490.479273 
L 647.160047 403.818697 
L 578.599172 403.818697 
L 578.599172 490.479273 
z
" clip-path="url(#p89ed6b3084)" style="fill: #49af72; stroke: #464646; stroke-width: 1.5; stroke-linejoin: miter"/>
   </g>
   <g id="patch_10">
    <path d="M 664.300266 576.936147 
L 732.861141 576.936147 
L 732.861141 534.289715 
L 664.300266 534.289715 
L 664.300266 576.936147 
z
" clip-path="url(#p89ed6b3084)" style="fill: #4aad92; stroke: #464646; stroke-width: 1.5; stroke-linejoin: miter"/>
   </g>
   <g id="patch_11">
    <path d="M 750.001359 510.514802 
L 818.562234 510.514802 
L 818.562234 427.040705 
L 750.001359 427.040705 
L 750.001359 510.514802 
z
" clip-path="url(#p89ed6b3084)" style="fill: #4baba4; stroke: #464646; stroke-width: 1.5; stroke-linejoin: miter"/>
   </g>
   <g id="patch_12">
    <path d="M 835.702453 496.910431 
L 904.263328 496.910431 
L 904.263328 342.679049 
L 835.702453 342.679049 
L 835.702453 496.910431 
z
" clip-path="url(#p89ed6b3084)" style="fill: #4eabb6; stroke: #464646; stroke-width: 1.5; stroke-linejoin: miter"/>
   </g>
   <g id="patch_13">
    <path d="M 921.403547 415.429701 
L 989.964422 415.429701 
L 989.964422 309.213749 
L 921.403547 309.213749 
L 921.403547 415.429701 
z
" clip-path="url(#p89ed6b3084)" style="fill: #53accd; stroke: #464646; stroke-width: 1.5; stroke-linejoin: miter"/>
   </g>
   <g id="patch_14">
    <path d="M 1007.104641 464.172637 
L 1075.665516 464.172637 
L 1075.665516 412.519675 
L 1007.104641 412.519675 
L 1007.104641 464.172637 
z
" clip-path="url(#p89ed6b3084)" style="fill: #88aee6; stroke: #464646; stroke-width: 1.5; stroke-linejoin: miter"/>
   </g>
   <g id="patch_15">
    <path d="M 1092.805734 545.216863 
L 1161.366609 545.216863 
L 1161.366609 502.730483 
L 1092.805734 502.730483 
L 1092.805734 545.216863 
z
" clip-path="url(#p89ed6b3084)" style="fill: #b6a8eb; stroke: #464646; stroke-width: 1.5; stroke-linejoin: miter"/>
   </g>
   <g id="patch_16">
    <path d="M 1178.506828 440.164922 
L 1247.067703 440.164922 
L 1247.067703 351.409127 
L 1178.506828 351.409127 
L 1178.506828 440.164922 
z
" clip-path="url(#p89ed6b3084)" style="fill: #d497e8; stroke: #464646; stroke-width: 1.5; stroke-linejoin: miter"/>
   </g>
   <g id="patch_17">
    <path d="M 1264.207922 438.709909 
L 1332.768797 438.709909 
L 1332.768797 320.126347 
L 1264.207922 320.126347 
L 1264.207922 438.709909 
z
" clip-path="url(#p89ed6b3084)" style="fill: #e78cd7; stroke: #464646; stroke-width: 1.5; stroke-linejoin: miter"/>
   </g>
   <g id="patch_18">
    <path d="M 1349.909016 520.568942 
L 1418.469891 520.568942 
L 1418.469891 449.389705 
L 1349.909016 449.389705 
L 1349.909016 520.568942 
z
" clip-path="url(#p89ed6b3084)" style="fill: #e992be; stroke: #464646; stroke-width: 1.5; stroke-linejoin: miter"/>
   </g>
   <g id="line2d_6">
    <path d="M 98.673047 540.444421 
L 98.673047 642.673636 
" clip-path="url(#p89ed6b3084)" style="fill: none; stroke: #464646; stroke-width: 1.5; stroke-linecap: round"/>
   </g>
   <g id="line2d_7">
    <path d="M 98.673047 462.077418 
L 98.673047 358.247688 
" clip-path="url(#p89ed6b3084)" style="fill: none; stroke: #464646; stroke-width: 1.5; stroke-linecap: round"/>
   </g>
   <g id="line2d_8">
    <path d="M 81.532828 642.673636 
L 115.813266 642.673636 
" clip-path="url(#p89ed6b3084)" style="fill: none; stroke: #464646; stroke-width: 1.5; stroke-linecap: round"/>
   </g>
   <g id="line2d_9">
    <path d="M 81.532828 358.247688 
L 115.813266 358.247688 
" clip-path="url(#p89ed6b3084)" style="fill: none; stroke: #464646; stroke-width: 1.5; stroke-linecap: round"/>
   </g>
   <g id="line2d_10">
    <defs>
     <path id="mae432f1bbb" d="M 0 3.535534 
L 2.12132 0 
L 0 -3.535534 
L -2.12132 0 
z
" style="stroke: #464646; stroke-linejoin: miter"/>
    </defs>
    <g clip-path="url(#p89ed6b3084)">
     <use xlink:href="#mae432f1bbb" x="98.673047" y="296.147732" style="fill: #464646; stroke: #464646; stroke-linejoin: miter"/>
     <use xlink:href="#mae432f1bbb" x="98.673047" y="270.2776" style="fill: #464646; stroke: #464646; stroke-linejoin: miter"/>
     <use xlink:href="#mae432f1bbb" x="98.673047" y="328.041618" style="fill: #464646; stroke: #464646; stroke-linejoin: miter"/>
     <use xlink:href="#mae432f1bbb" x="98.673047" y="303.946602" style="fill: #464646; stroke: #464646; stroke-linejoin: miter"/>
     <use xlink:href="#mae432f1bbb" x="98.673047" y="332.435757" style="fill: #464646; stroke: #464646; stroke-linejoin: miter"/>
     <use xlink:href="#mae432f1bbb" x="98.673047" y="190.222783" style="fill: #464646; stroke: #464646; stroke-linejoin: miter"/>
    </g>
   </g>
   <g id="line2d_11">
    <path d="M 184.374141 507.735728 
L 184.374141 507.735728 
" clip-path="url(#p89ed6b3084)" style="fill: none; stroke: #464646; stroke-width: 1.5; stroke-linecap: round"/>
   </g>
   <g id="line2d_12">
    <path d="M 184.374141 507.735728 
L 184.374141 507.735728 
" clip-path="url(#p89ed6b3084)" style="fill: none; stroke: #464646; stroke-width: 1.5; stroke-linecap: round"/>
   </g>
   <g id="line2d_13">
    <path d="M 167.233922 507.735728 
L 201.514359 507.735728 
" clip-path="url(#p89ed6b3084)" style="fill: none; stroke: #464646; stroke-width: 1.5; stroke-linecap: round"/>
   </g>
   <g id="line2d_14">
    <path d="M 167.233922 507.735728 
L 201.514359 507.735728 
" clip-path="url(#p89ed6b3084)" style="fill: none; stroke: #464646; stroke-width: 1.5; stroke-linecap: round"/>
   </g>
   <g id="line2d_15"/>
   <g id="line2d_16">
    <path d="M 270.075234 527.924033 
L 270.075234 573.82242 
" clip-path="url(#p89ed6b3084)" style="fill: none; stroke: #464646; stroke-width: 1.5; stroke-linecap: round"/>
   </g>
   <g id="line2d_17">
    <path d="M 270.075234 482.687678 
L 270.075234 432.220551 
" clip-path="url(#p89ed6b3084)" style="fill: none; stroke: #464646; stroke-width: 1.5; stroke-linecap: round"/>
   </g>
   <g id="line2d_18">
    <path d="M 252.935016 573.82242 
L 287.215453 573.82242 
" clip-path="url(#p89ed6b3084)" style="fill: none; stroke: #464646; stroke-width: 1.5; stroke-linecap: round"/>
   </g>
   <g id="line2d_19">
    <path d="M 252.935016 432.220551 
L 287.215453 432.220551 
" clip-path="url(#p89ed6b3084)" style="fill: none; stroke: #464646; stroke-width: 1.5; stroke-linecap: round"/>
   </g>
   <g id="line2d_20"/>
   <g id="line2d_21">
    <path d="M 355.776328 452.896286 
L 355.776328 504.185496 
" clip-path="url(#p89ed6b3084)" style="fill: none; stroke: #464646; stroke-width: 1.5; stroke-linecap: round"/>
   </g>
   <g id="line2d_22">
    <path d="M 355.776328 346.680335 
L 355.776328 226.278006 
" clip-path="url(#p89ed6b3084)" style="fill: none; stroke: #464646; stroke-width: 1.5; stroke-linecap: round"/>
   </g>
   <g id="line2d_23">
    <path d="M 338.636109 504.185496 
L 372.916547 504.185496 
" clip-path="url(#p89ed6b3084)" style="fill: none; stroke: #464646; stroke-width: 1.5; stroke-linecap: round"/>
   </g>
   <g id="line2d_24">
    <path d="M 338.636109 226.278006 
L 372.916547 226.278006 
" clip-path="url(#p89ed6b3084)" style="fill: none; stroke: #464646; stroke-width: 1.5; stroke-linecap: round"/>
   </g>
   <g id="line2d_25">
    <g clip-path="url(#p89ed6b3084)">
     <use xlink:href="#mae432f1bbb" x="355.776328" y="98.236859" style="fill: #464646; stroke: #464646; stroke-linejoin: miter"/>
     <use xlink:href="#mae432f1bbb" x="355.776328" y="106.966937" style="fill: #464646; stroke: #464646; stroke-linejoin: miter"/>
    </g>
   </g>
   <g id="line2d_26">
    <path d="M 441.477422 543.73275 
L 441.477422 625.446282 
" clip-path="url(#p89ed6b3084)" style="fill: none; stroke: #464646; stroke-width: 1.5; stroke-linecap: round"/>
   </g>
   <g id="line2d_27">
    <path d="M 441.477422 425.178288 
L 441.477422 319.486141 
" clip-path="url(#p89ed6b3084)" style="fill: none; stroke: #464646; stroke-width: 1.5; stroke-linecap: round"/>
   </g>
   <g id="line2d_28">
    <path d="M 424.337203 625.446282 
L 458.617641 625.446282 
" clip-path="url(#p89ed6b3084)" style="fill: none; stroke: #464646; stroke-width: 1.5; stroke-linecap: round"/>
   </g>
   <g id="line2d_29">
    <path d="M 424.337203 319.486141 
L 458.617641 319.486141 
" clip-path="url(#p89ed6b3084)" style="fill: none; stroke: #464646; stroke-width: 1.5; stroke-linecap: round"/>
   </g>
   <g id="line2d_30"/>
   <g id="line2d_31">
    <path d="M 527.178516 567.798666 
L 527.178516 625.155279 
" clip-path="url(#p89ed6b3084)" style="fill: none; stroke: #464646; stroke-width: 1.5; stroke-linecap: round"/>
   </g>
   <g id="line2d_32">
    <path d="M 527.178516 480.366932 
L 527.178516 386.32944 
" clip-path="url(#p89ed6b3084)" style="fill: none; stroke: #464646; stroke-width: 1.5; stroke-linecap: round"/>
   </g>
   <g id="line2d_33">
    <path d="M 510.038297 625.155279 
L 544.318734 625.155279 
" clip-path="url(#p89ed6b3084)" style="fill: none; stroke: #464646; stroke-width: 1.5; stroke-linecap: round"/>
   </g>
   <g id="line2d_34">
    <path d="M 510.038297 386.32944 
L 544.318734 386.32944 
" clip-path="url(#p89ed6b3084)" style="fill: none; stroke: #464646; stroke-width: 1.5; stroke-linecap: round"/>
   </g>
   <g id="line2d_35">
    <g clip-path="url(#p89ed6b3084)">
     <use xlink:href="#mae432f1bbb" x="527.178516" y="343.057352" style="fill: #464646; stroke: #464646; stroke-linejoin: miter"/>
    </g>
   </g>
   <g id="line2d_36">
    <path d="M 612.879609 490.479273 
L 612.879609 554.558047 
" clip-path="url(#p89ed6b3084)" style="fill: none; stroke: #464646; stroke-width: 1.5; stroke-linecap: round"/>
   </g>
   <g id="line2d_37">
    <path d="M 612.879609 403.818697 
L 612.879609 280.870095 
" clip-path="url(#p89ed6b3084)" style="fill: none; stroke: #464646; stroke-width: 1.5; stroke-linecap: round"/>
   </g>
   <g id="line2d_38">
    <path d="M 595.739391 554.558047 
L 630.019828 554.558047 
" clip-path="url(#p89ed6b3084)" style="fill: none; stroke: #464646; stroke-width: 1.5; stroke-linecap: round"/>
   </g>
   <g id="line2d_39">
    <path d="M 595.739391 280.870095 
L 630.019828 280.870095 
" clip-path="url(#p89ed6b3084)" style="fill: none; stroke: #464646; stroke-width: 1.5; stroke-linecap: round"/>
   </g>
   <g id="line2d_40">
    <g clip-path="url(#p89ed6b3084)">
     <use xlink:href="#mae432f1bbb" x="612.879609" y="216.209316" style="fill: #464646; stroke: #464646; stroke-linejoin: miter"/>
     <use xlink:href="#mae432f1bbb" x="612.879609" y="138.56982" style="fill: #464646; stroke: #464646; stroke-linejoin: miter"/>
    </g>
   </g>
   <g id="line2d_41">
    <path d="M 698.580703 576.936147 
L 698.580703 635.31127 
" clip-path="url(#p89ed6b3084)" style="fill: none; stroke: #464646; stroke-width: 1.5; stroke-linecap: round"/>
   </g>
   <g id="line2d_42">
    <path d="M 698.580703 534.289715 
L 698.580703 514.166885 
" clip-path="url(#p89ed6b3084)" style="fill: none; stroke: #464646; stroke-width: 1.5; stroke-linecap: round"/>
   </g>
   <g id="line2d_43">
    <path d="M 681.440484 635.31127 
L 715.720922 635.31127 
" clip-path="url(#p89ed6b3084)" style="fill: none; stroke: #464646; stroke-width: 1.5; stroke-linecap: round"/>
   </g>
   <g id="line2d_44">
    <path d="M 681.440484 514.166885 
L 715.720922 514.166885 
" clip-path="url(#p89ed6b3084)" style="fill: none; stroke: #464646; stroke-width: 1.5; stroke-linecap: round"/>
   </g>
   <g id="line2d_45">
    <g clip-path="url(#p89ed6b3084)">
     <use xlink:href="#mae432f1bbb" x="698.580703" y="642.178932" style="fill: #464646; stroke: #464646; stroke-linejoin: miter"/>
     <use xlink:href="#mae432f1bbb" x="698.580703" y="342.679049" style="fill: #464646; stroke: #464646; stroke-linejoin: miter"/>
     <use xlink:href="#mae432f1bbb" x="698.580703" y="469.730787" style="fill: #464646; stroke: #464646; stroke-linejoin: miter"/>
     <use xlink:href="#mae432f1bbb" x="698.580703" y="445.664871" style="fill: #464646; stroke: #464646; stroke-linejoin: miter"/>
    </g>
   </g>
   <g id="line2d_46">
    <path d="M 784.281797 510.514802 
L 784.281797 570.068486 
" clip-path="url(#p89ed6b3084)" style="fill: none; stroke: #464646; stroke-width: 1.5; stroke-linecap: round"/>
   </g>
   <g id="line2d_47">
    <path d="M 784.281797 427.040705 
L 784.281797 324.549586 
" clip-path="url(#p89ed6b3084)" style="fill: none; stroke: #464646; stroke-width: 1.5; stroke-linecap: round"/>
   </g>
   <g id="line2d_48">
    <path d="M 767.141578 570.068486 
L 801.422016 570.068486 
" clip-path="url(#p89ed6b3084)" style="fill: none; stroke: #464646; stroke-width: 1.5; stroke-linecap: round"/>
   </g>
   <g id="line2d_49">
    <path d="M 767.141578 324.549586 
L 801.422016 324.549586 
" clip-path="url(#p89ed6b3084)" style="fill: none; stroke: #464646; stroke-width: 1.5; stroke-linecap: round"/>
   </g>
   <g id="line2d_50"/>
   <g id="line2d_51">
    <path d="M 869.982891 496.910431 
L 869.982891 553.655939 
" clip-path="url(#p89ed6b3084)" style="fill: none; stroke: #464646; stroke-width: 1.5; stroke-linecap: round"/>
   </g>
   <g id="line2d_52">
    <path d="M 869.982891 342.679049 
L 869.982891 138.977224 
" clip-path="url(#p89ed6b3084)" style="fill: none; stroke: #464646; stroke-width: 1.5; stroke-linecap: round"/>
   </g>
   <g id="line2d_53">
    <path d="M 852.842672 553.655939 
L 887.123109 553.655939 
" clip-path="url(#p89ed6b3084)" style="fill: none; stroke: #464646; stroke-width: 1.5; stroke-linecap: round"/>
   </g>
   <g id="line2d_54">
    <path d="M 852.842672 138.977224 
L 887.123109 138.977224 
" clip-path="url(#p89ed6b3084)" style="fill: none; stroke: #464646; stroke-width: 1.5; stroke-linecap: round"/>
   </g>
   <g id="line2d_55"/>
   <g id="line2d_56">
    <path d="M 955.683984 415.429701 
L 955.683984 459.080092 
" clip-path="url(#p89ed6b3084)" style="fill: none; stroke: #464646; stroke-width: 1.5; stroke-linecap: round"/>
   </g>
   <g id="line2d_57">
    <path d="M 955.683984 309.213749 
L 955.683984 153.527354 
" clip-path="url(#p89ed6b3084)" style="fill: none; stroke: #464646; stroke-width: 1.5; stroke-linecap: round"/>
   </g>
   <g id="line2d_58">
    <path d="M 938.543766 459.080092 
L 972.824203 459.080092 
" clip-path="url(#p89ed6b3084)" style="fill: none; stroke: #464646; stroke-width: 1.5; stroke-linecap: round"/>
   </g>
   <g id="line2d_59">
    <path d="M 938.543766 153.527354 
L 972.824203 153.527354 
" clip-path="url(#p89ed6b3084)" style="fill: none; stroke: #464646; stroke-width: 1.5; stroke-linecap: round"/>
   </g>
   <g id="line2d_60">
    <g clip-path="url(#p89ed6b3084)">
     <use xlink:href="#mae432f1bbb" x="955.683984" y="66.226572" style="fill: #464646; stroke: #464646; stroke-linejoin: miter"/>
     <use xlink:href="#mae432f1bbb" x="955.683984" y="51.676442" style="fill: #464646; stroke: #464646; stroke-linejoin: miter"/>
    </g>
   </g>
   <g id="line2d_61">
    <path d="M 1041.385078 464.172637 
L 1041.385078 540.560822 
" clip-path="url(#p89ed6b3084)" style="fill: none; stroke: #464646; stroke-width: 1.5; stroke-linecap: round"/>
   </g>
   <g id="line2d_62">
    <path d="M 1041.385078 412.519675 
L 1041.385078 336.858997 
" clip-path="url(#p89ed6b3084)" style="fill: none; stroke: #464646; stroke-width: 1.5; stroke-linecap: round"/>
   </g>
   <g id="line2d_63">
    <path d="M 1024.244859 540.560822 
L 1058.525297 540.560822 
" clip-path="url(#p89ed6b3084)" style="fill: none; stroke: #464646; stroke-width: 1.5; stroke-linecap: round"/>
   </g>
   <g id="line2d_64">
    <path d="M 1024.244859 336.858997 
L 1058.525297 336.858997 
" clip-path="url(#p89ed6b3084)" style="fill: none; stroke: #464646; stroke-width: 1.5; stroke-linecap: round"/>
   </g>
   <g id="line2d_65">
    <g clip-path="url(#p89ed6b3084)">
     <use xlink:href="#mae432f1bbb" x="1041.385078" y="322.308866" style="fill: #464646; stroke: #464646; stroke-linejoin: miter"/>
     <use xlink:href="#mae432f1bbb" x="1041.385078" y="319.39884" style="fill: #464646; stroke: #464646; stroke-linejoin: miter"/>
     <use xlink:href="#mae432f1bbb" x="1041.385078" y="328.128918" style="fill: #464646; stroke: #464646; stroke-linejoin: miter"/>
    </g>
   </g>
   <g id="line2d_66">
    <path d="M 1127.086172 545.216863 
L 1127.086172 560.814603 
" clip-path="url(#p89ed6b3084)" style="fill: none; stroke: #464646; stroke-width: 1.5; stroke-linecap: round"/>
   </g>
   <g id="line2d_67">
    <path d="M 1127.086172 502.730483 
L 1127.086172 492.574492 
" clip-path="url(#p89ed6b3084)" style="fill: none; stroke: #464646; stroke-width: 1.5; stroke-linecap: round"/>
   </g>
   <g id="line2d_68">
    <path d="M 1109.945953 560.814603 
L 1144.226391 560.814603 
" clip-path="url(#p89ed6b3084)" style="fill: none; stroke: #464646; stroke-width: 1.5; stroke-linecap: round"/>
   </g>
   <g id="line2d_69">
    <path d="M 1109.945953 492.574492 
L 1144.226391 492.574492 
" clip-path="url(#p89ed6b3084)" style="fill: none; stroke: #464646; stroke-width: 1.5; stroke-linecap: round"/>
   </g>
   <g id="line2d_70">
    <g clip-path="url(#p89ed6b3084)">
     <use xlink:href="#mae432f1bbb" x="1127.086172" y="313.375086" style="fill: #464646; stroke: #464646; stroke-linejoin: miter"/>
    </g>
   </g>
   <g id="line2d_71">
    <path d="M 1212.787266 440.164922 
L 1212.787266 514.370587 
" clip-path="url(#p89ed6b3084)" style="fill: none; stroke: #464646; stroke-width: 1.5; stroke-linecap: round"/>
   </g>
   <g id="line2d_72">
    <path d="M 1212.787266 351.409127 
L 1212.787266 226.278006 
" clip-path="url(#p89ed6b3084)" style="fill: none; stroke: #464646; stroke-width: 1.5; stroke-linecap: round"/>
   </g>
   <g id="line2d_73">
    <path d="M 1195.647047 514.370587 
L 1229.927484 514.370587 
" clip-path="url(#p89ed6b3084)" style="fill: none; stroke: #464646; stroke-width: 1.5; stroke-linecap: round"/>
   </g>
   <g id="line2d_74">
    <path d="M 1195.647047 226.278006 
L 1229.927484 226.278006 
" clip-path="url(#p89ed6b3084)" style="fill: none; stroke: #464646; stroke-width: 1.5; stroke-linecap: round"/>
   </g>
   <g id="line2d_75">
    <g clip-path="url(#p89ed6b3084)">
     <use xlink:href="#mae432f1bbb" x="1212.787266" y="48.766416" style="fill: #464646; stroke: #464646; stroke-linejoin: miter"/>
     <use xlink:href="#mae432f1bbb" x="1212.787266" y="98.236859" style="fill: #464646; stroke: #464646; stroke-linejoin: miter"/>
     <use xlink:href="#mae432f1bbb" x="1212.787266" y="202.997797" style="fill: #464646; stroke: #464646; stroke-linejoin: miter"/>
    </g>
   </g>
   <g id="line2d_76">
    <path d="M 1298.488359 438.709909 
L 1298.488359 491.090378 
" clip-path="url(#p89ed6b3084)" style="fill: none; stroke: #464646; stroke-width: 1.5; stroke-linecap: round"/>
   </g>
   <g id="line2d_77">
    <path d="M 1298.488359 320.126347 
L 1298.488359 211.727876 
" clip-path="url(#p89ed6b3084)" style="fill: none; stroke: #464646; stroke-width: 1.5; stroke-linecap: round"/>
   </g>
   <g id="line2d_78">
    <path d="M 1281.348141 491.090378 
L 1315.628578 491.090378 
" clip-path="url(#p89ed6b3084)" style="fill: none; stroke: #464646; stroke-width: 1.5; stroke-linecap: round"/>
   </g>
   <g id="line2d_79">
    <path d="M 1281.348141 211.727876 
L 1315.628578 211.727876 
" clip-path="url(#p89ed6b3084)" style="fill: none; stroke: #464646; stroke-width: 1.5; stroke-linecap: round"/>
   </g>
   <g id="line2d_80">
    <g clip-path="url(#p89ed6b3084)">
     <use xlink:href="#mae432f1bbb" x="1298.488359" y="95.326833" style="fill: #464646; stroke: #464646; stroke-linejoin: miter"/>
     <use xlink:href="#mae432f1bbb" x="1298.488359" y="42.946364" style="fill: #464646; stroke: #464646; stroke-linejoin: miter"/>
    </g>
   </g>
   <g id="line2d_81">
    <path d="M 1384.189453 520.568942 
L 1384.189453 565.528845 
" clip-path="url(#p89ed6b3084)" style="fill: none; stroke: #464646; stroke-width: 1.5; stroke-linecap: round"/>
   </g>
   <g id="line2d_82">
    <path d="M 1384.189453 449.389705 
L 1384.189453 350.710721 
" clip-path="url(#p89ed6b3084)" style="fill: none; stroke: #464646; stroke-width: 1.5; stroke-linecap: round"/>
   </g>
   <g id="line2d_83">
    <path d="M 1367.049234 565.528845 
L 1401.329672 565.528845 
" clip-path="url(#p89ed6b3084)" style="fill: none; stroke: #464646; stroke-width: 1.5; stroke-linecap: round"/>
   </g>
   <g id="line2d_84">
    <path d="M 1367.049234 350.710721 
L 1401.329672 350.710721 
" clip-path="url(#p89ed6b3084)" style="fill: none; stroke: #464646; stroke-width: 1.5; stroke-linecap: round"/>
   </g>
   <g id="line2d_85"/>
   <g id="line2d_86">
    <path d="M 64.392609 512.44997 
L 132.953484 512.44997 
" clip-path="url(#p89ed6b3084)" style="fill: none; stroke: #464646; stroke-width: 1.5; stroke-linecap: round"/>
   </g>
   <g id="line2d_87">
    <path d="M 150.093703 507.735728 
L 218.654578 507.735728 
" clip-path="url(#p89ed6b3084)" style="fill: none; stroke: #464646; stroke-width: 1.5; stroke-linecap: round"/>
   </g>
   <g id="line2d_88">
    <path d="M 235.794797 502.759583 
L 304.355672 502.759583 
" clip-path="url(#p89ed6b3084)" style="fill: none; stroke: #464646; stroke-width: 1.5; stroke-linecap: round"/>
   </g>
   <g id="line2d_89">
    <path d="M 321.495891 411.064661 
L 390.056766 411.064661 
" clip-path="url(#p89ed6b3084)" style="fill: none; stroke: #464646; stroke-width: 1.5; stroke-linecap: round"/>
   </g>
   <g id="line2d_90">
    <path d="M 407.196984 492.778194 
L 475.757859 492.778194 
" clip-path="url(#p89ed6b3084)" style="fill: none; stroke: #464646; stroke-width: 1.5; stroke-linecap: round"/>
   </g>
   <g id="line2d_91">
    <path d="M 492.898078 530.608532 
L 561.458953 530.608532 
" clip-path="url(#p89ed6b3084)" style="fill: none; stroke: #464646; stroke-width: 1.5; stroke-linecap: round"/>
   </g>
   <g id="line2d_92">
    <path d="M 578.599172 459.545696 
L 647.160047 459.545696 
" clip-path="url(#p89ed6b3084)" style="fill: none; stroke: #464646; stroke-width: 1.5; stroke-linecap: round"/>
   </g>
   <g id="line2d_93">
    <path d="M 664.300266 565.674347 
L 732.861141 565.674347 
" clip-path="url(#p89ed6b3084)" style="fill: none; stroke: #464646; stroke-width: 1.5; stroke-linecap: round"/>
   </g>
   <g id="line2d_94">
    <path d="M 750.001359 495.630019 
L 818.562234 495.630019 
" clip-path="url(#p89ed6b3084)" style="fill: none; stroke: #464646; stroke-width: 1.5; stroke-linecap: round"/>
   </g>
   <g id="line2d_95">
    <path d="M 835.702453 381.236894 
L 904.263328 381.236894 
" clip-path="url(#p89ed6b3084)" style="fill: none; stroke: #464646; stroke-width: 1.5; stroke-linecap: round"/>
   </g>
   <g id="line2d_96">
    <path d="M 921.403547 376.871855 
L 989.964422 376.871855 
" clip-path="url(#p89ed6b3084)" style="fill: none; stroke: #464646; stroke-width: 1.5; stroke-linecap: round"/>
   </g>
   <g id="line2d_97">
    <path d="M 1007.104641 450.350013 
L 1075.665516 450.350013 
" clip-path="url(#p89ed6b3084)" style="fill: none; stroke: #464646; stroke-width: 1.5; stroke-linecap: round"/>
   </g>
   <g id="line2d_98">
    <path d="M 1092.805734 508.02673 
L 1161.366609 508.02673 
" clip-path="url(#p89ed6b3084)" style="fill: none; stroke: #464646; stroke-width: 1.5; stroke-linecap: round"/>
   </g>
   <g id="line2d_99">
    <path d="M 1178.506828 411.064661 
L 1247.067703 411.064661 
" clip-path="url(#p89ed6b3084)" style="fill: none; stroke: #464646; stroke-width: 1.5; stroke-linecap: round"/>
   </g>
   <g id="line2d_100">
    <path d="M 1264.207922 415.429701 
L 1332.768797 415.429701 
" clip-path="url(#p89ed6b3084)" style="fill: none; stroke: #464646; stroke-width: 1.5; stroke-linecap: round"/>
   </g>
   <g id="line2d_101">
    <path d="M 1349.909016 486.230635 
L 1418.469891 486.230635 
" clip-path="url(#p89ed6b3084)" style="fill: none; stroke: #464646; stroke-width: 1.5; stroke-linecap: round"/>
   </g>
   <g id="patch_19">
    <path d="M 55.8225 672.66 
L 55.8225 12.96 
" style="fill: none; stroke: #ffffff; stroke-width: 1.25; stroke-linejoin: miter; stroke-linecap: square"/>
   </g>
   <g id="patch_20">
    <path d="M 55.8225 672.66 
L 1427.04 672.66 
" style="fill: none; stroke: #ffffff; stroke-width: 1.25; stroke-linejoin: miter; stroke-linecap: square"/>
   </g>
  </g>
 </g>
 <defs>
  <clipPath id="p89ed6b3084">
   <rect x="55.8225" y="12.96" width="1371.2175" height="659.7"/>
  </clipPath>
 </defs>
</svg>
