<?xml version="1.0" encoding="utf-8" standalone="no"?>
<!DOCTYPE svg PUBLIC "-//W3C//DTD SVG 1.1//EN"
  "http://www.w3.org/Graphics/SVG/1.1/DTD/svg11.dtd">
<svg xmlns:xlink="http://www.w3.org/1999/xlink" width="1440pt" height="720pt" viewBox="0 0 1440 720" xmlns="http://www.w3.org/2000/svg" version="1.1">
 <metadata>
  <rdf:RDF xmlns:dc="http://purl.org/dc/elements/1.1/" xmlns:cc="http://creativecommons.org/ns#" xmlns:rdf="http://www.w3.org/1999/02/22-rdf-syntax-ns#">
   <cc:Work>
    <dc:type rdf:resource="http://purl.org/dc/dcmitype/StillImage"/>
    <dc:date>2023-01-11T18:48:12.542902</dc:date>
    <dc:format>image/svg+xml</dc:format>
    <dc:creator>
     <cc:Agent>
      <dc:title>Matplotlib v3.6.2, https://matplotlib.org/</dc:title>
     </cc:Agent>
    </dc:creator>
   </cc:Work>
  </rdf:RDF>
 </metadata>
 <defs>
  <style type="text/css">*{stroke-linejoin: round; stroke-linecap: butt}</style>
 </defs>
 <g id="figure_1">
  <g id="patch_1">
   <path d="M 0 720 
L 1440 720 
L 1440 0 
L 0 0 
z
" style="fill: #ffffff"/>
  </g>
  <g id="axes_1">
   <g id="patch_2">
    <path d="M 55.8225 672.66 
L 1427.04 672.66 
L 1427.04 12.96 
L 55.8225 12.96 
z
" style="fill: #eaeaf2"/>
   </g>
   <g id="matplotlib.axis_1">
    <g id="xtick_1">
     <g id="text_1">
      <!-- AT -->
      <g style="fill: #262626" transform="translate(81.848192 690.033594) scale(0.11 -0.11)">
       <defs>
        <path id="ArialMT-41" d="M -9 0 
L 1750 4581 
L 2403 4581 
L 4278 0 
L 3588 0 
L 3053 1388 
L 1138 1388 
L 634 0 
L -9 0 
z
M 1313 1881 
L 2866 1881 
L 2388 3150 
Q 2169 3728 2063 4100 
Q 1975 3659 1816 3225 
L 1313 1881 
z
" transform="scale(0.015625)"/>
        <path id="ArialMT-54" d="M 1659 0 
L 1659 4041 
L 150 4041 
L 150 4581 
L 3781 4581 
L 3781 4041 
L 2266 4041 
L 2266 0 
L 1659 0 
z
" transform="scale(0.015625)"/>
       </defs>
       <use xlink:href="#ArialMT-41"/>
       <use xlink:href="#ArialMT-54" x="59.324219"/>
      </g>
     </g>
    </g>
    <g id="xtick_2">
     <g id="text_2">
      <!-- BE -->
      <g style="fill: #262626" transform="translate(146.429263 690.033594) scale(0.11 -0.11)">
       <defs>
        <path id="ArialMT-42" d="M 469 0 
L 469 4581 
L 2188 4581 
Q 2713 4581 3030 4442 
Q 3347 4303 3526 4014 
Q 3706 3725 3706 3409 
Q 3706 3116 3547 2856 
Q 3388 2597 3066 2438 
Q 3481 2316 3704 2022 
Q 3928 1728 3928 1328 
Q 3928 1006 3792 729 
Q 3656 453 3456 303 
Q 3256 153 2954 76 
Q 2653 0 2216 0 
L 469 0 
z
M 1075 2656 
L 2066 2656 
Q 2469 2656 2644 2709 
Q 2875 2778 2992 2937 
Q 3109 3097 3109 3338 
Q 3109 3566 3000 3739 
Q 2891 3913 2687 3977 
Q 2484 4041 1991 4041 
L 1075 4041 
L 1075 2656 
z
M 1075 541 
L 2216 541 
Q 2509 541 2628 563 
Q 2838 600 2978 687 
Q 3119 775 3209 942 
Q 3300 1109 3300 1328 
Q 3300 1584 3169 1773 
Q 3038 1963 2805 2039 
Q 2572 2116 2134 2116 
L 1075 2116 
L 1075 541 
z
" transform="scale(0.015625)"/>
        <path id="ArialMT-45" d="M 506 0 
L 506 4581 
L 3819 4581 
L 3819 4041 
L 1113 4041 
L 1113 2638 
L 3647 2638 
L 3647 2100 
L 1113 2100 
L 1113 541 
L 3925 541 
L 3925 0 
L 506 0 
z
" transform="scale(0.015625)"/>
       </defs>
       <use xlink:href="#ArialMT-42"/>
       <use xlink:href="#ArialMT-45" x="66.699219"/>
      </g>
     </g>
    </g>
    <g id="xtick_3">
     <g id="text_3">
      <!-- BG -->
      <g style="fill: #262626" transform="translate(211.116038 690.033594) scale(0.11 -0.11)">
       <defs>
        <path id="ArialMT-47" d="M 2638 1797 
L 2638 2334 
L 4578 2338 
L 4578 638 
Q 4131 281 3656 101 
Q 3181 -78 2681 -78 
Q 2006 -78 1454 211 
Q 903 500 622 1047 
Q 341 1594 341 2269 
Q 341 2938 620 3517 
Q 900 4097 1425 4378 
Q 1950 4659 2634 4659 
Q 3131 4659 3532 4498 
Q 3934 4338 4162 4050 
Q 4391 3763 4509 3300 
L 3963 3150 
Q 3859 3500 3706 3700 
Q 3553 3900 3268 4020 
Q 2984 4141 2638 4141 
Q 2222 4141 1919 4014 
Q 1616 3888 1430 3681 
Q 1244 3475 1141 3228 
Q 966 2803 966 2306 
Q 966 1694 1177 1281 
Q 1388 869 1791 669 
Q 2194 469 2647 469 
Q 3041 469 3416 620 
Q 3791 772 3984 944 
L 3984 1797 
L 2638 1797 
z
" transform="scale(0.015625)"/>
       </defs>
       <use xlink:href="#ArialMT-42"/>
       <use xlink:href="#ArialMT-47" x="66.699219"/>
      </g>
     </g>
    </g>
    <g id="xtick_4">
     <g id="text_4">
      <!-- CY -->
      <g style="fill: #262626" transform="translate(276.718047 690.033594) scale(0.11 -0.11)">
       <defs>
        <path id="ArialMT-43" d="M 3763 1606 
L 4369 1453 
Q 4178 706 3683 314 
Q 3188 -78 2472 -78 
Q 1731 -78 1267 223 
Q 803 525 561 1097 
Q 319 1669 319 2325 
Q 319 3041 592 3573 
Q 866 4106 1370 4382 
Q 1875 4659 2481 4659 
Q 3169 4659 3637 4309 
Q 4106 3959 4291 3325 
L 3694 3184 
Q 3534 3684 3231 3912 
Q 2928 4141 2469 4141 
Q 1941 4141 1586 3887 
Q 1231 3634 1087 3207 
Q 944 2781 944 2328 
Q 944 1744 1114 1308 
Q 1284 872 1643 656 
Q 2003 441 2422 441 
Q 2931 441 3284 734 
Q 3638 1028 3763 1606 
z
" transform="scale(0.015625)"/>
        <path id="ArialMT-59" d="M 1784 0 
L 1784 1941 
L 19 4581 
L 756 4581 
L 1659 3200 
Q 1909 2813 2125 2425 
Q 2331 2784 2625 3234 
L 3513 4581 
L 4219 4581 
L 2391 1941 
L 2391 0 
L 1784 0 
z
" transform="scale(0.015625)"/>
       </defs>
       <use xlink:href="#ArialMT-43"/>
       <use xlink:href="#ArialMT-59" x="72.216797"/>
      </g>
     </g>
    </g>
    <g id="xtick_5">
     <g id="text_5">
      <!-- CZ -->
      <g style="fill: #262626" transform="translate(342.323493 690.033594) scale(0.11 -0.11)">
       <defs>
        <path id="ArialMT-5a" d="M 128 0 
L 128 563 
L 2475 3497 
Q 2725 3809 2950 4041 
L 394 4041 
L 394 4581 
L 3675 4581 
L 3675 4041 
L 1103 863 
L 825 541 
L 3750 541 
L 3750 0 
L 128 0 
z
" transform="scale(0.015625)"/>
       </defs>
       <use xlink:href="#ArialMT-43"/>
       <use xlink:href="#ArialMT-5a" x="72.216797"/>
      </g>
     </g>
    </g>
    <g id="xtick_6">
     <g id="text_6">
      <!-- DE -->
      <g style="fill: #262626" transform="translate(407.31019 690.033594) scale(0.11 -0.11)">
       <defs>
        <path id="ArialMT-44" d="M 494 0 
L 494 4581 
L 2072 4581 
Q 2606 4581 2888 4516 
Q 3281 4425 3559 4188 
Q 3922 3881 4101 3404 
Q 4281 2928 4281 2316 
Q 4281 1794 4159 1391 
Q 4038 988 3847 723 
Q 3656 459 3429 307 
Q 3203 156 2883 78 
Q 2563 0 2147 0 
L 494 0 
z
M 1100 541 
L 2078 541 
Q 2531 541 2789 625 
Q 3047 709 3200 863 
Q 3416 1078 3536 1442 
Q 3656 1806 3656 2325 
Q 3656 3044 3420 3430 
Q 3184 3816 2847 3947 
Q 2603 4041 2063 4041 
L 1100 4041 
L 1100 541 
z
" transform="scale(0.015625)"/>
       </defs>
       <use xlink:href="#ArialMT-44"/>
       <use xlink:href="#ArialMT-45" x="72.216797"/>
      </g>
     </g>
    </g>
    <g id="xtick_7">
     <g id="text_7">
      <!-- EL -->
      <g style="fill: #262626" transform="translate(473.519777 690.033594) scale(0.11 -0.11)">
       <defs>
        <path id="ArialMT-4c" d="M 469 0 
L 469 4581 
L 1075 4581 
L 1075 541 
L 3331 541 
L 3331 0 
L 469 0 
z
" transform="scale(0.015625)"/>
       </defs>
       <use xlink:href="#ArialMT-45"/>
       <use xlink:href="#ArialMT-4c" x="66.699219"/>
      </g>
     </g>
    </g>
    <g id="xtick_8">
     <g id="text_8">
      <!-- ES -->
      <g style="fill: #262626" transform="translate(538.205692 690.033594) scale(0.11 -0.11)">
       <defs>
        <path id="ArialMT-53" d="M 288 1472 
L 859 1522 
Q 900 1178 1048 958 
Q 1197 738 1509 602 
Q 1822 466 2213 466 
Q 2559 466 2825 569 
Q 3091 672 3220 851 
Q 3350 1031 3350 1244 
Q 3350 1459 3225 1620 
Q 3100 1781 2813 1891 
Q 2628 1963 1997 2114 
Q 1366 2266 1113 2400 
Q 784 2572 623 2826 
Q 463 3081 463 3397 
Q 463 3744 659 4045 
Q 856 4347 1234 4503 
Q 1613 4659 2075 4659 
Q 2584 4659 2973 4495 
Q 3363 4331 3572 4012 
Q 3781 3694 3797 3291 
L 3216 3247 
Q 3169 3681 2898 3903 
Q 2628 4125 2100 4125 
Q 1550 4125 1298 3923 
Q 1047 3722 1047 3438 
Q 1047 3191 1225 3031 
Q 1400 2872 2139 2705 
Q 2878 2538 3153 2413 
Q 3553 2228 3743 1945 
Q 3934 1663 3934 1294 
Q 3934 928 3725 604 
Q 3516 281 3123 101 
Q 2731 -78 2241 -78 
Q 1619 -78 1198 103 
Q 778 284 539 648 
Q 300 1013 288 1472 
z
" transform="scale(0.015625)"/>
       </defs>
       <use xlink:href="#ArialMT-45"/>
       <use xlink:href="#ArialMT-53" x="66.699219"/>
      </g>
     </g>
    </g>
    <g id="xtick_9">
     <g id="text_9">
      <!-- FI -->
      <g style="fill: #262626" transform="translate(605.951842 690.033594) scale(0.11 -0.11)">
       <defs>
        <path id="ArialMT-46" d="M 525 0 
L 525 4581 
L 3616 4581 
L 3616 4041 
L 1131 4041 
L 1131 2622 
L 3281 2622 
L 3281 2081 
L 1131 2081 
L 1131 0 
L 525 0 
z
" transform="scale(0.015625)"/>
        <path id="ArialMT-49" d="M 597 0 
L 597 4581 
L 1203 4581 
L 1203 0 
L 597 0 
z
" transform="scale(0.015625)"/>
       </defs>
       <use xlink:href="#ArialMT-46"/>
       <use xlink:href="#ArialMT-49" x="61.083984"/>
      </g>
     </g>
    </g>
    <g id="xtick_10">
     <g id="text_10">
      <!-- FR -->
      <g style="fill: #262626" transform="translate(668.80385 690.033594) scale(0.11 -0.11)">
       <defs>
        <path id="ArialMT-52" d="M 503 0 
L 503 4581 
L 2534 4581 
Q 3147 4581 3465 4457 
Q 3784 4334 3975 4021 
Q 4166 3709 4166 3331 
Q 4166 2844 3850 2509 
Q 3534 2175 2875 2084 
Q 3116 1969 3241 1856 
Q 3506 1613 3744 1247 
L 4541 0 
L 3778 0 
L 3172 953 
Q 2906 1366 2734 1584 
Q 2563 1803 2427 1890 
Q 2291 1978 2150 2013 
Q 2047 2034 1813 2034 
L 1109 2034 
L 1109 0 
L 503 0 
z
M 1109 2559 
L 2413 2559 
Q 2828 2559 3062 2645 
Q 3297 2731 3419 2920 
Q 3541 3109 3541 3331 
Q 3541 3656 3305 3865 
Q 3069 4075 2559 4075 
L 1109 4075 
L 1109 2559 
z
" transform="scale(0.015625)"/>
       </defs>
       <use xlink:href="#ArialMT-46"/>
       <use xlink:href="#ArialMT-52" x="61.083984"/>
      </g>
     </g>
    </g>
    <g id="xtick_11">
     <g id="text_11">
      <!-- HU -->
      <g style="fill: #262626" transform="translate(733.487187 690.033594) scale(0.11 -0.11)">
       <defs>
        <path id="ArialMT-48" d="M 513 0 
L 513 4581 
L 1119 4581 
L 1119 2700 
L 3500 2700 
L 3500 4581 
L 4106 4581 
L 4106 0 
L 3500 0 
L 3500 2159 
L 1119 2159 
L 1119 0 
L 513 0 
z
" transform="scale(0.015625)"/>
        <path id="ArialMT-55" d="M 3500 4581 
L 4106 4581 
L 4106 1934 
Q 4106 1244 3950 837 
Q 3794 431 3386 176 
Q 2978 -78 2316 -78 
Q 1672 -78 1262 144 
Q 853 366 678 786 
Q 503 1206 503 1934 
L 503 4581 
L 1109 4581 
L 1109 1938 
Q 1109 1341 1220 1058 
Q 1331 775 1601 622 
Q 1872 469 2263 469 
Q 2931 469 3215 772 
Q 3500 1075 3500 1938 
L 3500 4581 
z
" transform="scale(0.015625)"/>
       </defs>
       <use xlink:href="#ArialMT-48"/>
       <use xlink:href="#ArialMT-55" x="72.216797"/>
      </g>
     </g>
    </g>
    <g id="xtick_12">
     <g id="text_12">
      <!-- IE -->
      <g style="fill: #262626" transform="translate(801.530681 690.033594) scale(0.11 -0.11)">
       <use xlink:href="#ArialMT-49"/>
       <use xlink:href="#ArialMT-45" x="27.783203"/>
      </g>
     </g>
    </g>
    <g id="xtick_13">
     <g id="text_13">
      <!-- IT -->
      <g style="fill: #262626" transform="translate(867.136127 690.033594) scale(0.11 -0.11)">
       <use xlink:href="#ArialMT-49"/>
       <use xlink:href="#ArialMT-54" x="27.783203"/>
      </g>
     </g>
    </g>
    <g id="xtick_14">
     <g id="text_14">
      <!-- LT -->
      <g style="fill: #262626" transform="translate(931.307277 690.033594) scale(0.11 -0.11)">
       <use xlink:href="#ArialMT-4c"/>
       <use xlink:href="#ArialMT-54" x="48.240234"/>
      </g>
     </g>
    </g>
    <g id="xtick_15">
     <g id="text_15">
      <!-- LV -->
      <g style="fill: #262626" transform="translate(996.293973 690.033594) scale(0.11 -0.11)">
       <defs>
        <path id="ArialMT-56" d="M 1803 0 
L 28 4581 
L 684 4581 
L 1875 1253 
Q 2019 853 2116 503 
Q 2222 878 2363 1253 
L 3600 4581 
L 4219 4581 
L 2425 0 
L 1803 0 
z
" transform="scale(0.015625)"/>
       </defs>
       <use xlink:href="#ArialMT-4c"/>
       <use xlink:href="#ArialMT-56" x="48.240234"/>
      </g>
     </g>
    </g>
    <g id="xtick_16">
     <g id="text_16">
      <!-- NL -->
      <g style="fill: #262626" transform="translate(1060.88106 690.033594) scale(0.11 -0.11)">
       <defs>
        <path id="ArialMT-4e" d="M 488 0 
L 488 4581 
L 1109 4581 
L 3516 984 
L 3516 4581 
L 4097 4581 
L 4097 0 
L 3475 0 
L 1069 3600 
L 1069 0 
L 488 0 
z
" transform="scale(0.015625)"/>
       </defs>
       <use xlink:href="#ArialMT-4e"/>
       <use xlink:href="#ArialMT-4c" x="72.216797"/>
      </g>
     </g>
    </g>
    <g id="xtick_17">
     <g id="text_17">
      <!-- PL -->
      <g style="fill: #262626" transform="translate(1126.480491 690.033594) scale(0.11 -0.11)">
       <defs>
        <path id="ArialMT-50" d="M 494 0 
L 494 4581 
L 2222 4581 
Q 2678 4581 2919 4538 
Q 3256 4481 3484 4323 
Q 3713 4166 3852 3881 
Q 3991 3597 3991 3256 
Q 3991 2672 3619 2267 
Q 3247 1863 2275 1863 
L 1100 1863 
L 1100 0 
L 494 0 
z
M 1100 2403 
L 2284 2403 
Q 2872 2403 3119 2622 
Q 3366 2841 3366 3238 
Q 3366 3525 3220 3729 
Q 3075 3934 2838 4000 
Q 2684 4041 2272 4041 
L 1100 4041 
L 1100 2403 
z
" transform="scale(0.015625)"/>
       </defs>
       <use xlink:href="#ArialMT-50"/>
       <use xlink:href="#ArialMT-4c" x="66.699219"/>
      </g>
     </g>
    </g>
    <g id="xtick_18">
     <g id="text_18">
      <!-- PT -->
      <g style="fill: #262626" transform="translate(1191.475781 690.033594) scale(0.11 -0.11)">
       <use xlink:href="#ArialMT-50"/>
       <use xlink:href="#ArialMT-54" x="66.699219"/>
      </g>
     </g>
    </g>
    <g id="xtick_19">
     <g id="text_19">
      <!-- RO -->
      <g style="fill: #262626" transform="translate(1255.549821 690.033594) scale(0.11 -0.11)">
       <defs>
        <path id="ArialMT-4f" d="M 309 2231 
Q 309 3372 921 4017 
Q 1534 4663 2503 4663 
Q 3138 4663 3647 4359 
Q 4156 4056 4423 3514 
Q 4691 2972 4691 2284 
Q 4691 1588 4409 1038 
Q 4128 488 3612 205 
Q 3097 -78 2500 -78 
Q 1853 -78 1343 234 
Q 834 547 571 1087 
Q 309 1628 309 2231 
z
M 934 2222 
Q 934 1394 1379 917 
Q 1825 441 2497 441 
Q 3181 441 3623 922 
Q 4066 1403 4066 2288 
Q 4066 2847 3877 3264 
Q 3688 3681 3323 3911 
Q 2959 4141 2506 4141 
Q 1863 4141 1398 3698 
Q 934 3256 934 2222 
z
" transform="scale(0.015625)"/>
       </defs>
       <use xlink:href="#ArialMT-52"/>
       <use xlink:href="#ArialMT-4f" x="72.216797"/>
      </g>
     </g>
    </g>
    <g id="xtick_20">
     <g id="text_20">
      <!-- SK -->
      <g style="fill: #262626" transform="translate(1321.758549 690.033594) scale(0.11 -0.11)">
       <defs>
        <path id="ArialMT-4b" d="M 469 0 
L 469 4581 
L 1075 4581 
L 1075 2309 
L 3350 4581 
L 4172 4581 
L 2250 2725 
L 4256 0 
L 3456 0 
L 1825 2319 
L 1075 1588 
L 1075 0 
L 469 0 
z
" transform="scale(0.015625)"/>
       </defs>
       <use xlink:href="#ArialMT-53"/>
       <use xlink:href="#ArialMT-4b" x="66.699219"/>
      </g>
     </g>
    </g>
    <g id="xtick_21">
     <g id="text_21">
      <!-- UK -->
      <g style="fill: #262626" transform="translate(1386.751261 690.033594) scale(0.11 -0.11)">
       <use xlink:href="#ArialMT-55"/>
       <use xlink:href="#ArialMT-4b" x="72.216797"/>
      </g>
     </g>
    </g>
    <g id="text_22">
     <!-- memberStateCode -->
     <g style="fill: #262626" transform="translate(691.07625 704.809219) scale(0.12 -0.12)">
      <defs>
       <path id="ArialMT-6d" d="M 422 0 
L 422 3319 
L 925 3319 
L 925 2853 
Q 1081 3097 1340 3245 
Q 1600 3394 1931 3394 
Q 2300 3394 2536 3241 
Q 2772 3088 2869 2813 
Q 3263 3394 3894 3394 
Q 4388 3394 4653 3120 
Q 4919 2847 4919 2278 
L 4919 0 
L 4359 0 
L 4359 2091 
Q 4359 2428 4304 2576 
Q 4250 2725 4106 2815 
Q 3963 2906 3769 2906 
Q 3419 2906 3187 2673 
Q 2956 2441 2956 1928 
L 2956 0 
L 2394 0 
L 2394 2156 
Q 2394 2531 2256 2718 
Q 2119 2906 1806 2906 
Q 1569 2906 1367 2781 
Q 1166 2656 1075 2415 
Q 984 2175 984 1722 
L 984 0 
L 422 0 
z
" transform="scale(0.015625)"/>
       <path id="ArialMT-65" d="M 2694 1069 
L 3275 997 
Q 3138 488 2766 206 
Q 2394 -75 1816 -75 
Q 1088 -75 661 373 
Q 234 822 234 1631 
Q 234 2469 665 2931 
Q 1097 3394 1784 3394 
Q 2450 3394 2872 2941 
Q 3294 2488 3294 1666 
Q 3294 1616 3291 1516 
L 816 1516 
Q 847 969 1125 678 
Q 1403 388 1819 388 
Q 2128 388 2347 550 
Q 2566 713 2694 1069 
z
M 847 1978 
L 2700 1978 
Q 2663 2397 2488 2606 
Q 2219 2931 1791 2931 
Q 1403 2931 1139 2672 
Q 875 2413 847 1978 
z
" transform="scale(0.015625)"/>
       <path id="ArialMT-62" d="M 941 0 
L 419 0 
L 419 4581 
L 981 4581 
L 981 2947 
Q 1338 3394 1891 3394 
Q 2197 3394 2470 3270 
Q 2744 3147 2920 2923 
Q 3097 2700 3197 2384 
Q 3297 2069 3297 1709 
Q 3297 856 2875 390 
Q 2453 -75 1863 -75 
Q 1275 -75 941 416 
L 941 0 
z
M 934 1684 
Q 934 1088 1097 822 
Q 1363 388 1816 388 
Q 2184 388 2453 708 
Q 2722 1028 2722 1663 
Q 2722 2313 2464 2622 
Q 2206 2931 1841 2931 
Q 1472 2931 1203 2611 
Q 934 2291 934 1684 
z
" transform="scale(0.015625)"/>
       <path id="ArialMT-72" d="M 416 0 
L 416 3319 
L 922 3319 
L 922 2816 
Q 1116 3169 1280 3281 
Q 1444 3394 1641 3394 
Q 1925 3394 2219 3213 
L 2025 2691 
Q 1819 2813 1613 2813 
Q 1428 2813 1281 2702 
Q 1134 2591 1072 2394 
Q 978 2094 978 1738 
L 978 0 
L 416 0 
z
" transform="scale(0.015625)"/>
       <path id="ArialMT-74" d="M 1650 503 
L 1731 6 
Q 1494 -44 1306 -44 
Q 1000 -44 831 53 
Q 663 150 594 308 
Q 525 466 525 972 
L 525 2881 
L 113 2881 
L 113 3319 
L 525 3319 
L 525 4141 
L 1084 4478 
L 1084 3319 
L 1650 3319 
L 1650 2881 
L 1084 2881 
L 1084 941 
Q 1084 700 1114 631 
Q 1144 563 1211 522 
Q 1278 481 1403 481 
Q 1497 481 1650 503 
z
" transform="scale(0.015625)"/>
       <path id="ArialMT-61" d="M 2588 409 
Q 2275 144 1986 34 
Q 1697 -75 1366 -75 
Q 819 -75 525 192 
Q 231 459 231 875 
Q 231 1119 342 1320 
Q 453 1522 633 1644 
Q 813 1766 1038 1828 
Q 1203 1872 1538 1913 
Q 2219 1994 2541 2106 
Q 2544 2222 2544 2253 
Q 2544 2597 2384 2738 
Q 2169 2928 1744 2928 
Q 1347 2928 1158 2789 
Q 969 2650 878 2297 
L 328 2372 
Q 403 2725 575 2942 
Q 747 3159 1072 3276 
Q 1397 3394 1825 3394 
Q 2250 3394 2515 3294 
Q 2781 3194 2906 3042 
Q 3031 2891 3081 2659 
Q 3109 2516 3109 2141 
L 3109 1391 
Q 3109 606 3145 398 
Q 3181 191 3288 0 
L 2700 0 
Q 2613 175 2588 409 
z
M 2541 1666 
Q 2234 1541 1622 1453 
Q 1275 1403 1131 1340 
Q 988 1278 909 1158 
Q 831 1038 831 891 
Q 831 666 1001 516 
Q 1172 366 1500 366 
Q 1825 366 2078 508 
Q 2331 650 2450 897 
Q 2541 1088 2541 1459 
L 2541 1666 
z
" transform="scale(0.015625)"/>
       <path id="ArialMT-6f" d="M 213 1659 
Q 213 2581 725 3025 
Q 1153 3394 1769 3394 
Q 2453 3394 2887 2945 
Q 3322 2497 3322 1706 
Q 3322 1066 3130 698 
Q 2938 331 2570 128 
Q 2203 -75 1769 -75 
Q 1072 -75 642 372 
Q 213 819 213 1659 
z
M 791 1659 
Q 791 1022 1069 705 
Q 1347 388 1769 388 
Q 2188 388 2466 706 
Q 2744 1025 2744 1678 
Q 2744 2294 2464 2611 
Q 2184 2928 1769 2928 
Q 1347 2928 1069 2612 
Q 791 2297 791 1659 
z
" transform="scale(0.015625)"/>
       <path id="ArialMT-64" d="M 2575 0 
L 2575 419 
Q 2259 -75 1647 -75 
Q 1250 -75 917 144 
Q 584 363 401 755 
Q 219 1147 219 1656 
Q 219 2153 384 2558 
Q 550 2963 881 3178 
Q 1213 3394 1622 3394 
Q 1922 3394 2156 3267 
Q 2391 3141 2538 2938 
L 2538 4581 
L 3097 4581 
L 3097 0 
L 2575 0 
z
M 797 1656 
Q 797 1019 1065 703 
Q 1334 388 1700 388 
Q 2069 388 2326 689 
Q 2584 991 2584 1609 
Q 2584 2291 2321 2609 
Q 2059 2928 1675 2928 
Q 1300 2928 1048 2622 
Q 797 2316 797 1656 
z
" transform="scale(0.015625)"/>
      </defs>
      <use xlink:href="#ArialMT-6d"/>
      <use xlink:href="#ArialMT-65" x="83.300781"/>
      <use xlink:href="#ArialMT-6d" x="138.916016"/>
      <use xlink:href="#ArialMT-62" x="222.216797"/>
      <use xlink:href="#ArialMT-65" x="277.832031"/>
      <use xlink:href="#ArialMT-72" x="333.447266"/>
      <use xlink:href="#ArialMT-53" x="366.748047"/>
      <use xlink:href="#ArialMT-74" x="433.447266"/>
      <use xlink:href="#ArialMT-61" x="461.230469"/>
      <use xlink:href="#ArialMT-74" x="516.845703"/>
      <use xlink:href="#ArialMT-65" x="544.628906"/>
      <use xlink:href="#ArialMT-43" x="600.244141"/>
      <use xlink:href="#ArialMT-6f" x="672.460938"/>
      <use xlink:href="#ArialMT-64" x="728.076172"/>
      <use xlink:href="#ArialMT-65" x="783.691406"/>
     </g>
    </g>
   </g>
   <g id="matplotlib.axis_2">
    <g id="ytick_1">
     <g id="line2d_1">
      <path d="M 55.8225 568.01308 
L 1427.04 568.01308 
" clip-path="url(#pde6ba91c9e)" style="fill: none; stroke: #ffffff; stroke-linecap: round"/>
     </g>
     <g id="text_23">
      <!-- 100 -->
      <g style="fill: #262626" transform="translate(27.971406 571.949877) scale(0.11 -0.11)">
       <defs>
        <path id="ArialMT-31" d="M 2384 0 
L 1822 0 
L 1822 3584 
Q 1619 3391 1289 3197 
Q 959 3003 697 2906 
L 697 3450 
Q 1169 3672 1522 3987 
Q 1875 4303 2022 4600 
L 2384 4600 
L 2384 0 
z
" transform="scale(0.015625)"/>
        <path id="ArialMT-30" d="M 266 2259 
Q 266 3072 433 3567 
Q 600 4063 929 4331 
Q 1259 4600 1759 4600 
Q 2128 4600 2406 4451 
Q 2684 4303 2865 4023 
Q 3047 3744 3150 3342 
Q 3253 2941 3253 2259 
Q 3253 1453 3087 958 
Q 2922 463 2592 192 
Q 2263 -78 1759 -78 
Q 1097 -78 719 397 
Q 266 969 266 2259 
z
M 844 2259 
Q 844 1131 1108 757 
Q 1372 384 1759 384 
Q 2147 384 2411 759 
Q 2675 1134 2675 2259 
Q 2675 3391 2411 3762 
Q 2147 4134 1753 4134 
Q 1366 4134 1134 3806 
Q 844 3388 844 2259 
z
" transform="scale(0.015625)"/>
       </defs>
       <use xlink:href="#ArialMT-31"/>
       <use xlink:href="#ArialMT-30" x="55.615234"/>
       <use xlink:href="#ArialMT-30" x="111.230469"/>
      </g>
     </g>
    </g>
    <g id="ytick_2">
     <g id="line2d_2">
      <path d="M 55.8225 427.62091 
L 1427.04 427.62091 
" clip-path="url(#pde6ba91c9e)" style="fill: none; stroke: #ffffff; stroke-linecap: round"/>
     </g>
     <g id="text_24">
      <!-- 150 -->
      <g style="fill: #262626" transform="translate(27.971406 431.557707) scale(0.11 -0.11)">
       <defs>
        <path id="ArialMT-35" d="M 266 1200 
L 856 1250 
Q 922 819 1161 601 
Q 1400 384 1738 384 
Q 2144 384 2425 690 
Q 2706 997 2706 1503 
Q 2706 1984 2436 2262 
Q 2166 2541 1728 2541 
Q 1456 2541 1237 2417 
Q 1019 2294 894 2097 
L 366 2166 
L 809 4519 
L 3088 4519 
L 3088 3981 
L 1259 3981 
L 1013 2750 
Q 1425 3038 1878 3038 
Q 2478 3038 2890 2622 
Q 3303 2206 3303 1553 
Q 3303 931 2941 478 
Q 2500 -78 1738 -78 
Q 1113 -78 717 272 
Q 322 622 266 1200 
z
" transform="scale(0.015625)"/>
       </defs>
       <use xlink:href="#ArialMT-31"/>
       <use xlink:href="#ArialMT-35" x="55.615234"/>
       <use xlink:href="#ArialMT-30" x="111.230469"/>
      </g>
     </g>
    </g>
    <g id="ytick_3">
     <g id="line2d_3">
      <path d="M 55.8225 287.22874 
L 1427.04 287.22874 
" clip-path="url(#pde6ba91c9e)" style="fill: none; stroke: #ffffff; stroke-linecap: round"/>
     </g>
     <g id="text_25">
      <!-- 200 -->
      <g style="fill: #262626" transform="translate(27.971406 291.165537) scale(0.11 -0.11)">
       <defs>
        <path id="ArialMT-32" d="M 3222 541 
L 3222 0 
L 194 0 
Q 188 203 259 391 
Q 375 700 629 1000 
Q 884 1300 1366 1694 
Q 2113 2306 2375 2664 
Q 2638 3022 2638 3341 
Q 2638 3675 2398 3904 
Q 2159 4134 1775 4134 
Q 1369 4134 1125 3890 
Q 881 3647 878 3216 
L 300 3275 
Q 359 3922 746 4261 
Q 1134 4600 1788 4600 
Q 2447 4600 2831 4234 
Q 3216 3869 3216 3328 
Q 3216 3053 3103 2787 
Q 2991 2522 2730 2228 
Q 2469 1934 1863 1422 
Q 1356 997 1212 845 
Q 1069 694 975 541 
L 3222 541 
z
" transform="scale(0.015625)"/>
       </defs>
       <use xlink:href="#ArialMT-32"/>
       <use xlink:href="#ArialMT-30" x="55.615234"/>
       <use xlink:href="#ArialMT-30" x="111.230469"/>
      </g>
     </g>
    </g>
    <g id="ytick_4">
     <g id="line2d_4">
      <path d="M 55.8225 146.83657 
L 1427.04 146.83657 
" clip-path="url(#pde6ba91c9e)" style="fill: none; stroke: #ffffff; stroke-linecap: round"/>
     </g>
     <g id="text_26">
      <!-- 250 -->
      <g style="fill: #262626" transform="translate(27.971406 150.773366) scale(0.11 -0.11)">
       <use xlink:href="#ArialMT-32"/>
       <use xlink:href="#ArialMT-35" x="55.615234"/>
       <use xlink:href="#ArialMT-30" x="111.230469"/>
      </g>
     </g>
    </g>
    <g id="text_27">
     <!-- oats_price -->
     <g style="fill: #262626" transform="translate(21.586406 370.490625) rotate(-90) scale(0.12 -0.12)">
      <defs>
       <path id="ArialMT-73" d="M 197 991 
L 753 1078 
Q 800 744 1014 566 
Q 1228 388 1613 388 
Q 2000 388 2187 545 
Q 2375 703 2375 916 
Q 2375 1106 2209 1216 
Q 2094 1291 1634 1406 
Q 1016 1563 777 1677 
Q 538 1791 414 1992 
Q 291 2194 291 2438 
Q 291 2659 392 2848 
Q 494 3038 669 3163 
Q 800 3259 1026 3326 
Q 1253 3394 1513 3394 
Q 1903 3394 2198 3281 
Q 2494 3169 2634 2976 
Q 2775 2784 2828 2463 
L 2278 2388 
Q 2241 2644 2061 2787 
Q 1881 2931 1553 2931 
Q 1166 2931 1000 2803 
Q 834 2675 834 2503 
Q 834 2394 903 2306 
Q 972 2216 1119 2156 
Q 1203 2125 1616 2013 
Q 2213 1853 2448 1751 
Q 2684 1650 2818 1456 
Q 2953 1263 2953 975 
Q 2953 694 2789 445 
Q 2625 197 2315 61 
Q 2006 -75 1616 -75 
Q 969 -75 630 194 
Q 291 463 197 991 
z
" transform="scale(0.015625)"/>
       <path id="ArialMT-5f" d="M -97 -1272 
L -97 -866 
L 3631 -866 
L 3631 -1272 
L -97 -1272 
z
" transform="scale(0.015625)"/>
       <path id="ArialMT-70" d="M 422 -1272 
L 422 3319 
L 934 3319 
L 934 2888 
Q 1116 3141 1344 3267 
Q 1572 3394 1897 3394 
Q 2322 3394 2647 3175 
Q 2972 2956 3137 2557 
Q 3303 2159 3303 1684 
Q 3303 1175 3120 767 
Q 2938 359 2589 142 
Q 2241 -75 1856 -75 
Q 1575 -75 1351 44 
Q 1128 163 984 344 
L 984 -1272 
L 422 -1272 
z
M 931 1641 
Q 931 1000 1190 694 
Q 1450 388 1819 388 
Q 2194 388 2461 705 
Q 2728 1022 2728 1688 
Q 2728 2322 2467 2637 
Q 2206 2953 1844 2953 
Q 1484 2953 1207 2617 
Q 931 2281 931 1641 
z
" transform="scale(0.015625)"/>
       <path id="ArialMT-69" d="M 425 3934 
L 425 4581 
L 988 4581 
L 988 3934 
L 425 3934 
z
M 425 0 
L 425 3319 
L 988 3319 
L 988 0 
L 425 0 
z
" transform="scale(0.015625)"/>
       <path id="ArialMT-63" d="M 2588 1216 
L 3141 1144 
Q 3050 572 2676 248 
Q 2303 -75 1759 -75 
Q 1078 -75 664 370 
Q 250 816 250 1647 
Q 250 2184 428 2587 
Q 606 2991 970 3192 
Q 1334 3394 1763 3394 
Q 2303 3394 2647 3120 
Q 2991 2847 3088 2344 
L 2541 2259 
Q 2463 2594 2264 2762 
Q 2066 2931 1784 2931 
Q 1359 2931 1093 2626 
Q 828 2322 828 1663 
Q 828 994 1084 691 
Q 1341 388 1753 388 
Q 2084 388 2306 591 
Q 2528 794 2588 1216 
z
" transform="scale(0.015625)"/>
      </defs>
      <use xlink:href="#ArialMT-6f"/>
      <use xlink:href="#ArialMT-61" x="55.615234"/>
      <use xlink:href="#ArialMT-74" x="111.230469"/>
      <use xlink:href="#ArialMT-73" x="139.013672"/>
      <use xlink:href="#ArialMT-5f" x="189.013672"/>
      <use xlink:href="#ArialMT-70" x="244.628906"/>
      <use xlink:href="#ArialMT-72" x="300.244141"/>
      <use xlink:href="#ArialMT-69" x="333.544922"/>
      <use xlink:href="#ArialMT-63" x="355.761719"/>
      <use xlink:href="#ArialMT-65" x="405.761719"/>
     </g>
    </g>
   </g>
   <g id="patch_3">
    <path d="M 62.352107 485.229082 
L 114.588964 485.229082 
L 114.588964 431.258822 
L 62.352107 431.258822 
L 62.352107 485.229082 
z
" clip-path="url(#pde6ba91c9e)" style="fill: #ea96a3; stroke: #454545; stroke-width: 1.5; stroke-linejoin: miter"/>
   </g>
   <g id="patch_4">
    <path d="M 127.648179 385.503259 
L 179.885036 385.503259 
L 179.885036 334.962078 
L 127.648179 334.962078 
L 127.648179 385.503259 
z
" clip-path="url(#pde6ba91c9e)" style="fill: #e89685; stroke: #454545; stroke-width: 1.5; stroke-linejoin: miter"/>
   </g>
   <g id="patch_5">
    <path d="M 192.94425 464.824835 
L 245.181107 464.824835 
L 245.181107 401.943182 
L 192.94425 401.943182 
L 192.94425 464.824835 
z
" clip-path="url(#pde6ba91c9e)" style="fill: #da934e; stroke: #454545; stroke-width: 1.5; stroke-linejoin: miter"/>
   </g>
   <g id="patch_6">
    <path d="M 258.240321 236.687559 
L 310.477179 236.687559 
L 310.477179 236.687559 
L 258.240321 236.687559 
L 258.240321 236.687559 
z
" clip-path="url(#pde6ba91c9e)" style="fill: #c29a4b; stroke: #454545; stroke-width: 1.5; stroke-linejoin: miter"/>
   </g>
   <g id="patch_7">
    <path d="M 323.536393 490.509583 
L 375.77325 490.509583 
L 375.77325 442.537578 
L 323.536393 442.537578 
L 323.536393 490.509583 
z
" clip-path="url(#pde6ba91c9e)" style="fill: #af9d48; stroke: #454545; stroke-width: 1.5; stroke-linejoin: miter"/>
   </g>
   <g id="patch_8">
    <path d="M 388.832464 428.52293 
L 441.069321 428.52293 
L 441.069321 326.538547 
L 388.832464 326.538547 
L 388.832464 428.52293 
z
" clip-path="url(#pde6ba91c9e)" style="fill: #9ca145; stroke: #454545; stroke-width: 1.5; stroke-linejoin: miter"/>
   </g>
   <g id="patch_9">
    <path d="M 454.128536 444.869843 
L 506.365393 444.869843 
L 506.365393 392.666769 
L 454.128536 392.666769 
L 454.128536 444.869843 
z
" clip-path="url(#pde6ba91c9e)" style="fill: #88a746; stroke: #454545; stroke-width: 1.5; stroke-linejoin: miter"/>
   </g>
   <g id="patch_10">
    <path d="M 519.424607 448.651657 
L 571.661464 448.651657 
L 571.661464 358.969139 
L 519.424607 358.969139 
L 519.424607 448.651657 
z
" clip-path="url(#pde6ba91c9e)" style="fill: #60ae47; stroke: #454545; stroke-width: 1.5; stroke-linejoin: miter"/>
   </g>
   <g id="patch_11">
    <path d="M 584.720679 495.009152 
L 636.957536 495.009152 
L 636.957536 427.62091 
L 584.720679 427.62091 
L 584.720679 495.009152 
z
" clip-path="url(#pde6ba91c9e)" style="fill: #49af77; stroke: #454545; stroke-width: 1.5; stroke-linejoin: miter"/>
   </g>
   <g id="patch_12">
    <path d="M 650.01675 461.653727 
L 702.253607 461.653727 
L 702.253607 338.863225 
L 650.01675 338.863225 
L 650.01675 461.653727 
z
" clip-path="url(#pde6ba91c9e)" style="fill: #4aad8f; stroke: #454545; stroke-width: 1.5; stroke-linejoin: miter"/>
   </g>
   <g id="patch_13">
    <path d="M 715.312821 505.377114 
L 767.549679 505.377114 
L 767.549679 422.658047 
L 715.312821 422.658047 
L 715.312821 505.377114 
z
" clip-path="url(#pde6ba91c9e)" style="fill: #4bac9e; stroke: #454545; stroke-width: 1.5; stroke-linejoin: miter"/>
   </g>
   <g id="patch_14">
    <path d="M 780.608893 439.398058 
L 832.84575 439.398058 
L 832.84575 323.374459 
L 780.608893 323.374459 
L 780.608893 439.398058 
z
" clip-path="url(#pde6ba91c9e)" style="fill: #4babaa; stroke: #454545; stroke-width: 1.5; stroke-linejoin: miter"/>
   </g>
   <g id="patch_15">
    <path d="M 845.904964 411.384556 
L 898.141821 411.384556 
L 898.141821 338.359568 
L 845.904964 338.359568 
L 845.904964 411.384556 
z
" clip-path="url(#pde6ba91c9e)" style="fill: #4eabb8; stroke: #454545; stroke-width: 1.5; stroke-linejoin: miter"/>
   </g>
   <g id="patch_16">
    <path d="M 911.201036 535.435077 
L 963.437893 535.435077 
L 963.437893 454.941226 
L 911.201036 454.941226 
L 911.201036 535.435077 
z
" clip-path="url(#pde6ba91c9e)" style="fill: #52acca; stroke: #454545; stroke-width: 1.5; stroke-linejoin: miter"/>
   </g>
   <g id="patch_17">
    <path d="M 976.497107 487.989543 
L 1028.733964 487.989543 
L 1028.733964 410.071889 
L 976.497107 410.071889 
L 976.497107 487.989543 
z
" clip-path="url(#pde6ba91c9e)" style="fill: #6daee2; stroke: #454545; stroke-width: 1.5; stroke-linejoin: miter"/>
   </g>
   <g id="patch_18">
    <path d="M 1041.793179 428.094734 
L 1094.030036 428.094734 
L 1094.030036 329.321822 
L 1041.793179 329.321822 
L 1041.793179 428.094734 
z
" clip-path="url(#pde6ba91c9e)" style="fill: #a0adea; stroke: #454545; stroke-width: 1.5; stroke-linejoin: miter"/>
   </g>
   <g id="patch_19">
    <path d="M 1107.08925 485.1817 
L 1159.326107 485.1817 
L 1159.326107 399.135339 
L 1107.08925 399.135339 
L 1107.08925 485.1817 
z
" clip-path="url(#pde6ba91c9e)" style="fill: #bca5ea; stroke: #454545; stroke-width: 1.5; stroke-linejoin: miter"/>
   </g>
   <g id="patch_20">
    <path d="M 1172.385321 399.844319 
L 1224.622179 399.844319 
L 1224.622179 301.618937 
L 1172.385321 301.618937 
L 1172.385321 399.844319 
z
" clip-path="url(#pde6ba91c9e)" style="fill: #d398e8; stroke: #454545; stroke-width: 1.5; stroke-linejoin: miter"/>
   </g>
   <g id="patch_21">
    <path d="M 1237.681393 489.707592 
L 1289.91825 489.707592 
L 1289.91825 408.450359 
L 1237.681393 408.450359 
L 1237.681393 489.707592 
z
" clip-path="url(#pde6ba91c9e)" style="fill: #e78ae0; stroke: #454545; stroke-width: 1.5; stroke-linejoin: miter"/>
   </g>
   <g id="patch_22">
    <path d="M 1302.977464 503.104515 
L 1355.214321 503.104515 
L 1355.214321 464.709012 
L 1302.977464 464.709012 
L 1302.977464 503.104515 
z
" clip-path="url(#pde6ba91c9e)" style="fill: #e88fca; stroke: #454545; stroke-width: 1.5; stroke-linejoin: miter"/>
   </g>
   <g id="patch_23">
    <path d="M 1368.273536 483.012641 
L 1420.510393 483.012641 
L 1420.510393 430.372597 
L 1368.273536 430.372597 
L 1368.273536 483.012641 
z
" clip-path="url(#pde6ba91c9e)" style="fill: #e993b8; stroke: #454545; stroke-width: 1.5; stroke-linejoin: miter"/>
   </g>
   <g id="line2d_5">
    <path d="M 88.470536 485.229082 
L 88.470536 536.888136 
" clip-path="url(#pde6ba91c9e)" style="fill: none; stroke: #454545; stroke-width: 1.5; stroke-linecap: round"/>
   </g>
   <g id="line2d_6">
    <path d="M 88.470536 431.258822 
L 88.470536 355.318942 
" clip-path="url(#pde6ba91c9e)" style="fill: none; stroke: #454545; stroke-width: 1.5; stroke-linecap: round"/>
   </g>
   <g id="line2d_7">
    <path d="M 75.411321 536.888136 
L 101.52975 536.888136 
" clip-path="url(#pde6ba91c9e)" style="fill: none; stroke: #454545; stroke-width: 1.5; stroke-linecap: round"/>
   </g>
   <g id="line2d_8">
    <path d="M 75.411321 355.318942 
L 101.52975 355.318942 
" clip-path="url(#pde6ba91c9e)" style="fill: none; stroke: #454545; stroke-width: 1.5; stroke-linecap: round"/>
   </g>
   <g id="line2d_9">
    <defs>
     <path id="m2333d90419" d="M 0 3.535534 
L 2.12132 0 
L 0 -3.535534 
L -2.12132 0 
z
" style="stroke: #454545; stroke-linejoin: miter"/>
    </defs>
    <g clip-path="url(#pde6ba91c9e)">
     <use xlink:href="#m2333d90419" x="88.470536" y="329.851803" style="fill: #454545; stroke: #454545; stroke-linejoin: miter"/>
     <use xlink:href="#m2333d90419" x="88.470536" y="292.142466" style="fill: #454545; stroke: #454545; stroke-linejoin: miter"/>
     <use xlink:href="#m2333d90419" x="88.470536" y="215.628733" style="fill: #454545; stroke: #454545; stroke-linejoin: miter"/>
     <use xlink:href="#m2333d90419" x="88.470536" y="215.628733" style="fill: #454545; stroke: #454545; stroke-linejoin: miter"/>
     <use xlink:href="#m2333d90419" x="88.470536" y="311.685056" style="fill: #454545; stroke: #454545; stroke-linejoin: miter"/>
    </g>
   </g>
   <g id="line2d_10">
    <path d="M 153.766607 385.503259 
L 153.766607 405.158163 
" clip-path="url(#pde6ba91c9e)" style="fill: none; stroke: #454545; stroke-width: 1.5; stroke-linecap: round"/>
   </g>
   <g id="line2d_11">
    <path d="M 153.766607 334.962078 
L 153.766607 264.765993 
" clip-path="url(#pde6ba91c9e)" style="fill: none; stroke: #454545; stroke-width: 1.5; stroke-linecap: round"/>
   </g>
   <g id="line2d_12">
    <path d="M 140.707393 405.158163 
L 166.825821 405.158163 
" clip-path="url(#pde6ba91c9e)" style="fill: none; stroke: #454545; stroke-width: 1.5; stroke-linecap: round"/>
   </g>
   <g id="line2d_13">
    <path d="M 140.707393 264.765993 
L 166.825821 264.765993 
" clip-path="url(#pde6ba91c9e)" style="fill: none; stroke: #454545; stroke-width: 1.5; stroke-linecap: round"/>
   </g>
   <g id="line2d_14">
    <g clip-path="url(#pde6ba91c9e)">
     <use xlink:href="#m2333d90419" x="153.766607" y="487.989543" style="fill: #454545; stroke: #454545; stroke-linejoin: miter"/>
     <use xlink:href="#m2333d90419" x="153.766607" y="245.111089" style="fill: #454545; stroke: #454545; stroke-linejoin: miter"/>
    </g>
   </g>
   <g id="line2d_15">
    <path d="M 219.062679 464.824835 
L 219.062679 524.702096 
" clip-path="url(#pde6ba91c9e)" style="fill: none; stroke: #454545; stroke-width: 1.5; stroke-linecap: round"/>
   </g>
   <g id="line2d_16">
    <path d="M 219.062679 401.943182 
L 219.062679 342.311608 
" clip-path="url(#pde6ba91c9e)" style="fill: none; stroke: #454545; stroke-width: 1.5; stroke-linecap: round"/>
   </g>
   <g id="line2d_17">
    <path d="M 206.003464 524.702096 
L 232.121893 524.702096 
" clip-path="url(#pde6ba91c9e)" style="fill: none; stroke: #454545; stroke-width: 1.5; stroke-linecap: round"/>
   </g>
   <g id="line2d_18">
    <path d="M 206.003464 342.311608 
L 232.121893 342.311608 
" clip-path="url(#pde6ba91c9e)" style="fill: none; stroke: #454545; stroke-width: 1.5; stroke-linecap: round"/>
   </g>
   <g id="line2d_19"/>
   <g id="line2d_20">
    <path d="M 284.35875 236.687559 
L 284.35875 236.687559 
" clip-path="url(#pde6ba91c9e)" style="fill: none; stroke: #454545; stroke-width: 1.5; stroke-linecap: round"/>
   </g>
   <g id="line2d_21">
    <path d="M 284.35875 236.687559 
L 284.35875 236.687559 
" clip-path="url(#pde6ba91c9e)" style="fill: none; stroke: #454545; stroke-width: 1.5; stroke-linecap: round"/>
   </g>
   <g id="line2d_22">
    <path d="M 271.299536 236.687559 
L 297.417964 236.687559 
" clip-path="url(#pde6ba91c9e)" style="fill: none; stroke: #454545; stroke-width: 1.5; stroke-linecap: round"/>
   </g>
   <g id="line2d_23">
    <path d="M 271.299536 236.687559 
L 297.417964 236.687559 
" clip-path="url(#pde6ba91c9e)" style="fill: none; stroke: #454545; stroke-width: 1.5; stroke-linecap: round"/>
   </g>
   <g id="line2d_24"/>
   <g id="line2d_25">
    <path d="M 349.654821 490.509583 
L 349.654821 542.517862 
" clip-path="url(#pde6ba91c9e)" style="fill: none; stroke: #454545; stroke-width: 1.5; stroke-linecap: round"/>
   </g>
   <g id="line2d_26">
    <path d="M 349.654821 442.537578 
L 349.654821 381.9022 
" clip-path="url(#pde6ba91c9e)" style="fill: none; stroke: #454545; stroke-width: 1.5; stroke-linecap: round"/>
   </g>
   <g id="line2d_27">
    <path d="M 336.595607 542.517862 
L 362.714036 542.517862 
" clip-path="url(#pde6ba91c9e)" style="fill: none; stroke: #454545; stroke-width: 1.5; stroke-linecap: round"/>
   </g>
   <g id="line2d_28">
    <path d="M 336.595607 381.9022 
L 362.714036 381.9022 
" clip-path="url(#pde6ba91c9e)" style="fill: none; stroke: #454545; stroke-width: 1.5; stroke-linecap: round"/>
   </g>
   <g id="line2d_29">
    <g clip-path="url(#pde6ba91c9e)">
     <use xlink:href="#m2333d90419" x="349.654821" y="355.318942" style="fill: #454545; stroke: #454545; stroke-linejoin: miter"/>
    </g>
   </g>
   <g id="line2d_30">
    <path d="M 414.950893 428.52293 
L 414.950893 481.749111 
" clip-path="url(#pde6ba91c9e)" style="fill: none; stroke: #454545; stroke-width: 1.5; stroke-linecap: round"/>
   </g>
   <g id="line2d_31">
    <path d="M 414.950893 326.538547 
L 414.950893 186.146377 
" clip-path="url(#pde6ba91c9e)" style="fill: none; stroke: #454545; stroke-width: 1.5; stroke-linecap: round"/>
   </g>
   <g id="line2d_32">
    <path d="M 401.891679 481.749111 
L 428.010107 481.749111 
" clip-path="url(#pde6ba91c9e)" style="fill: none; stroke: #454545; stroke-width: 1.5; stroke-linecap: round"/>
   </g>
   <g id="line2d_33">
    <path d="M 401.891679 186.146377 
L 428.010107 186.146377 
" clip-path="url(#pde6ba91c9e)" style="fill: none; stroke: #454545; stroke-width: 1.5; stroke-linecap: round"/>
   </g>
   <g id="line2d_34"/>
   <g id="line2d_35">
    <path d="M 480.246964 444.869843 
L 480.246964 457.334913 
" clip-path="url(#pde6ba91c9e)" style="fill: none; stroke: #454545; stroke-width: 1.5; stroke-linecap: round"/>
   </g>
   <g id="line2d_36">
    <path d="M 480.246964 392.666769 
L 480.246964 362.942237 
" clip-path="url(#pde6ba91c9e)" style="fill: none; stroke: #454545; stroke-width: 1.5; stroke-linecap: round"/>
   </g>
   <g id="line2d_37">
    <path d="M 467.18775 457.334913 
L 493.306179 457.334913 
" clip-path="url(#pde6ba91c9e)" style="fill: none; stroke: #454545; stroke-width: 1.5; stroke-linecap: round"/>
   </g>
   <g id="line2d_38">
    <path d="M 467.18775 362.942237 
L 493.306179 362.942237 
" clip-path="url(#pde6ba91c9e)" style="fill: none; stroke: #454545; stroke-width: 1.5; stroke-linecap: round"/>
   </g>
   <g id="line2d_39">
    <g clip-path="url(#pde6ba91c9e)">
     <use xlink:href="#m2333d90419" x="480.246964" y="538.151666" style="fill: #454545; stroke: #454545; stroke-linejoin: miter"/>
    </g>
   </g>
   <g id="line2d_40">
    <path d="M 545.543036 448.651657 
L 545.543036 560.031785 
" clip-path="url(#pde6ba91c9e)" style="fill: none; stroke: #454545; stroke-width: 1.5; stroke-linecap: round"/>
   </g>
   <g id="line2d_41">
    <path d="M 545.543036 358.969139 
L 545.543036 275.295405 
" clip-path="url(#pde6ba91c9e)" style="fill: none; stroke: #454545; stroke-width: 1.5; stroke-linecap: round"/>
   </g>
   <g id="line2d_42">
    <path d="M 532.483821 560.031785 
L 558.60225 560.031785 
" clip-path="url(#pde6ba91c9e)" style="fill: none; stroke: #454545; stroke-width: 1.5; stroke-linecap: round"/>
   </g>
   <g id="line2d_43">
    <path d="M 532.483821 275.295405 
L 558.60225 275.295405 
" clip-path="url(#pde6ba91c9e)" style="fill: none; stroke: #454545; stroke-width: 1.5; stroke-linecap: round"/>
   </g>
   <g id="line2d_44">
    <g clip-path="url(#pde6ba91c9e)">
     <use xlink:href="#m2333d90419" x="545.543036" y="219.840498" style="fill: #454545; stroke: #454545; stroke-linejoin: miter"/>
     <use xlink:href="#m2333d90419" x="545.543036" y="219.840498" style="fill: #454545; stroke: #454545; stroke-linejoin: miter"/>
    </g>
   </g>
   <g id="line2d_45">
    <path d="M 610.839107 495.009152 
L 610.839107 537.126803 
" clip-path="url(#pde6ba91c9e)" style="fill: none; stroke: #454545; stroke-width: 1.5; stroke-linecap: round"/>
   </g>
   <g id="line2d_46">
    <path d="M 610.839107 427.62091 
L 610.839107 349.001295 
" clip-path="url(#pde6ba91c9e)" style="fill: none; stroke: #454545; stroke-width: 1.5; stroke-linecap: round"/>
   </g>
   <g id="line2d_47">
    <path d="M 597.779893 537.126803 
L 623.898321 537.126803 
" clip-path="url(#pde6ba91c9e)" style="fill: none; stroke: #454545; stroke-width: 1.5; stroke-linecap: round"/>
   </g>
   <g id="line2d_48">
    <path d="M 597.779893 349.001295 
L 623.898321 349.001295 
" clip-path="url(#pde6ba91c9e)" style="fill: none; stroke: #454545; stroke-width: 1.5; stroke-linecap: round"/>
   </g>
   <g id="line2d_49">
    <g clip-path="url(#pde6ba91c9e)">
     <use xlink:href="#m2333d90419" x="610.839107" y="250.726776" style="fill: #454545; stroke: #454545; stroke-linejoin: miter"/>
     <use xlink:href="#m2333d90419" x="610.839107" y="270.381679" style="fill: #454545; stroke: #454545; stroke-linejoin: miter"/>
     <use xlink:href="#m2333d90419" x="610.839107" y="287.22874" style="fill: #454545; stroke: #454545; stroke-linejoin: miter"/>
     <use xlink:href="#m2333d90419" x="610.839107" y="287.22874" style="fill: #454545; stroke: #454545; stroke-linejoin: miter"/>
     <use xlink:href="#m2333d90419" x="610.839107" y="287.22874" style="fill: #454545; stroke: #454545; stroke-linejoin: miter"/>
     <use xlink:href="#m2333d90419" x="610.839107" y="200.185594" style="fill: #454545; stroke: #454545; stroke-linejoin: miter"/>
     <use xlink:href="#m2333d90419" x="610.839107" y="42.946364" style="fill: #454545; stroke: #454545; stroke-linejoin: miter"/>
    </g>
   </g>
   <g id="line2d_50">
    <path d="M 676.135179 461.653727 
L 676.135179 556.872962 
" clip-path="url(#pde6ba91c9e)" style="fill: none; stroke: #454545; stroke-width: 1.5; stroke-linecap: round"/>
   </g>
   <g id="line2d_51">
    <path d="M 676.135179 338.863225 
L 676.135179 219.840498 
" clip-path="url(#pde6ba91c9e)" style="fill: none; stroke: #454545; stroke-width: 1.5; stroke-linecap: round"/>
   </g>
   <g id="line2d_52">
    <path d="M 663.075964 556.872962 
L 689.194393 556.872962 
" clip-path="url(#pde6ba91c9e)" style="fill: none; stroke: #454545; stroke-width: 1.5; stroke-linecap: round"/>
   </g>
   <g id="line2d_53">
    <path d="M 663.075964 219.840498 
L 689.194393 219.840498 
" clip-path="url(#pde6ba91c9e)" style="fill: none; stroke: #454545; stroke-width: 1.5; stroke-linecap: round"/>
   </g>
   <g id="line2d_54"/>
   <g id="line2d_55">
    <path d="M 741.43125 505.377114 
L 741.43125 546.32249 
" clip-path="url(#pde6ba91c9e)" style="fill: none; stroke: #454545; stroke-width: 1.5; stroke-linecap: round"/>
   </g>
   <g id="line2d_56">
    <path d="M 741.43125 422.658047 
L 741.43125 381.298513 
" clip-path="url(#pde6ba91c9e)" style="fill: none; stroke: #454545; stroke-width: 1.5; stroke-linecap: round"/>
   </g>
   <g id="line2d_57">
    <path d="M 728.372036 546.32249 
L 754.490464 546.32249 
" clip-path="url(#pde6ba91c9e)" style="fill: none; stroke: #454545; stroke-width: 1.5; stroke-linecap: round"/>
   </g>
   <g id="line2d_58">
    <path d="M 728.372036 381.298513 
L 754.490464 381.298513 
" clip-path="url(#pde6ba91c9e)" style="fill: none; stroke: #454545; stroke-width: 1.5; stroke-linecap: round"/>
   </g>
   <g id="line2d_59">
    <g clip-path="url(#pde6ba91c9e)">
     <use xlink:href="#m2333d90419" x="741.43125" y="288.632662" style="fill: #454545; stroke: #454545; stroke-linejoin: miter"/>
    </g>
   </g>
   <g id="line2d_60">
    <path d="M 806.727321 439.398058 
L 806.727321 492.657583 
" clip-path="url(#pde6ba91c9e)" style="fill: none; stroke: #454545; stroke-width: 1.5; stroke-linecap: round"/>
   </g>
   <g id="line2d_61">
    <path d="M 806.727321 323.374459 
L 806.727321 215.628733 
" clip-path="url(#pde6ba91c9e)" style="fill: none; stroke: #454545; stroke-width: 1.5; stroke-linecap: round"/>
   </g>
   <g id="line2d_62">
    <path d="M 793.668107 492.657583 
L 819.786536 492.657583 
" clip-path="url(#pde6ba91c9e)" style="fill: none; stroke: #454545; stroke-width: 1.5; stroke-linecap: round"/>
   </g>
   <g id="line2d_63">
    <path d="M 793.668107 215.628733 
L 819.786536 215.628733 
" clip-path="url(#pde6ba91c9e)" style="fill: none; stroke: #454545; stroke-width: 1.5; stroke-linecap: round"/>
   </g>
   <g id="line2d_64"/>
   <g id="line2d_65">
    <path d="M 872.023393 411.384556 
L 872.023393 461.546678 
" clip-path="url(#pde6ba91c9e)" style="fill: none; stroke: #454545; stroke-width: 1.5; stroke-linecap: round"/>
   </g>
   <g id="line2d_66">
    <path d="M 872.023393 338.359568 
L 872.023393 271.08364 
" clip-path="url(#pde6ba91c9e)" style="fill: none; stroke: #454545; stroke-width: 1.5; stroke-linecap: round"/>
   </g>
   <g id="line2d_67">
    <path d="M 858.964179 461.546678 
L 885.082607 461.546678 
" clip-path="url(#pde6ba91c9e)" style="fill: none; stroke: #454545; stroke-width: 1.5; stroke-linecap: round"/>
   </g>
   <g id="line2d_68">
    <path d="M 858.964179 271.08364 
L 885.082607 271.08364 
" clip-path="url(#pde6ba91c9e)" style="fill: none; stroke: #454545; stroke-width: 1.5; stroke-linecap: round"/>
   </g>
   <g id="line2d_69"/>
   <g id="line2d_70">
    <path d="M 937.319464 535.435077 
L 937.319464 642.673636 
" clip-path="url(#pde6ba91c9e)" style="fill: none; stroke: #454545; stroke-width: 1.5; stroke-linecap: round"/>
   </g>
   <g id="line2d_71">
    <path d="M 937.319464 454.941226 
L 937.319464 360.822315 
" clip-path="url(#pde6ba91c9e)" style="fill: none; stroke: #454545; stroke-width: 1.5; stroke-linecap: round"/>
   </g>
   <g id="line2d_72">
    <path d="M 924.26025 642.673636 
L 950.378679 642.673636 
" clip-path="url(#pde6ba91c9e)" style="fill: none; stroke: #454545; stroke-width: 1.5; stroke-linecap: round"/>
   </g>
   <g id="line2d_73">
    <path d="M 924.26025 360.822315 
L 950.378679 360.822315 
" clip-path="url(#pde6ba91c9e)" style="fill: none; stroke: #454545; stroke-width: 1.5; stroke-linecap: round"/>
   </g>
   <g id="line2d_74">
    <g clip-path="url(#pde6ba91c9e)">
     <use xlink:href="#m2333d90419" x="937.319464" y="319.547017" style="fill: #454545; stroke: #454545; stroke-linejoin: miter"/>
     <use xlink:href="#m2333d90419" x="937.319464" y="260.554227" style="fill: #454545; stroke: #454545; stroke-linejoin: miter"/>
     <use xlink:href="#m2333d90419" x="937.319464" y="202.291477" style="fill: #454545; stroke: #454545; stroke-linejoin: miter"/>
    </g>
   </g>
   <g id="line2d_75">
    <path d="M 1002.615536 487.989543 
L 1002.615536 541.30347 
" clip-path="url(#pde6ba91c9e)" style="fill: none; stroke: #454545; stroke-width: 1.5; stroke-linecap: round"/>
   </g>
   <g id="line2d_76">
    <path d="M 1002.615536 410.071889 
L 1002.615536 345.49149 
" clip-path="url(#pde6ba91c9e)" style="fill: none; stroke: #454545; stroke-width: 1.5; stroke-linecap: round"/>
   </g>
   <g id="line2d_77">
    <path d="M 989.556321 541.30347 
L 1015.67475 541.30347 
" clip-path="url(#pde6ba91c9e)" style="fill: none; stroke: #454545; stroke-width: 1.5; stroke-linecap: round"/>
   </g>
   <g id="line2d_78">
    <path d="M 989.556321 345.49149 
L 1015.67475 345.49149 
" clip-path="url(#pde6ba91c9e)" style="fill: none; stroke: #454545; stroke-width: 1.5; stroke-linecap: round"/>
   </g>
   <g id="line2d_79">
    <g clip-path="url(#pde6ba91c9e)">
     <use xlink:href="#m2333d90419" x="1002.615536" y="290.738544" style="fill: #454545; stroke: #454545; stroke-linejoin: miter"/>
     <use xlink:href="#m2333d90419" x="1002.615536" y="275.295405" style="fill: #454545; stroke: #454545; stroke-linejoin: miter"/>
     <use xlink:href="#m2333d90419" x="1002.615536" y="267.573836" style="fill: #454545; stroke: #454545; stroke-linejoin: miter"/>
    </g>
   </g>
   <g id="line2d_80">
    <path d="M 1067.911607 428.094734 
L 1067.911607 491.443191 
" clip-path="url(#pde6ba91c9e)" style="fill: none; stroke: #454545; stroke-width: 1.5; stroke-linecap: round"/>
   </g>
   <g id="line2d_81">
    <path d="M 1067.911607 329.321822 
L 1067.911607 204.397359 
" clip-path="url(#pde6ba91c9e)" style="fill: none; stroke: #454545; stroke-width: 1.5; stroke-linecap: round"/>
   </g>
   <g id="line2d_82">
    <path d="M 1054.852393 491.443191 
L 1080.970821 491.443191 
" clip-path="url(#pde6ba91c9e)" style="fill: none; stroke: #454545; stroke-width: 1.5; stroke-linecap: round"/>
   </g>
   <g id="line2d_83">
    <path d="M 1054.852393 204.397359 
L 1080.970821 204.397359 
" clip-path="url(#pde6ba91c9e)" style="fill: none; stroke: #454545; stroke-width: 1.5; stroke-linecap: round"/>
   </g>
   <g id="line2d_84"/>
   <g id="line2d_85">
    <path d="M 1133.207679 485.1817 
L 1133.207679 591.233945 
" clip-path="url(#pde6ba91c9e)" style="fill: none; stroke: #454545; stroke-width: 1.5; stroke-linecap: round"/>
   </g>
   <g id="line2d_86">
    <path d="M 1133.207679 399.135339 
L 1133.207679 273.891484 
" clip-path="url(#pde6ba91c9e)" style="fill: none; stroke: #454545; stroke-width: 1.5; stroke-linecap: round"/>
   </g>
   <g id="line2d_87">
    <path d="M 1120.148464 591.233945 
L 1146.266893 591.233945 
" clip-path="url(#pde6ba91c9e)" style="fill: none; stroke: #454545; stroke-width: 1.5; stroke-linecap: round"/>
   </g>
   <g id="line2d_88">
    <path d="M 1120.148464 273.891484 
L 1146.266893 273.891484 
" clip-path="url(#pde6ba91c9e)" style="fill: none; stroke: #454545; stroke-width: 1.5; stroke-linecap: round"/>
   </g>
   <g id="line2d_89">
    <g clip-path="url(#pde6ba91c9e)">
     <use xlink:href="#m2333d90419" x="1133.207679" y="267.573836" style="fill: #454545; stroke: #454545; stroke-linejoin: miter"/>
     <use xlink:href="#m2333d90419" x="1133.207679" y="215.628733" style="fill: #454545; stroke: #454545; stroke-linejoin: miter"/>
    </g>
   </g>
   <g id="line2d_90">
    <path d="M 1198.50375 399.844319 
L 1198.50375 470.896796 
" clip-path="url(#pde6ba91c9e)" style="fill: none; stroke: #454545; stroke-width: 1.5; stroke-linecap: round"/>
   </g>
   <g id="line2d_91">
    <path d="M 1198.50375 301.618937 
L 1198.50375 223.350302 
" clip-path="url(#pde6ba91c9e)" style="fill: none; stroke: #454545; stroke-width: 1.5; stroke-linecap: round"/>
   </g>
   <g id="line2d_92">
    <path d="M 1185.444536 470.896796 
L 1211.562964 470.896796 
" clip-path="url(#pde6ba91c9e)" style="fill: none; stroke: #454545; stroke-width: 1.5; stroke-linecap: round"/>
   </g>
   <g id="line2d_93">
    <path d="M 1185.444536 223.350302 
L 1211.562964 223.350302 
" clip-path="url(#pde6ba91c9e)" style="fill: none; stroke: #454545; stroke-width: 1.5; stroke-linecap: round"/>
   </g>
   <g id="line2d_94"/>
   <g id="line2d_95">
    <path d="M 1263.799821 489.707592 
L 1263.799821 536.909195 
" clip-path="url(#pde6ba91c9e)" style="fill: none; stroke: #454545; stroke-width: 1.5; stroke-linecap: round"/>
   </g>
   <g id="line2d_96">
    <path d="M 1263.799821 408.450359 
L 1263.799821 299.162074 
" clip-path="url(#pde6ba91c9e)" style="fill: none; stroke: #454545; stroke-width: 1.5; stroke-linecap: round"/>
   </g>
   <g id="line2d_97">
    <path d="M 1250.740607 536.909195 
L 1276.859036 536.909195 
" clip-path="url(#pde6ba91c9e)" style="fill: none; stroke: #454545; stroke-width: 1.5; stroke-linecap: round"/>
   </g>
   <g id="line2d_98">
    <path d="M 1250.740607 299.162074 
L 1276.859036 299.162074 
" clip-path="url(#pde6ba91c9e)" style="fill: none; stroke: #454545; stroke-width: 1.5; stroke-linecap: round"/>
   </g>
   <g id="line2d_99">
    <g clip-path="url(#pde6ba91c9e)">
     <use xlink:href="#m2333d90419" x="1263.799821" y="278.80521" style="fill: #454545; stroke: #454545; stroke-linejoin: miter"/>
     <use xlink:href="#m2333d90419" x="1263.799821" y="277.401288" style="fill: #454545; stroke: #454545; stroke-linejoin: miter"/>
     <use xlink:href="#m2333d90419" x="1263.799821" y="272.487562" style="fill: #454545; stroke: #454545; stroke-linejoin: miter"/>
     <use xlink:href="#m2333d90419" x="1263.799821" y="246.51501" style="fill: #454545; stroke: #454545; stroke-linejoin: miter"/>
     <use xlink:href="#m2333d90419" x="1263.799821" y="278.80521" style="fill: #454545; stroke: #454545; stroke-linejoin: miter"/>
     <use xlink:href="#m2333d90419" x="1263.799821" y="267.573836" style="fill: #454545; stroke: #454545; stroke-linejoin: miter"/>
     <use xlink:href="#m2333d90419" x="1263.799821" y="195.973829" style="fill: #454545; stroke: #454545; stroke-linejoin: miter"/>
    </g>
   </g>
   <g id="line2d_100">
    <path d="M 1329.095893 503.104515 
L 1329.095893 541.30347 
" clip-path="url(#pde6ba91c9e)" style="fill: none; stroke: #454545; stroke-width: 1.5; stroke-linecap: round"/>
   </g>
   <g id="line2d_101">
    <path d="M 1329.095893 464.709012 
L 1329.095893 412.879732 
" clip-path="url(#pde6ba91c9e)" style="fill: none; stroke: #454545; stroke-width: 1.5; stroke-linecap: round"/>
   </g>
   <g id="line2d_102">
    <path d="M 1316.036679 541.30347 
L 1342.155107 541.30347 
" clip-path="url(#pde6ba91c9e)" style="fill: none; stroke: #454545; stroke-width: 1.5; stroke-linecap: round"/>
   </g>
   <g id="line2d_103">
    <path d="M 1316.036679 412.879732 
L 1342.155107 412.879732 
" clip-path="url(#pde6ba91c9e)" style="fill: none; stroke: #454545; stroke-width: 1.5; stroke-linecap: round"/>
   </g>
   <g id="line2d_104">
    <g clip-path="url(#pde6ba91c9e)">
     <use xlink:href="#m2333d90419" x="1329.095893" y="252.832658" style="fill: #454545; stroke: #454545; stroke-linejoin: miter"/>
     <use xlink:href="#m2333d90419" x="1329.095893" y="371.464042" style="fill: #454545; stroke: #454545; stroke-linejoin: miter"/>
     <use xlink:href="#m2333d90419" x="1329.095893" y="356.020903" style="fill: #454545; stroke: #454545; stroke-linejoin: miter"/>
     <use xlink:href="#m2333d90419" x="1329.095893" y="370.762081" style="fill: #454545; stroke: #454545; stroke-linejoin: miter"/>
    </g>
   </g>
   <g id="line2d_105">
    <path d="M 1394.391964 483.012641 
L 1394.391964 544.686921 
" clip-path="url(#pde6ba91c9e)" style="fill: none; stroke: #454545; stroke-width: 1.5; stroke-linecap: round"/>
   </g>
   <g id="line2d_106">
    <path d="M 1394.391964 430.372597 
L 1394.391964 358.821727 
" clip-path="url(#pde6ba91c9e)" style="fill: none; stroke: #454545; stroke-width: 1.5; stroke-linecap: round"/>
   </g>
   <g id="line2d_107">
    <path d="M 1381.33275 544.686921 
L 1407.451179 544.686921 
" clip-path="url(#pde6ba91c9e)" style="fill: none; stroke: #454545; stroke-width: 1.5; stroke-linecap: round"/>
   </g>
   <g id="line2d_108">
    <path d="M 1381.33275 358.821727 
L 1407.451179 358.821727 
" clip-path="url(#pde6ba91c9e)" style="fill: none; stroke: #454545; stroke-width: 1.5; stroke-linecap: round"/>
   </g>
   <g id="line2d_109">
    <g clip-path="url(#pde6ba91c9e)">
     <use xlink:href="#m2333d90419" x="1394.391964" y="331.15745" style="fill: #454545; stroke: #454545; stroke-linejoin: miter"/>
     <use xlink:href="#m2333d90419" x="1394.391964" y="338.808823" style="fill: #454545; stroke: #454545; stroke-linejoin: miter"/>
     <use xlink:href="#m2333d90419" x="1394.391964" y="350.033177" style="fill: #454545; stroke: #454545; stroke-linejoin: miter"/>
     <use xlink:href="#m2333d90419" x="1394.391964" y="348.01855" style="fill: #454545; stroke: #454545; stroke-linejoin: miter"/>
     <use xlink:href="#m2333d90419" x="1394.391964" y="329.346391" style="fill: #454545; stroke: #454545; stroke-linejoin: miter"/>
    </g>
   </g>
   <g id="line2d_110">
    <path d="M 62.352107 468.878659 
L 114.588964 468.878659 
" clip-path="url(#pde6ba91c9e)" style="fill: none; stroke: #454545; stroke-width: 1.5; stroke-linecap: round"/>
   </g>
   <g id="line2d_111">
    <path d="M 127.648179 364.974414 
L 179.885036 364.974414 
" clip-path="url(#pde6ba91c9e)" style="fill: none; stroke: #454545; stroke-width: 1.5; stroke-linecap: round"/>
   </g>
   <g id="line2d_112">
    <path d="M 192.94425 448.679736 
L 245.181107 448.679736 
" clip-path="url(#pde6ba91c9e)" style="fill: none; stroke: #454545; stroke-width: 1.5; stroke-linecap: round"/>
   </g>
   <g id="line2d_113">
    <path d="M 258.240321 236.687559 
L 310.477179 236.687559 
" clip-path="url(#pde6ba91c9e)" style="fill: none; stroke: #454545; stroke-width: 1.5; stroke-linecap: round"/>
   </g>
   <g id="line2d_114">
    <path d="M 323.536393 471.216189 
L 375.77325 471.216189 
" clip-path="url(#pde6ba91c9e)" style="fill: none; stroke: #454545; stroke-width: 1.5; stroke-linecap: round"/>
   </g>
   <g id="line2d_115">
    <path d="M 388.832464 375.159866 
L 441.069321 375.159866 
" clip-path="url(#pde6ba91c9e)" style="fill: none; stroke: #454545; stroke-width: 1.5; stroke-linecap: round"/>
   </g>
   <g id="line2d_116">
    <path d="M 454.128536 393.793417 
L 506.365393 393.793417 
" clip-path="url(#pde6ba91c9e)" style="fill: none; stroke: #454545; stroke-width: 1.5; stroke-linecap: round"/>
   </g>
   <g id="line2d_117">
    <path d="M 519.424607 416.15087 
L 571.661464 416.15087 
" clip-path="url(#pde6ba91c9e)" style="fill: none; stroke: #454545; stroke-width: 1.5; stroke-linecap: round"/>
   </g>
   <g id="line2d_118">
    <path d="M 584.720679 469.738561 
L 636.957536 469.738561 
" clip-path="url(#pde6ba91c9e)" style="fill: none; stroke: #454545; stroke-width: 1.5; stroke-linecap: round"/>
   </g>
   <g id="line2d_119">
    <path d="M 650.01675 422.121047 
L 702.253607 422.121047 
" clip-path="url(#pde6ba91c9e)" style="fill: none; stroke: #454545; stroke-width: 1.5; stroke-linecap: round"/>
   </g>
   <g id="line2d_120">
    <path d="M 715.312821 465.526796 
L 767.549679 465.526796 
" clip-path="url(#pde6ba91c9e)" style="fill: none; stroke: #454545; stroke-width: 1.5; stroke-linecap: round"/>
   </g>
   <g id="line2d_121">
    <path d="M 780.608893 405.084457 
L 832.84575 405.084457 
" clip-path="url(#pde6ba91c9e)" style="fill: none; stroke: #454545; stroke-width: 1.5; stroke-linecap: round"/>
   </g>
   <g id="line2d_122">
    <path d="M 845.904964 385.404984 
L 898.141821 385.404984 
" clip-path="url(#pde6ba91c9e)" style="fill: none; stroke: #454545; stroke-width: 1.5; stroke-linecap: round"/>
   </g>
   <g id="line2d_123">
    <path d="M 911.201036 494.784524 
L 963.437893 494.784524 
" clip-path="url(#pde6ba91c9e)" style="fill: none; stroke: #454545; stroke-width: 1.5; stroke-linecap: round"/>
   </g>
   <g id="line2d_124">
    <path d="M 976.497107 464.824835 
L 1028.733964 464.824835 
" clip-path="url(#pde6ba91c9e)" style="fill: none; stroke: #454545; stroke-width: 1.5; stroke-linecap: round"/>
   </g>
   <g id="line2d_125">
    <path d="M 1041.793179 388.7042 
L 1094.030036 388.7042 
" clip-path="url(#pde6ba91c9e)" style="fill: none; stroke: #454545; stroke-width: 1.5; stroke-linecap: round"/>
   </g>
   <g id="line2d_126">
    <path d="M 1107.08925 444.439892 
L 1159.326107 444.439892 
" clip-path="url(#pde6ba91c9e)" style="fill: none; stroke: #454545; stroke-width: 1.5; stroke-linecap: round"/>
   </g>
   <g id="line2d_127">
    <path d="M 1172.385321 361.110119 
L 1224.622179 361.110119 
" clip-path="url(#pde6ba91c9e)" style="fill: none; stroke: #454545; stroke-width: 1.5; stroke-linecap: round"/>
   </g>
   <g id="line2d_128">
    <path d="M 1237.681393 454.646403 
L 1289.91825 454.646403 
" clip-path="url(#pde6ba91c9e)" style="fill: none; stroke: #454545; stroke-width: 1.5; stroke-linecap: round"/>
   </g>
   <g id="line2d_129">
    <path d="M 1302.977464 485.1817 
L 1355.214321 485.1817 
" clip-path="url(#pde6ba91c9e)" style="fill: none; stroke: #454545; stroke-width: 1.5; stroke-linecap: round"/>
   </g>
   <g id="line2d_130">
    <path d="M 1368.273536 461.237815 
L 1420.510393 461.237815 
" clip-path="url(#pde6ba91c9e)" style="fill: none; stroke: #454545; stroke-width: 1.5; stroke-linecap: round"/>
   </g>
   <g id="patch_24">
    <path d="M 55.8225 672.66 
L 55.8225 12.96 
" style="fill: none; stroke: #ffffff; stroke-width: 1.25; stroke-linejoin: miter; stroke-linecap: square"/>
   </g>
   <g id="patch_25">
    <path d="M 55.8225 672.66 
L 1427.04 672.66 
" style="fill: none; stroke: #ffffff; stroke-width: 1.25; stroke-linejoin: miter; stroke-linecap: square"/>
   </g>
  </g>
 </g>
 <defs>
  <clipPath id="pde6ba91c9e">
   <rect x="55.8225" y="12.96" width="1371.2175" height="659.7"/>
  </clipPath>
 </defs>
</svg>
