<?xml version="1.0" encoding="utf-8" standalone="no"?>
<!DOCTYPE svg PUBLIC "-//W3C//DTD SVG 1.1//EN"
  "http://www.w3.org/Graphics/SVG/1.1/DTD/svg11.dtd">
<svg xmlns:xlink="http://www.w3.org/1999/xlink" width="1440pt" height="720pt" viewBox="0 0 1440 720" xmlns="http://www.w3.org/2000/svg" version="1.1">
 <metadata>
  <rdf:RDF xmlns:dc="http://purl.org/dc/elements/1.1/" xmlns:cc="http://creativecommons.org/ns#" xmlns:rdf="http://www.w3.org/1999/02/22-rdf-syntax-ns#">
   <cc:Work>
    <dc:type rdf:resource="http://purl.org/dc/dcmitype/StillImage"/>
    <dc:date>2023-01-10T16:59:27.622537</dc:date>
    <dc:format>image/svg+xml</dc:format>
    <dc:creator>
     <cc:Agent>
      <dc:title>Matplotlib v3.6.2, https://matplotlib.org/</dc:title>
     </cc:Agent>
    </dc:creator>
   </cc:Work>
  </rdf:RDF>
 </metadata>
 <defs>
  <style type="text/css">*{stroke-linejoin: round; stroke-linecap: butt}</style>
 </defs>
 <g id="figure_1">
  <g id="patch_1">
   <path d="M 0 720 
L 1440 720 
L 1440 0 
L 0 0 
z
" style="fill: #ffffff"/>
  </g>
  <g id="axes_1">
   <g id="patch_2">
    <path d="M 55.76625 672.66 
L 1427.04 672.66 
L 1427.04 12.96 
L 55.76625 12.96 
z
" style="fill: #eaeaf2"/>
   </g>
   <g id="matplotlib.axis_1">
    <g id="xtick_1">
     <g id="text_1">
      <!-- RO -->
      <g style="fill: #262626" transform="translate(80.165625 690.033594) scale(0.11 -0.11)">
       <defs>
        <path id="ArialMT-52" d="M 503 0 
L 503 4581 
L 2534 4581 
Q 3147 4581 3465 4457 
Q 3784 4334 3975 4021 
Q 4166 3709 4166 3331 
Q 4166 2844 3850 2509 
Q 3534 2175 2875 2084 
Q 3116 1969 3241 1856 
Q 3506 1613 3744 1247 
L 4541 0 
L 3778 0 
L 3172 953 
Q 2906 1366 2734 1584 
Q 2563 1803 2427 1890 
Q 2291 1978 2150 2013 
Q 2047 2034 1813 2034 
L 1109 2034 
L 1109 0 
L 503 0 
z
M 1109 2559 
L 2413 2559 
Q 2828 2559 3062 2645 
Q 3297 2731 3419 2920 
Q 3541 3109 3541 3331 
Q 3541 3656 3305 3865 
Q 3069 4075 2559 4075 
L 1109 4075 
L 1109 2559 
z
" transform="scale(0.015625)"/>
        <path id="ArialMT-4f" d="M 309 2231 
Q 309 3372 921 4017 
Q 1534 4663 2503 4663 
Q 3138 4663 3647 4359 
Q 4156 4056 4423 3514 
Q 4691 2972 4691 2284 
Q 4691 1588 4409 1038 
Q 4128 488 3612 205 
Q 3097 -78 2500 -78 
Q 1853 -78 1343 234 
Q 834 547 571 1087 
Q 309 1628 309 2231 
z
M 934 2222 
Q 934 1394 1379 917 
Q 1825 441 2497 441 
Q 3181 441 3623 922 
Q 4066 1403 4066 2288 
Q 4066 2847 3877 3264 
Q 3688 3681 3323 3911 
Q 2959 4141 2506 4141 
Q 1863 4141 1398 3698 
Q 934 3256 934 2222 
z
" transform="scale(0.015625)"/>
       </defs>
       <use xlink:href="#ArialMT-52"/>
       <use xlink:href="#ArialMT-4f" x="72.216797"/>
      </g>
     </g>
    </g>
    <g id="xtick_2">
     <g id="text_2">
      <!-- BG -->
      <g style="fill: #262626" transform="translate(145.767734 690.033594) scale(0.11 -0.11)">
       <defs>
        <path id="ArialMT-42" d="M 469 0 
L 469 4581 
L 2188 4581 
Q 2713 4581 3030 4442 
Q 3347 4303 3526 4014 
Q 3706 3725 3706 3409 
Q 3706 3116 3547 2856 
Q 3388 2597 3066 2438 
Q 3481 2316 3704 2022 
Q 3928 1728 3928 1328 
Q 3928 1006 3792 729 
Q 3656 453 3456 303 
Q 3256 153 2954 76 
Q 2653 0 2216 0 
L 469 0 
z
M 1075 2656 
L 2066 2656 
Q 2469 2656 2644 2709 
Q 2875 2778 2992 2937 
Q 3109 3097 3109 3338 
Q 3109 3566 3000 3739 
Q 2891 3913 2687 3977 
Q 2484 4041 1991 4041 
L 1075 4041 
L 1075 2656 
z
M 1075 541 
L 2216 541 
Q 2509 541 2628 563 
Q 2838 600 2978 687 
Q 3119 775 3209 942 
Q 3300 1109 3300 1328 
Q 3300 1584 3169 1773 
Q 3038 1963 2805 2039 
Q 2572 2116 2134 2116 
L 1075 2116 
L 1075 541 
z
" transform="scale(0.015625)"/>
        <path id="ArialMT-47" d="M 2638 1797 
L 2638 2334 
L 4578 2338 
L 4578 638 
Q 4131 281 3656 101 
Q 3181 -78 2681 -78 
Q 2006 -78 1454 211 
Q 903 500 622 1047 
Q 341 1594 341 2269 
Q 341 2938 620 3517 
Q 900 4097 1425 4378 
Q 1950 4659 2634 4659 
Q 3131 4659 3532 4498 
Q 3934 4338 4162 4050 
Q 4391 3763 4509 3300 
L 3963 3150 
Q 3859 3500 3706 3700 
Q 3553 3900 3268 4020 
Q 2984 4141 2638 4141 
Q 2222 4141 1919 4014 
Q 1616 3888 1430 3681 
Q 1244 3475 1141 3228 
Q 966 2803 966 2306 
Q 966 1694 1177 1281 
Q 1388 869 1791 669 
Q 2194 469 2647 469 
Q 3041 469 3416 620 
Q 3791 772 3984 944 
L 3984 1797 
L 2638 1797 
z
" transform="scale(0.015625)"/>
       </defs>
       <use xlink:href="#ArialMT-42"/>
       <use xlink:href="#ArialMT-47" x="66.699219"/>
      </g>
     </g>
    </g>
    <g id="xtick_3">
     <g id="text_3">
      <!-- CZ -->
      <g style="fill: #262626" transform="translate(211.681797 690.033594) scale(0.11 -0.11)">
       <defs>
        <path id="ArialMT-43" d="M 3763 1606 
L 4369 1453 
Q 4178 706 3683 314 
Q 3188 -78 2472 -78 
Q 1731 -78 1267 223 
Q 803 525 561 1097 
Q 319 1669 319 2325 
Q 319 3041 592 3573 
Q 866 4106 1370 4382 
Q 1875 4659 2481 4659 
Q 3169 4659 3637 4309 
Q 4106 3959 4291 3325 
L 3694 3184 
Q 3534 3684 3231 3912 
Q 2928 4141 2469 4141 
Q 1941 4141 1586 3887 
Q 1231 3634 1087 3207 
Q 944 2781 944 2328 
Q 944 1744 1114 1308 
Q 1284 872 1643 656 
Q 2003 441 2422 441 
Q 2931 441 3284 734 
Q 3638 1028 3763 1606 
z
" transform="scale(0.015625)"/>
        <path id="ArialMT-5a" d="M 128 0 
L 128 563 
L 2475 3497 
Q 2725 3809 2950 4041 
L 394 4041 
L 394 4581 
L 3675 4581 
L 3675 4041 
L 1103 863 
L 825 541 
L 3750 541 
L 3750 0 
L 128 0 
z
" transform="scale(0.015625)"/>
       </defs>
       <use xlink:href="#ArialMT-43"/>
       <use xlink:href="#ArialMT-5a" x="72.216797"/>
      </g>
     </g>
    </g>
    <g id="xtick_4">
     <g id="text_4">
      <!-- DE -->
      <g style="fill: #262626" transform="translate(276.671172 690.033594) scale(0.11 -0.11)">
       <defs>
        <path id="ArialMT-44" d="M 494 0 
L 494 4581 
L 2072 4581 
Q 2606 4581 2888 4516 
Q 3281 4425 3559 4188 
Q 3922 3881 4101 3404 
Q 4281 2928 4281 2316 
Q 4281 1794 4159 1391 
Q 4038 988 3847 723 
Q 3656 459 3429 307 
Q 3203 156 2883 78 
Q 2563 0 2147 0 
L 494 0 
z
M 1100 541 
L 2078 541 
Q 2531 541 2789 625 
Q 3047 709 3200 863 
Q 3416 1078 3536 1442 
Q 3656 1806 3656 2325 
Q 3656 3044 3420 3430 
Q 3184 3816 2847 3947 
Q 2603 4041 2063 4041 
L 1100 4041 
L 1100 541 
z
" transform="scale(0.015625)"/>
        <path id="ArialMT-45" d="M 506 0 
L 506 4581 
L 3819 4581 
L 3819 4041 
L 1113 4041 
L 1113 2638 
L 3647 2638 
L 3647 2100 
L 1113 2100 
L 1113 541 
L 3925 541 
L 3925 0 
L 506 0 
z
" transform="scale(0.015625)"/>
       </defs>
       <use xlink:href="#ArialMT-44"/>
       <use xlink:href="#ArialMT-45" x="72.216797"/>
      </g>
     </g>
    </g>
    <g id="xtick_5">
     <g id="text_5">
      <!-- ES -->
      <g style="fill: #262626" transform="translate(342.273281 690.033594) scale(0.11 -0.11)">
       <defs>
        <path id="ArialMT-53" d="M 288 1472 
L 859 1522 
Q 900 1178 1048 958 
Q 1197 738 1509 602 
Q 1822 466 2213 466 
Q 2559 466 2825 569 
Q 3091 672 3220 851 
Q 3350 1031 3350 1244 
Q 3350 1459 3225 1620 
Q 3100 1781 2813 1891 
Q 2628 1963 1997 2114 
Q 1366 2266 1113 2400 
Q 784 2572 623 2826 
Q 463 3081 463 3397 
Q 463 3744 659 4045 
Q 856 4347 1234 4503 
Q 1613 4659 2075 4659 
Q 2584 4659 2973 4495 
Q 3363 4331 3572 4012 
Q 3781 3694 3797 3291 
L 3216 3247 
Q 3169 3681 2898 3903 
Q 2628 4125 2100 4125 
Q 1550 4125 1298 3923 
Q 1047 3722 1047 3438 
Q 1047 3191 1225 3031 
Q 1400 2872 2139 2705 
Q 2878 2538 3153 2413 
Q 3553 2228 3743 1945 
Q 3934 1663 3934 1294 
Q 3934 928 3725 604 
Q 3516 281 3123 101 
Q 2731 -78 2241 -78 
Q 1619 -78 1198 103 
Q 778 284 539 648 
Q 300 1013 288 1472 
z
" transform="scale(0.015625)"/>
       </defs>
       <use xlink:href="#ArialMT-45"/>
       <use xlink:href="#ArialMT-53" x="66.699219"/>
      </g>
     </g>
    </g>
    <g id="xtick_6">
     <g id="text_6">
      <!-- FI -->
      <g style="fill: #262626" transform="translate(410.022109 690.033594) scale(0.11 -0.11)">
       <defs>
        <path id="ArialMT-46" d="M 525 0 
L 525 4581 
L 3616 4581 
L 3616 4041 
L 1131 4041 
L 1131 2622 
L 3281 2622 
L 3281 2081 
L 1131 2081 
L 1131 0 
L 525 0 
z
" transform="scale(0.015625)"/>
        <path id="ArialMT-49" d="M 597 0 
L 597 4581 
L 1203 4581 
L 1203 0 
L 597 0 
z
" transform="scale(0.015625)"/>
       </defs>
       <use xlink:href="#ArialMT-46"/>
       <use xlink:href="#ArialMT-49" x="61.083984"/>
      </g>
     </g>
    </g>
    <g id="xtick_7">
     <g id="text_7">
      <!-- FR -->
      <g style="fill: #262626" transform="translate(472.876797 690.033594) scale(0.11 -0.11)">
       <use xlink:href="#ArialMT-46"/>
       <use xlink:href="#ArialMT-52" x="61.083984"/>
      </g>
     </g>
    </g>
    <g id="xtick_8">
     <g id="text_8">
      <!-- LT -->
      <g style="fill: #262626" transform="translate(539.494688 690.033594) scale(0.11 -0.11)">
       <defs>
        <path id="ArialMT-4c" d="M 469 0 
L 469 4581 
L 1075 4581 
L 1075 541 
L 3331 541 
L 3331 0 
L 469 0 
z
" transform="scale(0.015625)"/>
        <path id="ArialMT-54" d="M 1659 0 
L 1659 4041 
L 150 4041 
L 150 4581 
L 3781 4581 
L 3781 4041 
L 2266 4041 
L 2266 0 
L 1659 0 
z
" transform="scale(0.015625)"/>
       </defs>
       <use xlink:href="#ArialMT-4c"/>
       <use xlink:href="#ArialMT-54" x="48.240234"/>
      </g>
     </g>
    </g>
    <g id="xtick_9">
     <g id="text_9">
      <!-- LV -->
      <g style="fill: #262626" transform="translate(604.484062 690.033594) scale(0.11 -0.11)">
       <defs>
        <path id="ArialMT-56" d="M 1803 0 
L 28 4581 
L 684 4581 
L 1875 1253 
Q 2019 853 2116 503 
Q 2222 878 2363 1253 
L 3600 4581 
L 4219 4581 
L 2425 0 
L 1803 0 
z
" transform="scale(0.015625)"/>
       </defs>
       <use xlink:href="#ArialMT-4c"/>
       <use xlink:href="#ArialMT-56" x="48.240234"/>
      </g>
     </g>
    </g>
    <g id="xtick_10">
     <g id="text_10">
      <!-- PL -->
      <g style="fill: #262626" transform="translate(669.377187 690.033594) scale(0.11 -0.11)">
       <defs>
        <path id="ArialMT-50" d="M 494 0 
L 494 4581 
L 2222 4581 
Q 2678 4581 2919 4538 
Q 3256 4481 3484 4323 
Q 3713 4166 3852 3881 
Q 3991 3597 3991 3256 
Q 3991 2672 3619 2267 
Q 3247 1863 2275 1863 
L 1100 1863 
L 1100 0 
L 494 0 
z
M 1100 2403 
L 2284 2403 
Q 2872 2403 3119 2622 
Q 3366 2841 3366 3238 
Q 3366 3525 3220 3729 
Q 3075 3934 2838 4000 
Q 2684 4041 2272 4041 
L 1100 4041 
L 1100 2403 
z
" transform="scale(0.015625)"/>
       </defs>
       <use xlink:href="#ArialMT-50"/>
       <use xlink:href="#ArialMT-4c" x="66.699219"/>
      </g>
     </g>
    </g>
    <g id="xtick_11">
     <g id="text_11">
      <!-- SK -->
      <g style="fill: #262626" transform="translate(734.065781 690.033594) scale(0.11 -0.11)">
       <defs>
        <path id="ArialMT-4b" d="M 469 0 
L 469 4581 
L 1075 4581 
L 1075 2309 
L 3350 4581 
L 4172 4581 
L 2250 2725 
L 4256 0 
L 3456 0 
L 1825 2319 
L 1075 1588 
L 1075 0 
L 469 0 
z
" transform="scale(0.015625)"/>
       </defs>
       <use xlink:href="#ArialMT-53"/>
       <use xlink:href="#ArialMT-4b" x="66.699219"/>
      </g>
     </g>
    </g>
    <g id="xtick_12">
     <g id="text_12">
      <!-- EL -->
      <g style="fill: #262626" transform="translate(799.974687 690.033594) scale(0.11 -0.11)">
       <use xlink:href="#ArialMT-45"/>
       <use xlink:href="#ArialMT-4c" x="66.699219"/>
      </g>
     </g>
    </g>
    <g id="xtick_13">
     <g id="text_13">
      <!-- IT -->
      <g style="fill: #262626" transform="translate(867.113359 690.033594) scale(0.11 -0.11)">
       <use xlink:href="#ArialMT-49"/>
       <use xlink:href="#ArialMT-54" x="27.783203"/>
      </g>
     </g>
    </g>
    <g id="xtick_14">
     <g id="text_14">
      <!-- AT -->
      <g style="fill: #262626" transform="translate(930.677031 690.033594) scale(0.11 -0.11)">
       <defs>
        <path id="ArialMT-41" d="M -9 0 
L 1750 4581 
L 2403 4581 
L 4278 0 
L 3588 0 
L 3053 1388 
L 1138 1388 
L 634 0 
L -9 0 
z
M 1313 1881 
L 2866 1881 
L 2388 3150 
Q 2169 3728 2063 4100 
Q 1975 3659 1816 3225 
L 1313 1881 
z
" transform="scale(0.015625)"/>
       </defs>
       <use xlink:href="#ArialMT-41"/>
       <use xlink:href="#ArialMT-54" x="59.324219"/>
      </g>
     </g>
    </g>
    <g id="xtick_15">
     <g id="text_15">
      <!-- PT -->
      <g style="fill: #262626" transform="translate(995.570156 690.033594) scale(0.11 -0.11)">
       <use xlink:href="#ArialMT-50"/>
       <use xlink:href="#ArialMT-54" x="66.699219"/>
      </g>
     </g>
    </g>
    <g id="xtick_16">
     <g id="text_16">
      <!-- BE -->
      <g style="fill: #262626" transform="translate(1060.559531 690.033594) scale(0.11 -0.11)">
       <use xlink:href="#ArialMT-42"/>
       <use xlink:href="#ArialMT-45" x="66.699219"/>
      </g>
     </g>
    </g>
    <g id="xtick_17">
     <g id="text_17">
      <!-- HU -->
      <g style="fill: #262626" transform="translate(1125.251563 690.033594) scale(0.11 -0.11)">
       <defs>
        <path id="ArialMT-48" d="M 513 0 
L 513 4581 
L 1119 4581 
L 1119 2700 
L 3500 2700 
L 3500 4581 
L 4106 4581 
L 4106 0 
L 3500 0 
L 3500 2159 
L 1119 2159 
L 1119 0 
L 513 0 
z
" transform="scale(0.015625)"/>
        <path id="ArialMT-55" d="M 3500 4581 
L 4106 4581 
L 4106 1934 
Q 4106 1244 3950 837 
Q 3794 431 3386 176 
Q 2978 -78 2316 -78 
Q 1672 -78 1262 144 
Q 853 366 678 786 
Q 503 1206 503 1934 
L 503 4581 
L 1109 4581 
L 1109 1938 
Q 1109 1341 1220 1058 
Q 1331 775 1601 622 
Q 1872 469 2263 469 
Q 2931 469 3215 772 
Q 3500 1075 3500 1938 
L 3500 4581 
z
" transform="scale(0.015625)"/>
       </defs>
       <use xlink:href="#ArialMT-48"/>
       <use xlink:href="#ArialMT-55" x="72.216797"/>
      </g>
     </g>
    </g>
    <g id="xtick_18">
     <g id="text_18">
      <!-- NL -->
      <g style="fill: #262626" transform="translate(1191.463828 690.033594) scale(0.11 -0.11)">
       <defs>
        <path id="ArialMT-4e" d="M 488 0 
L 488 4581 
L 1109 4581 
L 3516 984 
L 3516 4581 
L 4097 4581 
L 4097 0 
L 3475 0 
L 1069 3600 
L 1069 0 
L 488 0 
z
" transform="scale(0.015625)"/>
       </defs>
       <use xlink:href="#ArialMT-4e"/>
       <use xlink:href="#ArialMT-4c" x="72.216797"/>
      </g>
     </g>
    </g>
    <g id="xtick_19">
     <g id="text_19">
      <!-- IE -->
      <g style="fill: #262626" transform="translate(1258.596484 690.033594) scale(0.11 -0.11)">
       <use xlink:href="#ArialMT-49"/>
       <use xlink:href="#ArialMT-45" x="27.783203"/>
      </g>
     </g>
    </g>
    <g id="xtick_20">
     <g id="text_20">
      <!-- UK -->
      <g style="fill: #262626" transform="translate(1321.451172 690.033594) scale(0.11 -0.11)">
       <use xlink:href="#ArialMT-55"/>
       <use xlink:href="#ArialMT-4b" x="72.216797"/>
      </g>
     </g>
    </g>
    <g id="xtick_21">
     <g id="text_21">
      <!-- CY -->
      <g style="fill: #262626" transform="translate(1386.749922 690.033594) scale(0.11 -0.11)">
       <defs>
        <path id="ArialMT-59" d="M 1784 0 
L 1784 1941 
L 19 4581 
L 756 4581 
L 1659 3200 
Q 1909 2813 2125 2425 
Q 2331 2784 2625 3234 
L 3513 4581 
L 4219 4581 
L 2391 1941 
L 2391 0 
L 1784 0 
z
" transform="scale(0.015625)"/>
       </defs>
       <use xlink:href="#ArialMT-43"/>
       <use xlink:href="#ArialMT-59" x="72.216797"/>
      </g>
     </g>
    </g>
    <g id="text_22">
     <!-- memberStateCode -->
     <g style="fill: #262626" transform="translate(691.048125 704.809219) scale(0.12 -0.12)">
      <defs>
       <path id="ArialMT-6d" d="M 422 0 
L 422 3319 
L 925 3319 
L 925 2853 
Q 1081 3097 1340 3245 
Q 1600 3394 1931 3394 
Q 2300 3394 2536 3241 
Q 2772 3088 2869 2813 
Q 3263 3394 3894 3394 
Q 4388 3394 4653 3120 
Q 4919 2847 4919 2278 
L 4919 0 
L 4359 0 
L 4359 2091 
Q 4359 2428 4304 2576 
Q 4250 2725 4106 2815 
Q 3963 2906 3769 2906 
Q 3419 2906 3187 2673 
Q 2956 2441 2956 1928 
L 2956 0 
L 2394 0 
L 2394 2156 
Q 2394 2531 2256 2718 
Q 2119 2906 1806 2906 
Q 1569 2906 1367 2781 
Q 1166 2656 1075 2415 
Q 984 2175 984 1722 
L 984 0 
L 422 0 
z
" transform="scale(0.015625)"/>
       <path id="ArialMT-65" d="M 2694 1069 
L 3275 997 
Q 3138 488 2766 206 
Q 2394 -75 1816 -75 
Q 1088 -75 661 373 
Q 234 822 234 1631 
Q 234 2469 665 2931 
Q 1097 3394 1784 3394 
Q 2450 3394 2872 2941 
Q 3294 2488 3294 1666 
Q 3294 1616 3291 1516 
L 816 1516 
Q 847 969 1125 678 
Q 1403 388 1819 388 
Q 2128 388 2347 550 
Q 2566 713 2694 1069 
z
M 847 1978 
L 2700 1978 
Q 2663 2397 2488 2606 
Q 2219 2931 1791 2931 
Q 1403 2931 1139 2672 
Q 875 2413 847 1978 
z
" transform="scale(0.015625)"/>
       <path id="ArialMT-62" d="M 941 0 
L 419 0 
L 419 4581 
L 981 4581 
L 981 2947 
Q 1338 3394 1891 3394 
Q 2197 3394 2470 3270 
Q 2744 3147 2920 2923 
Q 3097 2700 3197 2384 
Q 3297 2069 3297 1709 
Q 3297 856 2875 390 
Q 2453 -75 1863 -75 
Q 1275 -75 941 416 
L 941 0 
z
M 934 1684 
Q 934 1088 1097 822 
Q 1363 388 1816 388 
Q 2184 388 2453 708 
Q 2722 1028 2722 1663 
Q 2722 2313 2464 2622 
Q 2206 2931 1841 2931 
Q 1472 2931 1203 2611 
Q 934 2291 934 1684 
z
" transform="scale(0.015625)"/>
       <path id="ArialMT-72" d="M 416 0 
L 416 3319 
L 922 3319 
L 922 2816 
Q 1116 3169 1280 3281 
Q 1444 3394 1641 3394 
Q 1925 3394 2219 3213 
L 2025 2691 
Q 1819 2813 1613 2813 
Q 1428 2813 1281 2702 
Q 1134 2591 1072 2394 
Q 978 2094 978 1738 
L 978 0 
L 416 0 
z
" transform="scale(0.015625)"/>
       <path id="ArialMT-74" d="M 1650 503 
L 1731 6 
Q 1494 -44 1306 -44 
Q 1000 -44 831 53 
Q 663 150 594 308 
Q 525 466 525 972 
L 525 2881 
L 113 2881 
L 113 3319 
L 525 3319 
L 525 4141 
L 1084 4478 
L 1084 3319 
L 1650 3319 
L 1650 2881 
L 1084 2881 
L 1084 941 
Q 1084 700 1114 631 
Q 1144 563 1211 522 
Q 1278 481 1403 481 
Q 1497 481 1650 503 
z
" transform="scale(0.015625)"/>
       <path id="ArialMT-61" d="M 2588 409 
Q 2275 144 1986 34 
Q 1697 -75 1366 -75 
Q 819 -75 525 192 
Q 231 459 231 875 
Q 231 1119 342 1320 
Q 453 1522 633 1644 
Q 813 1766 1038 1828 
Q 1203 1872 1538 1913 
Q 2219 1994 2541 2106 
Q 2544 2222 2544 2253 
Q 2544 2597 2384 2738 
Q 2169 2928 1744 2928 
Q 1347 2928 1158 2789 
Q 969 2650 878 2297 
L 328 2372 
Q 403 2725 575 2942 
Q 747 3159 1072 3276 
Q 1397 3394 1825 3394 
Q 2250 3394 2515 3294 
Q 2781 3194 2906 3042 
Q 3031 2891 3081 2659 
Q 3109 2516 3109 2141 
L 3109 1391 
Q 3109 606 3145 398 
Q 3181 191 3288 0 
L 2700 0 
Q 2613 175 2588 409 
z
M 2541 1666 
Q 2234 1541 1622 1453 
Q 1275 1403 1131 1340 
Q 988 1278 909 1158 
Q 831 1038 831 891 
Q 831 666 1001 516 
Q 1172 366 1500 366 
Q 1825 366 2078 508 
Q 2331 650 2450 897 
Q 2541 1088 2541 1459 
L 2541 1666 
z
" transform="scale(0.015625)"/>
       <path id="ArialMT-6f" d="M 213 1659 
Q 213 2581 725 3025 
Q 1153 3394 1769 3394 
Q 2453 3394 2887 2945 
Q 3322 2497 3322 1706 
Q 3322 1066 3130 698 
Q 2938 331 2570 128 
Q 2203 -75 1769 -75 
Q 1072 -75 642 372 
Q 213 819 213 1659 
z
M 791 1659 
Q 791 1022 1069 705 
Q 1347 388 1769 388 
Q 2188 388 2466 706 
Q 2744 1025 2744 1678 
Q 2744 2294 2464 2611 
Q 2184 2928 1769 2928 
Q 1347 2928 1069 2612 
Q 791 2297 791 1659 
z
" transform="scale(0.015625)"/>
       <path id="ArialMT-64" d="M 2575 0 
L 2575 419 
Q 2259 -75 1647 -75 
Q 1250 -75 917 144 
Q 584 363 401 755 
Q 219 1147 219 1656 
Q 219 2153 384 2558 
Q 550 2963 881 3178 
Q 1213 3394 1622 3394 
Q 1922 3394 2156 3267 
Q 2391 3141 2538 2938 
L 2538 4581 
L 3097 4581 
L 3097 0 
L 2575 0 
z
M 797 1656 
Q 797 1019 1065 703 
Q 1334 388 1700 388 
Q 2069 388 2326 689 
Q 2584 991 2584 1609 
Q 2584 2291 2321 2609 
Q 2059 2928 1675 2928 
Q 1300 2928 1048 2622 
Q 797 2316 797 1656 
z
" transform="scale(0.015625)"/>
      </defs>
      <use xlink:href="#ArialMT-6d"/>
      <use xlink:href="#ArialMT-65" x="83.300781"/>
      <use xlink:href="#ArialMT-6d" x="138.916016"/>
      <use xlink:href="#ArialMT-62" x="222.216797"/>
      <use xlink:href="#ArialMT-65" x="277.832031"/>
      <use xlink:href="#ArialMT-72" x="333.447266"/>
      <use xlink:href="#ArialMT-53" x="366.748047"/>
      <use xlink:href="#ArialMT-74" x="433.447266"/>
      <use xlink:href="#ArialMT-61" x="461.230469"/>
      <use xlink:href="#ArialMT-74" x="516.845703"/>
      <use xlink:href="#ArialMT-65" x="544.628906"/>
      <use xlink:href="#ArialMT-43" x="600.244141"/>
      <use xlink:href="#ArialMT-6f" x="672.460938"/>
      <use xlink:href="#ArialMT-64" x="728.076172"/>
      <use xlink:href="#ArialMT-65" x="783.691406"/>
     </g>
    </g>
   </g>
   <g id="matplotlib.axis_2">
    <g id="ytick_1">
     <g id="line2d_1">
      <path d="M 55.76625 597.438733 
L 1427.04 597.438733 
" clip-path="url(#p89e22453c3)" style="fill: none; stroke: #ffffff; stroke-linecap: round"/>
     </g>
     <g id="text_23">
      <!-- 100 -->
      <g style="fill: #262626" transform="translate(27.915156 601.375529) scale(0.11 -0.11)">
       <defs>
        <path id="ArialMT-31" d="M 2384 0 
L 1822 0 
L 1822 3584 
Q 1619 3391 1289 3197 
Q 959 3003 697 2906 
L 697 3450 
Q 1169 3672 1522 3987 
Q 1875 4303 2022 4600 
L 2384 4600 
L 2384 0 
z
" transform="scale(0.015625)"/>
        <path id="ArialMT-30" d="M 266 2259 
Q 266 3072 433 3567 
Q 600 4063 929 4331 
Q 1259 4600 1759 4600 
Q 2128 4600 2406 4451 
Q 2684 4303 2865 4023 
Q 3047 3744 3150 3342 
Q 3253 2941 3253 2259 
Q 3253 1453 3087 958 
Q 2922 463 2592 192 
Q 2263 -78 1759 -78 
Q 1097 -78 719 397 
Q 266 969 266 2259 
z
M 844 2259 
Q 844 1131 1108 757 
Q 1372 384 1759 384 
Q 2147 384 2411 759 
Q 2675 1134 2675 2259 
Q 2675 3391 2411 3762 
Q 2147 4134 1753 4134 
Q 1366 4134 1134 3806 
Q 844 3388 844 2259 
z
" transform="scale(0.015625)"/>
       </defs>
       <use xlink:href="#ArialMT-31"/>
       <use xlink:href="#ArialMT-30" x="55.615234"/>
       <use xlink:href="#ArialMT-30" x="111.230469"/>
      </g>
     </g>
    </g>
    <g id="ytick_2">
     <g id="line2d_2">
      <path d="M 55.76625 464.785056 
L 1427.04 464.785056 
" clip-path="url(#p89e22453c3)" style="fill: none; stroke: #ffffff; stroke-linecap: round"/>
     </g>
     <g id="text_24">
      <!-- 150 -->
      <g style="fill: #262626" transform="translate(27.915156 468.721853) scale(0.11 -0.11)">
       <defs>
        <path id="ArialMT-35" d="M 266 1200 
L 856 1250 
Q 922 819 1161 601 
Q 1400 384 1738 384 
Q 2144 384 2425 690 
Q 2706 997 2706 1503 
Q 2706 1984 2436 2262 
Q 2166 2541 1728 2541 
Q 1456 2541 1237 2417 
Q 1019 2294 894 2097 
L 366 2166 
L 809 4519 
L 3088 4519 
L 3088 3981 
L 1259 3981 
L 1013 2750 
Q 1425 3038 1878 3038 
Q 2478 3038 2890 2622 
Q 3303 2206 3303 1553 
Q 3303 931 2941 478 
Q 2500 -78 1738 -78 
Q 1113 -78 717 272 
Q 322 622 266 1200 
z
" transform="scale(0.015625)"/>
       </defs>
       <use xlink:href="#ArialMT-31"/>
       <use xlink:href="#ArialMT-35" x="55.615234"/>
       <use xlink:href="#ArialMT-30" x="111.230469"/>
      </g>
     </g>
    </g>
    <g id="ytick_3">
     <g id="line2d_3">
      <path d="M 55.76625 332.131379 
L 1427.04 332.131379 
" clip-path="url(#p89e22453c3)" style="fill: none; stroke: #ffffff; stroke-linecap: round"/>
     </g>
     <g id="text_25">
      <!-- 200 -->
      <g style="fill: #262626" transform="translate(27.915156 336.068176) scale(0.11 -0.11)">
       <defs>
        <path id="ArialMT-32" d="M 3222 541 
L 3222 0 
L 194 0 
Q 188 203 259 391 
Q 375 700 629 1000 
Q 884 1300 1366 1694 
Q 2113 2306 2375 2664 
Q 2638 3022 2638 3341 
Q 2638 3675 2398 3904 
Q 2159 4134 1775 4134 
Q 1369 4134 1125 3890 
Q 881 3647 878 3216 
L 300 3275 
Q 359 3922 746 4261 
Q 1134 4600 1788 4600 
Q 2447 4600 2831 4234 
Q 3216 3869 3216 3328 
Q 3216 3053 3103 2787 
Q 2991 2522 2730 2228 
Q 2469 1934 1863 1422 
Q 1356 997 1212 845 
Q 1069 694 975 541 
L 3222 541 
z
" transform="scale(0.015625)"/>
       </defs>
       <use xlink:href="#ArialMT-32"/>
       <use xlink:href="#ArialMT-30" x="55.615234"/>
       <use xlink:href="#ArialMT-30" x="111.230469"/>
      </g>
     </g>
    </g>
    <g id="ytick_4">
     <g id="line2d_4">
      <path d="M 55.76625 199.477702 
L 1427.04 199.477702 
" clip-path="url(#p89e22453c3)" style="fill: none; stroke: #ffffff; stroke-linecap: round"/>
     </g>
     <g id="text_26">
      <!-- 250 -->
      <g style="fill: #262626" transform="translate(27.915156 203.414499) scale(0.11 -0.11)">
       <use xlink:href="#ArialMT-32"/>
       <use xlink:href="#ArialMT-35" x="55.615234"/>
       <use xlink:href="#ArialMT-30" x="111.230469"/>
      </g>
     </g>
    </g>
    <g id="ytick_5">
     <g id="line2d_5">
      <path d="M 55.76625 66.824025 
L 1427.04 66.824025 
" clip-path="url(#p89e22453c3)" style="fill: none; stroke: #ffffff; stroke-linecap: round"/>
     </g>
     <g id="text_27">
      <!-- 300 -->
      <g style="fill: #262626" transform="translate(27.915156 70.760822) scale(0.11 -0.11)">
       <defs>
        <path id="ArialMT-33" d="M 269 1209 
L 831 1284 
Q 928 806 1161 595 
Q 1394 384 1728 384 
Q 2125 384 2398 659 
Q 2672 934 2672 1341 
Q 2672 1728 2419 1979 
Q 2166 2231 1775 2231 
Q 1616 2231 1378 2169 
L 1441 2663 
Q 1497 2656 1531 2656 
Q 1891 2656 2178 2843 
Q 2466 3031 2466 3422 
Q 2466 3731 2256 3934 
Q 2047 4138 1716 4138 
Q 1388 4138 1169 3931 
Q 950 3725 888 3313 
L 325 3413 
Q 428 3978 793 4289 
Q 1159 4600 1703 4600 
Q 2078 4600 2393 4439 
Q 2709 4278 2876 4000 
Q 3044 3722 3044 3409 
Q 3044 3113 2884 2869 
Q 2725 2625 2413 2481 
Q 2819 2388 3044 2092 
Q 3269 1797 3269 1353 
Q 3269 753 2831 336 
Q 2394 -81 1725 -81 
Q 1122 -81 723 278 
Q 325 638 269 1209 
z
" transform="scale(0.015625)"/>
       </defs>
       <use xlink:href="#ArialMT-33"/>
       <use xlink:href="#ArialMT-30" x="55.615234"/>
       <use xlink:href="#ArialMT-30" x="111.230469"/>
      </g>
     </g>
    </g>
    <g id="text_28">
     <!-- barley_price -->
     <g style="fill: #262626" transform="translate(21.389531 375.49125) rotate(-90) scale(0.12 -0.12)">
      <defs>
       <path id="ArialMT-6c" d="M 409 0 
L 409 4581 
L 972 4581 
L 972 0 
L 409 0 
z
" transform="scale(0.015625)"/>
       <path id="ArialMT-79" d="M 397 -1278 
L 334 -750 
Q 519 -800 656 -800 
Q 844 -800 956 -737 
Q 1069 -675 1141 -563 
Q 1194 -478 1313 -144 
Q 1328 -97 1363 -6 
L 103 3319 
L 709 3319 
L 1400 1397 
Q 1534 1031 1641 628 
Q 1738 1016 1872 1384 
L 2581 3319 
L 3144 3319 
L 1881 -56 
Q 1678 -603 1566 -809 
Q 1416 -1088 1222 -1217 
Q 1028 -1347 759 -1347 
Q 597 -1347 397 -1278 
z
" transform="scale(0.015625)"/>
       <path id="ArialMT-5f" d="M -97 -1272 
L -97 -866 
L 3631 -866 
L 3631 -1272 
L -97 -1272 
z
" transform="scale(0.015625)"/>
       <path id="ArialMT-70" d="M 422 -1272 
L 422 3319 
L 934 3319 
L 934 2888 
Q 1116 3141 1344 3267 
Q 1572 3394 1897 3394 
Q 2322 3394 2647 3175 
Q 2972 2956 3137 2557 
Q 3303 2159 3303 1684 
Q 3303 1175 3120 767 
Q 2938 359 2589 142 
Q 2241 -75 1856 -75 
Q 1575 -75 1351 44 
Q 1128 163 984 344 
L 984 -1272 
L 422 -1272 
z
M 931 1641 
Q 931 1000 1190 694 
Q 1450 388 1819 388 
Q 2194 388 2461 705 
Q 2728 1022 2728 1688 
Q 2728 2322 2467 2637 
Q 2206 2953 1844 2953 
Q 1484 2953 1207 2617 
Q 931 2281 931 1641 
z
" transform="scale(0.015625)"/>
       <path id="ArialMT-69" d="M 425 3934 
L 425 4581 
L 988 4581 
L 988 3934 
L 425 3934 
z
M 425 0 
L 425 3319 
L 988 3319 
L 988 0 
L 425 0 
z
" transform="scale(0.015625)"/>
       <path id="ArialMT-63" d="M 2588 1216 
L 3141 1144 
Q 3050 572 2676 248 
Q 2303 -75 1759 -75 
Q 1078 -75 664 370 
Q 250 816 250 1647 
Q 250 2184 428 2587 
Q 606 2991 970 3192 
Q 1334 3394 1763 3394 
Q 2303 3394 2647 3120 
Q 2991 2847 3088 2344 
L 2541 2259 
Q 2463 2594 2264 2762 
Q 2066 2931 1784 2931 
Q 1359 2931 1093 2626 
Q 828 2322 828 1663 
Q 828 994 1084 691 
Q 1341 388 1753 388 
Q 2084 388 2306 591 
Q 2528 794 2588 1216 
z
" transform="scale(0.015625)"/>
      </defs>
      <use xlink:href="#ArialMT-62"/>
      <use xlink:href="#ArialMT-61" x="55.615234"/>
      <use xlink:href="#ArialMT-72" x="111.230469"/>
      <use xlink:href="#ArialMT-6c" x="144.53125"/>
      <use xlink:href="#ArialMT-65" x="166.748047"/>
      <use xlink:href="#ArialMT-79" x="222.363281"/>
      <use xlink:href="#ArialMT-5f" x="272.363281"/>
      <use xlink:href="#ArialMT-70" x="327.978516"/>
      <use xlink:href="#ArialMT-72" x="383.59375"/>
      <use xlink:href="#ArialMT-69" x="416.894531"/>
      <use xlink:href="#ArialMT-63" x="439.111328"/>
      <use xlink:href="#ArialMT-65" x="489.111328"/>
     </g>
    </g>
   </g>
   <g id="patch_3">
    <path d="M 62.296125 512.135786 
L 114.535125 512.135786 
L 114.535125 391.216985 
L 62.296125 391.216985 
L 62.296125 512.135786 
z
" clip-path="url(#p89e22453c3)" style="fill: #ea96a3; stroke: #454545; stroke-width: 1.5; stroke-linejoin: miter"/>
   </g>
   <g id="patch_4">
    <path d="M 127.594875 564.301844 
L 179.833875 564.301844 
L 179.833875 394.743914 
L 127.594875 394.743914 
L 127.594875 564.301844 
z
" clip-path="url(#p89e22453c3)" style="fill: #e89685; stroke: #454545; stroke-width: 1.5; stroke-linejoin: miter"/>
   </g>
   <g id="patch_5">
    <path d="M 192.893625 512.440889 
L 245.132625 512.440889 
L 245.132625 447.947988 
L 192.893625 447.947988 
L 192.893625 512.440889 
z
" clip-path="url(#p89e22453c3)" style="fill: #da934e; stroke: #454545; stroke-width: 1.5; stroke-linejoin: miter"/>
   </g>
   <g id="patch_6">
    <path d="M 258.192375 451.519688 
L 310.431375 451.519688 
L 310.431375 382.539776 
L 258.192375 382.539776 
L 258.192375 451.519688 
z
" clip-path="url(#p89e22453c3)" style="fill: #c29a4b; stroke: #454545; stroke-width: 1.5; stroke-linejoin: miter"/>
   </g>
   <g id="patch_7">
    <path d="M 323.491125 423.131801 
L 375.730125 423.131801 
L 375.730125 379.886703 
L 323.491125 379.886703 
L 323.491125 423.131801 
z
" clip-path="url(#p89e22453c3)" style="fill: #af9d48; stroke: #454545; stroke-width: 1.5; stroke-linejoin: miter"/>
   </g>
   <g id="patch_8">
    <path d="M 388.789875 525.805747 
L 441.028875 525.805747 
L 441.028875 483.091263 
L 388.789875 483.091263 
L 388.789875 525.805747 
z
" clip-path="url(#p89e22453c3)" style="fill: #9ca145; stroke: #454545; stroke-width: 1.5; stroke-linejoin: miter"/>
   </g>
   <g id="patch_9">
    <path d="M 454.088625 461.256468 
L 506.327625 461.256468 
L 506.327625 369.579512 
L 454.088625 369.579512 
L 454.088625 461.256468 
z
" clip-path="url(#p89e22453c3)" style="fill: #88a746; stroke: #454545; stroke-width: 1.5; stroke-linejoin: miter"/>
   </g>
   <g id="patch_10">
    <path d="M 519.387375 519.730209 
L 571.626375 519.730209 
L 571.626375 412.386853 
L 519.387375 412.386853 
L 519.387375 519.730209 
z
" clip-path="url(#p89e22453c3)" style="fill: #60ae47; stroke: #454545; stroke-width: 1.5; stroke-linejoin: miter"/>
   </g>
   <g id="patch_11">
    <path d="M 584.686125 499.168889 
L 636.925125 499.168889 
L 636.925125 431.794086 
L 584.686125 431.794086 
L 584.686125 499.168889 
z
" clip-path="url(#p89e22453c3)" style="fill: #49af77; stroke: #454545; stroke-width: 1.5; stroke-linejoin: miter"/>
   </g>
   <g id="patch_12">
    <path d="M 649.984875 488.105572 
L 702.223875 488.105572 
L 702.223875 394.531669 
L 649.984875 394.531669 
L 649.984875 488.105572 
z
" clip-path="url(#p89e22453c3)" style="fill: #4aad8f; stroke: #454545; stroke-width: 1.5; stroke-linejoin: miter"/>
   </g>
   <g id="patch_13">
    <path d="M 715.283625 545.458389 
L 767.522625 545.458389 
L 767.522625 492.025488 
L 715.283625 492.025488 
L 715.283625 545.458389 
z
" clip-path="url(#p89e22453c3)" style="fill: #4bac9e; stroke: #454545; stroke-width: 1.5; stroke-linejoin: miter"/>
   </g>
   <g id="patch_14">
    <path d="M 780.582375 415.039927 
L 832.821375 415.039927 
L 832.821375 385.19285 
L 780.582375 385.19285 
L 780.582375 415.039927 
z
" clip-path="url(#p89e22453c3)" style="fill: #4babaa; stroke: #454545; stroke-width: 1.5; stroke-linejoin: miter"/>
   </g>
   <g id="patch_15">
    <path d="M 845.881125 413.050122 
L 898.120125 413.050122 
L 898.120125 350.702894 
L 845.881125 350.702894 
L 845.881125 413.050122 
z
" clip-path="url(#p89e22453c3)" style="fill: #4eabb8; stroke: #454545; stroke-width: 1.5; stroke-linejoin: miter"/>
   </g>
   <g id="patch_16">
    <path d="M 911.179875 512.208745 
L 963.418875 512.208745 
L 963.418875 399.45312 
L 911.179875 399.45312 
L 911.179875 512.208745 
z
" clip-path="url(#p89e22453c3)" style="fill: #52acca; stroke: #454545; stroke-width: 1.5; stroke-linejoin: miter"/>
   </g>
   <g id="patch_17">
    <path d="M 976.478625 401.111291 
L 1028.717625 401.111291 
L 1028.717625 328.151769 
L 976.478625 328.151769 
L 976.478625 401.111291 
z
" clip-path="url(#p89e22453c3)" style="fill: #6daee2; stroke: #454545; stroke-width: 1.5; stroke-linejoin: miter"/>
   </g>
   <g id="patch_18">
    <path d="M 1041.777375 468.764666 
L 1094.016375 468.764666 
L 1094.016375 390.498997 
L 1041.777375 390.498997 
L 1041.777375 468.764666 
z
" clip-path="url(#p89e22453c3)" style="fill: #a0adea; stroke: #454545; stroke-width: 1.5; stroke-linejoin: miter"/>
   </g>
   <g id="patch_19">
    <path d="M 1107.076125 511.266904 
L 1159.315125 511.266904 
L 1159.315125 426.872635 
L 1107.076125 426.872635 
L 1107.076125 511.266904 
z
" clip-path="url(#p89e22453c3)" style="fill: #bca5ea; stroke: #454545; stroke-width: 1.5; stroke-linejoin: miter"/>
   </g>
   <g id="patch_20">
    <path d="M 1172.374875 434.937979 
L 1224.613875 434.937979 
L 1224.613875 369.274409 
L 1172.374875 369.274409 
L 1172.374875 434.937979 
z
" clip-path="url(#p89e22453c3)" style="fill: #d398e8; stroke: #454545; stroke-width: 1.5; stroke-linejoin: miter"/>
   </g>
   <g id="patch_21">
    <path d="M 1237.673625 432.948173 
L 1289.912625 432.948173 
L 1289.912625 341.417136 
L 1237.673625 341.417136 
L 1237.673625 432.948173 
z
" clip-path="url(#p89e22453c3)" style="fill: #e78ae0; stroke: #454545; stroke-width: 1.5; stroke-linejoin: miter"/>
   </g>
   <g id="patch_22">
    <path d="M 1302.972375 513.946508 
L 1355.211375 513.946508 
L 1355.211375 459.293194 
L 1302.972375 459.293194 
L 1302.972375 513.946508 
z
" clip-path="url(#p89e22453c3)" style="fill: #e88fca; stroke: #454545; stroke-width: 1.5; stroke-linejoin: miter"/>
   </g>
   <g id="patch_23">
    <path d="M 1368.271125 257.84532 
L 1420.510125 257.84532 
L 1420.510125 257.84532 
L 1368.271125 257.84532 
L 1368.271125 257.84532 
z
" clip-path="url(#p89e22453c3)" style="fill: #e993b8; stroke: #454545; stroke-width: 1.5; stroke-linejoin: miter"/>
   </g>
   <g id="line2d_6">
    <path d="M 88.415625 512.135786 
L 88.415625 642.673636 
" clip-path="url(#p89e22453c3)" style="fill: none; stroke: #454545; stroke-width: 1.5; stroke-linecap: round"/>
   </g>
   <g id="line2d_7">
    <path d="M 88.415625 391.216985 
L 88.415625 211.496125 
" clip-path="url(#p89e22453c3)" style="fill: none; stroke: #454545; stroke-width: 1.5; stroke-linecap: round"/>
   </g>
   <g id="line2d_8">
    <path d="M 75.355875 642.673636 
L 101.475375 642.673636 
" clip-path="url(#p89e22453c3)" style="fill: none; stroke: #454545; stroke-width: 1.5; stroke-linecap: round"/>
   </g>
   <g id="line2d_9">
    <path d="M 75.355875 211.496125 
L 101.475375 211.496125 
" clip-path="url(#p89e22453c3)" style="fill: none; stroke: #454545; stroke-width: 1.5; stroke-linecap: round"/>
   </g>
   <g id="line2d_10">
    <defs>
     <path id="m2bff48eb86" d="M 0 3.535534 
L 2.12132 0 
L 0 -3.535534 
L -2.12132 0 
z
" style="stroke: #454545; stroke-linejoin: miter"/>
    </defs>
    <g clip-path="url(#p89e22453c3)">
     <use xlink:href="#m2bff48eb86" x="88.415625" y="185.044982" style="fill: #454545; stroke: #454545; stroke-linejoin: miter"/>
    </g>
   </g>
   <g id="line2d_11">
    <path d="M 153.714375 564.301844 
L 153.714375 628.081732 
" clip-path="url(#p89e22453c3)" style="fill: none; stroke: #454545; stroke-width: 1.5; stroke-linecap: round"/>
   </g>
   <g id="line2d_12">
    <path d="M 153.714375 394.743914 
L 153.714375 313.347618 
" clip-path="url(#p89e22453c3)" style="fill: none; stroke: #454545; stroke-width: 1.5; stroke-linecap: round"/>
   </g>
   <g id="line2d_13">
    <path d="M 140.654625 628.081732 
L 166.774125 628.081732 
" clip-path="url(#p89e22453c3)" style="fill: none; stroke: #454545; stroke-width: 1.5; stroke-linecap: round"/>
   </g>
   <g id="line2d_14">
    <path d="M 140.654625 313.347618 
L 166.774125 313.347618 
" clip-path="url(#p89e22453c3)" style="fill: none; stroke: #454545; stroke-width: 1.5; stroke-linecap: round"/>
   </g>
   <g id="line2d_15"/>
   <g id="line2d_16">
    <path d="M 219.013125 512.440889 
L 219.013125 578.893749 
" clip-path="url(#p89e22453c3)" style="fill: none; stroke: #454545; stroke-width: 1.5; stroke-linecap: round"/>
   </g>
   <g id="line2d_17">
    <path d="M 219.013125 447.947988 
L 219.013125 374.262187 
" clip-path="url(#p89e22453c3)" style="fill: none; stroke: #454545; stroke-width: 1.5; stroke-linecap: round"/>
   </g>
   <g id="line2d_18">
    <path d="M 205.953375 578.893749 
L 232.072875 578.893749 
" clip-path="url(#p89e22453c3)" style="fill: none; stroke: #454545; stroke-width: 1.5; stroke-linecap: round"/>
   </g>
   <g id="line2d_19">
    <path d="M 205.953375 374.262187 
L 232.072875 374.262187 
" clip-path="url(#p89e22453c3)" style="fill: none; stroke: #454545; stroke-width: 1.5; stroke-linecap: round"/>
   </g>
   <g id="line2d_20">
    <g clip-path="url(#p89e22453c3)">
     <use xlink:href="#m2bff48eb86" x="219.013125" y="322.89205" style="fill: #454545; stroke: #454545; stroke-linejoin: miter"/>
    </g>
   </g>
   <g id="line2d_21">
    <path d="M 284.311875 451.519688 
L 284.311875 505.907696 
" clip-path="url(#p89e22453c3)" style="fill: none; stroke: #454545; stroke-width: 1.5; stroke-linecap: round"/>
   </g>
   <g id="line2d_22">
    <path d="M 284.311875 382.539776 
L 284.311875 306.92718 
" clip-path="url(#p89e22453c3)" style="fill: none; stroke: #454545; stroke-width: 1.5; stroke-linecap: round"/>
   </g>
   <g id="line2d_23">
    <path d="M 271.252125 505.907696 
L 297.371625 505.907696 
" clip-path="url(#p89e22453c3)" style="fill: none; stroke: #454545; stroke-width: 1.5; stroke-linecap: round"/>
   </g>
   <g id="line2d_24">
    <path d="M 271.252125 306.92718 
L 297.371625 306.92718 
" clip-path="url(#p89e22453c3)" style="fill: none; stroke: #454545; stroke-width: 1.5; stroke-linecap: round"/>
   </g>
   <g id="line2d_25">
    <g clip-path="url(#p89e22453c3)">
     <use xlink:href="#m2bff48eb86" x="284.311875" y="273.763761" style="fill: #454545; stroke: #454545; stroke-linejoin: miter"/>
     <use xlink:href="#m2bff48eb86" x="284.311875" y="159.681599" style="fill: #454545; stroke: #454545; stroke-linejoin: miter"/>
     <use xlink:href="#m2bff48eb86" x="284.311875" y="175.60004" style="fill: #454545; stroke: #454545; stroke-linejoin: miter"/>
     <use xlink:href="#m2bff48eb86" x="284.311875" y="212.74307" style="fill: #454545; stroke: #454545; stroke-linejoin: miter"/>
    </g>
   </g>
   <g id="line2d_26">
    <path d="M 349.610625 423.131801 
L 349.610625 475.927965 
" clip-path="url(#p89e22453c3)" style="fill: none; stroke: #454545; stroke-width: 1.5; stroke-linecap: round"/>
   </g>
   <g id="line2d_27">
    <path d="M 349.610625 379.886703 
L 349.610625 316.212938 
" clip-path="url(#p89e22453c3)" style="fill: none; stroke: #454545; stroke-width: 1.5; stroke-linecap: round"/>
   </g>
   <g id="line2d_28">
    <path d="M 336.550875 475.927965 
L 362.670375 475.927965 
" clip-path="url(#p89e22453c3)" style="fill: none; stroke: #454545; stroke-width: 1.5; stroke-linecap: round"/>
   </g>
   <g id="line2d_29">
    <path d="M 336.550875 316.212938 
L 362.670375 316.212938 
" clip-path="url(#p89e22453c3)" style="fill: none; stroke: #454545; stroke-width: 1.5; stroke-linecap: round"/>
   </g>
   <g id="line2d_30">
    <g clip-path="url(#p89e22453c3)">
     <use xlink:href="#m2bff48eb86" x="349.610625" y="493.968865" style="fill: #454545; stroke: #454545; stroke-linejoin: miter"/>
     <use xlink:href="#m2bff48eb86" x="349.610625" y="489.723947" style="fill: #454545; stroke: #454545; stroke-linejoin: miter"/>
     <use xlink:href="#m2bff48eb86" x="349.610625" y="285.171977" style="fill: #454545; stroke: #454545; stroke-linejoin: miter"/>
     <use xlink:href="#m2bff48eb86" x="349.610625" y="300.294497" style="fill: #454545; stroke: #454545; stroke-linejoin: miter"/>
     <use xlink:href="#m2bff48eb86" x="349.610625" y="252.539173" style="fill: #454545; stroke: #454545; stroke-linejoin: miter"/>
     <use xlink:href="#m2bff48eb86" x="349.610625" y="42.946364" style="fill: #454545; stroke: #454545; stroke-linejoin: miter"/>
     <use xlink:href="#m2bff48eb86" x="349.610625" y="88.048614" style="fill: #454545; stroke: #454545; stroke-linejoin: miter"/>
     <use xlink:href="#m2bff48eb86" x="349.610625" y="310.906791" style="fill: #454545; stroke: #454545; stroke-linejoin: miter"/>
    </g>
   </g>
   <g id="line2d_31">
    <path d="M 414.909375 525.805747 
L 414.909375 571.571266 
" clip-path="url(#p89e22453c3)" style="fill: none; stroke: #454545; stroke-width: 1.5; stroke-linecap: round"/>
   </g>
   <g id="line2d_32">
    <path d="M 414.909375 483.091263 
L 414.909375 424.988953 
" clip-path="url(#p89e22453c3)" style="fill: none; stroke: #454545; stroke-width: 1.5; stroke-linecap: round"/>
   </g>
   <g id="line2d_33">
    <path d="M 401.849625 571.571266 
L 427.969125 571.571266 
" clip-path="url(#p89e22453c3)" style="fill: none; stroke: #454545; stroke-width: 1.5; stroke-linecap: round"/>
   </g>
   <g id="line2d_34">
    <path d="M 401.849625 424.988953 
L 427.969125 424.988953 
" clip-path="url(#p89e22453c3)" style="fill: none; stroke: #454545; stroke-width: 1.5; stroke-linecap: round"/>
   </g>
   <g id="line2d_35">
    <g clip-path="url(#p89e22453c3)">
     <use xlink:href="#m2bff48eb86" x="414.909375" y="403.764364" style="fill: #454545; stroke: #454545; stroke-linejoin: miter"/>
     <use xlink:href="#m2bff48eb86" x="414.909375" y="342.743673" style="fill: #454545; stroke: #454545; stroke-linejoin: miter"/>
     <use xlink:href="#m2bff48eb86" x="414.909375" y="342.743673" style="fill: #454545; stroke: #454545; stroke-linejoin: miter"/>
     <use xlink:href="#m2bff48eb86" x="414.909375" y="398.458217" style="fill: #454545; stroke: #454545; stroke-linejoin: miter"/>
     <use xlink:href="#m2bff48eb86" x="414.909375" y="411.723585" style="fill: #454545; stroke: #454545; stroke-linejoin: miter"/>
     <use xlink:href="#m2bff48eb86" x="414.909375" y="287.029129" style="fill: #454545; stroke: #454545; stroke-linejoin: miter"/>
     <use xlink:href="#m2bff48eb86" x="414.909375" y="247.233026" style="fill: #454545; stroke: #454545; stroke-linejoin: miter"/>
     <use xlink:href="#m2bff48eb86" x="414.909375" y="122.53857" style="fill: #454545; stroke: #454545; stroke-linejoin: miter"/>
    </g>
   </g>
   <g id="line2d_36">
    <path d="M 480.208125 461.256468 
L 480.208125 512.91181 
" clip-path="url(#p89e22453c3)" style="fill: none; stroke: #454545; stroke-width: 1.5; stroke-linecap: round"/>
   </g>
   <g id="line2d_37">
    <path d="M 480.208125 369.579512 
L 480.208125 256.439191 
" clip-path="url(#p89e22453c3)" style="fill: none; stroke: #454545; stroke-width: 1.5; stroke-linecap: round"/>
   </g>
   <g id="line2d_38">
    <path d="M 467.148375 512.91181 
L 493.267875 512.91181 
" clip-path="url(#p89e22453c3)" style="fill: none; stroke: #454545; stroke-width: 1.5; stroke-linecap: round"/>
   </g>
   <g id="line2d_39">
    <path d="M 467.148375 256.439191 
L 493.267875 256.439191 
" clip-path="url(#p89e22453c3)" style="fill: none; stroke: #454545; stroke-width: 1.5; stroke-linecap: round"/>
   </g>
   <g id="line2d_40">
    <g clip-path="url(#p89e22453c3)">
     <use xlink:href="#m2bff48eb86" x="480.208125" y="178.995975" style="fill: #454545; stroke: #454545; stroke-linejoin: miter"/>
     <use xlink:href="#m2bff48eb86" x="480.208125" y="176.528616" style="fill: #454545; stroke: #454545; stroke-linejoin: miter"/>
    </g>
   </g>
   <g id="line2d_41">
    <path d="M 545.506875 519.730209 
L 545.506875 602.851003 
" clip-path="url(#p89e22453c3)" style="fill: none; stroke: #454545; stroke-width: 1.5; stroke-linecap: round"/>
   </g>
   <g id="line2d_42">
    <path d="M 545.506875 412.386853 
L 545.506875 335.129352 
" clip-path="url(#p89e22453c3)" style="fill: none; stroke: #454545; stroke-width: 1.5; stroke-linecap: round"/>
   </g>
   <g id="line2d_43">
    <path d="M 532.447125 602.851003 
L 558.566625 602.851003 
" clip-path="url(#p89e22453c3)" style="fill: none; stroke: #454545; stroke-width: 1.5; stroke-linecap: round"/>
   </g>
   <g id="line2d_44">
    <path d="M 532.447125 335.129352 
L 558.566625 335.129352 
" clip-path="url(#p89e22453c3)" style="fill: none; stroke: #454545; stroke-width: 1.5; stroke-linecap: round"/>
   </g>
   <g id="line2d_45">
    <g clip-path="url(#p89e22453c3)">
     <use xlink:href="#m2bff48eb86" x="545.506875" y="203.112413" style="fill: #454545; stroke: #454545; stroke-linejoin: miter"/>
     <use xlink:href="#m2bff48eb86" x="545.506875" y="176.369432" style="fill: #454545; stroke: #454545; stroke-linejoin: miter"/>
    </g>
   </g>
   <g id="line2d_46">
    <path d="M 610.805625 499.168889 
L 610.805625 596.350972 
" clip-path="url(#p89e22453c3)" style="fill: none; stroke: #454545; stroke-width: 1.5; stroke-linecap: round"/>
   </g>
   <g id="line2d_47">
    <path d="M 610.805625 431.794086 
L 610.805625 331.547703 
" clip-path="url(#p89e22453c3)" style="fill: none; stroke: #454545; stroke-width: 1.5; stroke-linecap: round"/>
   </g>
   <g id="line2d_48">
    <path d="M 597.745875 596.350972 
L 623.865375 596.350972 
" clip-path="url(#p89e22453c3)" style="fill: none; stroke: #454545; stroke-width: 1.5; stroke-linecap: round"/>
   </g>
   <g id="line2d_49">
    <path d="M 597.745875 331.547703 
L 623.865375 331.547703 
" clip-path="url(#p89e22453c3)" style="fill: none; stroke: #454545; stroke-width: 1.5; stroke-linecap: round"/>
   </g>
   <g id="line2d_50">
    <g clip-path="url(#p89e22453c3)">
     <use xlink:href="#m2bff48eb86" x="610.805625" y="296.500601" style="fill: #454545; stroke: #454545; stroke-linejoin: miter"/>
     <use xlink:href="#m2bff48eb86" x="610.805625" y="294.98835" style="fill: #454545; stroke: #454545; stroke-linejoin: miter"/>
    </g>
   </g>
   <g id="line2d_51">
    <path d="M 676.104375 488.105572 
L 676.104375 540.71602 
" clip-path="url(#p89e22453c3)" style="fill: none; stroke: #454545; stroke-width: 1.5; stroke-linecap: round"/>
   </g>
   <g id="line2d_52">
    <path d="M 676.104375 394.531669 
L 676.104375 302.337363 
" clip-path="url(#p89e22453c3)" style="fill: none; stroke: #454545; stroke-width: 1.5; stroke-linecap: round"/>
   </g>
   <g id="line2d_53">
    <path d="M 663.044625 540.71602 
L 689.164125 540.71602 
" clip-path="url(#p89e22453c3)" style="fill: none; stroke: #454545; stroke-width: 1.5; stroke-linecap: round"/>
   </g>
   <g id="line2d_54">
    <path d="M 663.044625 302.337363 
L 689.164125 302.337363 
" clip-path="url(#p89e22453c3)" style="fill: none; stroke: #454545; stroke-width: 1.5; stroke-linecap: round"/>
   </g>
   <g id="line2d_55">
    <g clip-path="url(#p89e22453c3)">
     <use xlink:href="#m2bff48eb86" x="676.104375" y="217.677787" style="fill: #454545; stroke: #454545; stroke-linejoin: miter"/>
    </g>
   </g>
   <g id="line2d_56">
    <path d="M 741.403125 545.458389 
L 741.403125 622.695993 
" clip-path="url(#p89e22453c3)" style="fill: none; stroke: #454545; stroke-width: 1.5; stroke-linecap: round"/>
   </g>
   <g id="line2d_57">
    <path d="M 741.403125 492.025488 
L 741.403125 429.631831 
" clip-path="url(#p89e22453c3)" style="fill: none; stroke: #454545; stroke-width: 1.5; stroke-linecap: round"/>
   </g>
   <g id="line2d_58">
    <path d="M 728.343375 622.695993 
L 754.462875 622.695993 
" clip-path="url(#p89e22453c3)" style="fill: none; stroke: #454545; stroke-width: 1.5; stroke-linecap: round"/>
   </g>
   <g id="line2d_59">
    <path d="M 728.343375 429.631831 
L 754.462875 429.631831 
" clip-path="url(#p89e22453c3)" style="fill: none; stroke: #454545; stroke-width: 1.5; stroke-linecap: round"/>
   </g>
   <g id="line2d_60">
    <g clip-path="url(#p89e22453c3)">
     <use xlink:href="#m2bff48eb86" x="741.403125" y="256.810621" style="fill: #454545; stroke: #454545; stroke-linejoin: miter"/>
    </g>
   </g>
   <g id="line2d_61">
    <path d="M 806.701875 415.039927 
L 806.701875 424.988953 
" clip-path="url(#p89e22453c3)" style="fill: none; stroke: #454545; stroke-width: 1.5; stroke-linecap: round"/>
   </g>
   <g id="line2d_62">
    <path d="M 806.701875 385.19285 
L 806.701875 358.662114 
" clip-path="url(#p89e22453c3)" style="fill: none; stroke: #454545; stroke-width: 1.5; stroke-linecap: round"/>
   </g>
   <g id="line2d_63">
    <path d="M 793.642125 424.988953 
L 819.761625 424.988953 
" clip-path="url(#p89e22453c3)" style="fill: none; stroke: #454545; stroke-width: 1.5; stroke-linecap: round"/>
   </g>
   <g id="line2d_64">
    <path d="M 793.642125 358.662114 
L 819.761625 358.662114 
" clip-path="url(#p89e22453c3)" style="fill: none; stroke: #454545; stroke-width: 1.5; stroke-linecap: round"/>
   </g>
   <g id="line2d_65">
    <g clip-path="url(#p89e22453c3)">
     <use xlink:href="#m2bff48eb86" x="806.701875" y="491.315791" style="fill: #454545; stroke: #454545; stroke-linejoin: miter"/>
     <use xlink:href="#m2bff48eb86" x="806.701875" y="464.785056" style="fill: #454545; stroke: #454545; stroke-linejoin: miter"/>
    </g>
   </g>
   <g id="line2d_66">
    <path d="M 872.000625 413.050122 
L 872.000625 458.152372 
" clip-path="url(#p89e22453c3)" style="fill: none; stroke: #454545; stroke-width: 1.5; stroke-linecap: round"/>
   </g>
   <g id="line2d_67">
    <path d="M 872.000625 350.702894 
L 872.000625 292.335276 
" clip-path="url(#p89e22453c3)" style="fill: none; stroke: #454545; stroke-width: 1.5; stroke-linecap: round"/>
   </g>
   <g id="line2d_68">
    <path d="M 858.940875 458.152372 
L 885.060375 458.152372 
" clip-path="url(#p89e22453c3)" style="fill: none; stroke: #454545; stroke-width: 1.5; stroke-linecap: round"/>
   </g>
   <g id="line2d_69">
    <path d="M 858.940875 292.335276 
L 885.060375 292.335276 
" clip-path="url(#p89e22453c3)" style="fill: none; stroke: #454545; stroke-width: 1.5; stroke-linecap: round"/>
   </g>
   <g id="line2d_70"/>
   <g id="line2d_71">
    <path d="M 937.299375 512.208745 
L 937.299375 553.663019 
" clip-path="url(#p89e22453c3)" style="fill: none; stroke: #454545; stroke-width: 1.5; stroke-linecap: round"/>
   </g>
   <g id="line2d_72">
    <path d="M 937.299375 399.45312 
L 937.299375 283.944931 
" clip-path="url(#p89e22453c3)" style="fill: none; stroke: #454545; stroke-width: 1.5; stroke-linecap: round"/>
   </g>
   <g id="line2d_73">
    <path d="M 924.239625 553.663019 
L 950.359125 553.663019 
" clip-path="url(#p89e22453c3)" style="fill: none; stroke: #454545; stroke-width: 1.5; stroke-linecap: round"/>
   </g>
   <g id="line2d_74">
    <path d="M 924.239625 283.944931 
L 950.359125 283.944931 
" clip-path="url(#p89e22453c3)" style="fill: none; stroke: #454545; stroke-width: 1.5; stroke-linecap: round"/>
   </g>
   <g id="line2d_75">
    <g clip-path="url(#p89e22453c3)">
     <use xlink:href="#m2bff48eb86" x="937.299375" y="208.76346" style="fill: #454545; stroke: #454545; stroke-linejoin: miter"/>
     <use xlink:href="#m2bff48eb86" x="937.299375" y="199.477702" style="fill: #454545; stroke: #454545; stroke-linejoin: miter"/>
    </g>
   </g>
   <g id="line2d_76">
    <path d="M 1002.598125 401.111291 
L 1002.598125 480.219311 
" clip-path="url(#p89e22453c3)" style="fill: none; stroke: #454545; stroke-width: 1.5; stroke-linecap: round"/>
   </g>
   <g id="line2d_77">
    <path d="M 1002.598125 328.151769 
L 1002.598125 239.273805 
" clip-path="url(#p89e22453c3)" style="fill: none; stroke: #454545; stroke-width: 1.5; stroke-linecap: round"/>
   </g>
   <g id="line2d_78">
    <path d="M 989.538375 480.219311 
L 1015.657875 480.219311 
" clip-path="url(#p89e22453c3)" style="fill: none; stroke: #454545; stroke-width: 1.5; stroke-linecap: round"/>
   </g>
   <g id="line2d_79">
    <path d="M 989.538375 239.273805 
L 1015.657875 239.273805 
" clip-path="url(#p89e22453c3)" style="fill: none; stroke: #454545; stroke-width: 1.5; stroke-linecap: round"/>
   </g>
   <g id="line2d_80">
    <g clip-path="url(#p89e22453c3)">
     <use xlink:href="#m2bff48eb86" x="1002.598125" y="199.477702" style="fill: #454545; stroke: #454545; stroke-linejoin: miter"/>
     <use xlink:href="#m2bff48eb86" x="1002.598125" y="66.824025" style="fill: #454545; stroke: #454545; stroke-linejoin: miter"/>
     <use xlink:href="#m2bff48eb86" x="1002.598125" y="53.558658" style="fill: #454545; stroke: #454545; stroke-linejoin: miter"/>
    </g>
   </g>
   <g id="line2d_81">
    <path d="M 1067.896875 468.764666 
L 1067.896875 496.621938 
" clip-path="url(#p89e22453c3)" style="fill: none; stroke: #454545; stroke-width: 1.5; stroke-linecap: round"/>
   </g>
   <g id="line2d_82">
    <path d="M 1067.896875 390.498997 
L 1067.896875 276.416835 
" clip-path="url(#p89e22453c3)" style="fill: none; stroke: #454545; stroke-width: 1.5; stroke-linecap: round"/>
   </g>
   <g id="line2d_83">
    <path d="M 1054.837125 496.621938 
L 1080.956625 496.621938 
" clip-path="url(#p89e22453c3)" style="fill: none; stroke: #454545; stroke-width: 1.5; stroke-linecap: round"/>
   </g>
   <g id="line2d_84">
    <path d="M 1054.837125 276.416835 
L 1080.956625 276.416835 
" clip-path="url(#p89e22453c3)" style="fill: none; stroke: #454545; stroke-width: 1.5; stroke-linecap: round"/>
   </g>
   <g id="line2d_85"/>
   <g id="line2d_86">
    <path d="M 1133.195625 511.266904 
L 1133.195625 526.654731 
" clip-path="url(#p89e22453c3)" style="fill: none; stroke: #454545; stroke-width: 1.5; stroke-linecap: round"/>
   </g>
   <g id="line2d_87">
    <path d="M 1133.195625 426.872635 
L 1133.195625 367.231542 
" clip-path="url(#p89e22453c3)" style="fill: none; stroke: #454545; stroke-width: 1.5; stroke-linecap: round"/>
   </g>
   <g id="line2d_88">
    <path d="M 1120.135875 526.654731 
L 1146.255375 526.654731 
" clip-path="url(#p89e22453c3)" style="fill: none; stroke: #454545; stroke-width: 1.5; stroke-linecap: round"/>
   </g>
   <g id="line2d_89">
    <path d="M 1120.135875 367.231542 
L 1146.255375 367.231542 
" clip-path="url(#p89e22453c3)" style="fill: none; stroke: #454545; stroke-width: 1.5; stroke-linecap: round"/>
   </g>
   <g id="line2d_90"/>
   <g id="line2d_91">
    <path d="M 1198.494375 434.937979 
L 1198.494375 493.968865 
" clip-path="url(#p89e22453c3)" style="fill: none; stroke: #454545; stroke-width: 1.5; stroke-linecap: round"/>
   </g>
   <g id="line2d_92">
    <path d="M 1198.494375 369.274409 
L 1198.494375 271.110688 
" clip-path="url(#p89e22453c3)" style="fill: none; stroke: #454545; stroke-width: 1.5; stroke-linecap: round"/>
   </g>
   <g id="line2d_93">
    <path d="M 1185.434625 493.968865 
L 1211.554125 493.968865 
" clip-path="url(#p89e22453c3)" style="fill: none; stroke: #454545; stroke-width: 1.5; stroke-linecap: round"/>
   </g>
   <g id="line2d_94">
    <path d="M 1185.434625 271.110688 
L 1211.554125 271.110688 
" clip-path="url(#p89e22453c3)" style="fill: none; stroke: #454545; stroke-width: 1.5; stroke-linecap: round"/>
   </g>
   <g id="line2d_95">
    <g clip-path="url(#p89e22453c3)">
     <use xlink:href="#m2bff48eb86" x="1198.494375" y="239.273805" style="fill: #454545; stroke: #454545; stroke-linejoin: miter"/>
     <use xlink:href="#m2bff48eb86" x="1198.494375" y="241.926879" style="fill: #454545; stroke: #454545; stroke-linejoin: miter"/>
     <use xlink:href="#m2bff48eb86" x="1198.494375" y="74.783246" style="fill: #454545; stroke: #454545; stroke-linejoin: miter"/>
     <use xlink:href="#m2bff48eb86" x="1198.494375" y="127.844717" style="fill: #454545; stroke: #454545; stroke-linejoin: miter"/>
     <use xlink:href="#m2bff48eb86" x="1198.494375" y="194.171555" style="fill: #454545; stroke: #454545; stroke-linejoin: miter"/>
    </g>
   </g>
   <g id="line2d_96">
    <path d="M 1263.793125 432.948173 
L 1263.793125 483.356571 
" clip-path="url(#p89e22453c3)" style="fill: none; stroke: #454545; stroke-width: 1.5; stroke-linecap: round"/>
   </g>
   <g id="line2d_97">
    <path d="M 1263.793125 341.417136 
L 1263.793125 220.702291 
" clip-path="url(#p89e22453c3)" style="fill: none; stroke: #454545; stroke-width: 1.5; stroke-linecap: round"/>
   </g>
   <g id="line2d_98">
    <path d="M 1250.733375 483.356571 
L 1276.852875 483.356571 
" clip-path="url(#p89e22453c3)" style="fill: none; stroke: #454545; stroke-width: 1.5; stroke-linecap: round"/>
   </g>
   <g id="line2d_99">
    <path d="M 1250.733375 220.702291 
L 1276.852875 220.702291 
" clip-path="url(#p89e22453c3)" style="fill: none; stroke: #454545; stroke-width: 1.5; stroke-linecap: round"/>
   </g>
   <g id="line2d_100">
    <g clip-path="url(#p89e22453c3)">
     <use xlink:href="#m2bff48eb86" x="1263.793125" y="106.620128" style="fill: #454545; stroke: #454545; stroke-linejoin: miter"/>
     <use xlink:href="#m2bff48eb86" x="1263.793125" y="53.558658" style="fill: #454545; stroke: #454545; stroke-linejoin: miter"/>
    </g>
   </g>
   <g id="line2d_101">
    <path d="M 1329.091875 513.946508 
L 1329.091875 561.144687 
" clip-path="url(#p89e22453c3)" style="fill: none; stroke: #454545; stroke-width: 1.5; stroke-linecap: round"/>
   </g>
   <g id="line2d_102">
    <path d="M 1329.091875 459.293194 
L 1329.091875 390.923489 
" clip-path="url(#p89e22453c3)" style="fill: none; stroke: #454545; stroke-width: 1.5; stroke-linecap: round"/>
   </g>
   <g id="line2d_103">
    <path d="M 1316.032125 561.144687 
L 1342.151625 561.144687 
" clip-path="url(#p89e22453c3)" style="fill: none; stroke: #454545; stroke-width: 1.5; stroke-linecap: round"/>
   </g>
   <g id="line2d_104">
    <path d="M 1316.032125 390.923489 
L 1342.151625 390.923489 
" clip-path="url(#p89e22453c3)" style="fill: none; stroke: #454545; stroke-width: 1.5; stroke-linecap: round"/>
   </g>
   <g id="line2d_105">
    <g clip-path="url(#p89e22453c3)">
     <use xlink:href="#m2bff48eb86" x="1329.091875" y="367.974402" style="fill: #454545; stroke: #454545; stroke-linejoin: miter"/>
     <use xlink:href="#m2bff48eb86" x="1329.091875" y="375.668316" style="fill: #454545; stroke: #454545; stroke-linejoin: miter"/>
     <use xlink:href="#m2bff48eb86" x="1329.091875" y="337.278342" style="fill: #454545; stroke: #454545; stroke-linejoin: miter"/>
     <use xlink:href="#m2bff48eb86" x="1329.091875" y="363.358055" style="fill: #454545; stroke: #454545; stroke-linejoin: miter"/>
    </g>
   </g>
   <g id="line2d_106">
    <path d="M 1394.390625 257.84532 
L 1394.390625 257.84532 
" clip-path="url(#p89e22453c3)" style="fill: none; stroke: #454545; stroke-width: 1.5; stroke-linecap: round"/>
   </g>
   <g id="line2d_107">
    <path d="M 1394.390625 257.84532 
L 1394.390625 257.84532 
" clip-path="url(#p89e22453c3)" style="fill: none; stroke: #454545; stroke-width: 1.5; stroke-linecap: round"/>
   </g>
   <g id="line2d_108">
    <path d="M 1381.330875 257.84532 
L 1407.450375 257.84532 
" clip-path="url(#p89e22453c3)" style="fill: none; stroke: #454545; stroke-width: 1.5; stroke-linecap: round"/>
   </g>
   <g id="line2d_109">
    <path d="M 1381.330875 257.84532 
L 1407.450375 257.84532 
" clip-path="url(#p89e22453c3)" style="fill: none; stroke: #454545; stroke-width: 1.5; stroke-linecap: round"/>
   </g>
   <g id="line2d_110"/>
   <g id="line2d_111">
    <path d="M 62.296125 458.590129 
L 114.535125 458.590129 
" clip-path="url(#p89e22453c3)" style="fill: none; stroke: #454545; stroke-width: 1.5; stroke-linecap: round"/>
   </g>
   <g id="line2d_112">
    <path d="M 127.594875 449.801823 
L 179.833875 449.801823 
" clip-path="url(#p89e22453c3)" style="fill: none; stroke: #454545; stroke-width: 1.5; stroke-linecap: round"/>
   </g>
   <g id="line2d_113">
    <path d="M 192.893625 481.66192 
L 245.132625 481.66192 
" clip-path="url(#p89e22453c3)" style="fill: none; stroke: #454545; stroke-width: 1.5; stroke-linecap: round"/>
   </g>
   <g id="line2d_114">
    <path d="M 258.192375 417.693001 
L 310.431375 417.693001 
" clip-path="url(#p89e22453c3)" style="fill: none; stroke: #454545; stroke-width: 1.5; stroke-linecap: round"/>
   </g>
   <g id="line2d_115">
    <path d="M 323.491125 393.15207 
L 375.730125 393.15207 
" clip-path="url(#p89e22453c3)" style="fill: none; stroke: #454545; stroke-width: 1.5; stroke-linecap: round"/>
   </g>
   <g id="line2d_116">
    <path d="M 388.789875 504.581159 
L 441.028875 504.581159 
" clip-path="url(#p89e22453c3)" style="fill: none; stroke: #454545; stroke-width: 1.5; stroke-linecap: round"/>
   </g>
   <g id="line2d_117">
    <path d="M 454.088625 422.269552 
L 506.327625 422.269552 
" clip-path="url(#p89e22453c3)" style="fill: none; stroke: #454545; stroke-width: 1.5; stroke-linecap: round"/>
   </g>
   <g id="line2d_118">
    <path d="M 519.387375 482.852487 
L 571.626375 482.852487 
" clip-path="url(#p89e22453c3)" style="fill: none; stroke: #454545; stroke-width: 1.5; stroke-linecap: round"/>
   </g>
   <g id="line2d_119">
    <path d="M 584.686125 454.63705 
L 636.925125 454.63705 
" clip-path="url(#p89e22453c3)" style="fill: none; stroke: #454545; stroke-width: 1.5; stroke-linecap: round"/>
   </g>
   <g id="line2d_120">
    <path d="M 649.984875 456.666651 
L 702.223875 456.666651 
" clip-path="url(#p89e22453c3)" style="fill: none; stroke: #454545; stroke-width: 1.5; stroke-linecap: round"/>
   </g>
   <g id="line2d_121">
    <path d="M 715.283625 522.834305 
L 767.522625 522.834305 
" clip-path="url(#p89e22453c3)" style="fill: none; stroke: #454545; stroke-width: 1.5; stroke-linecap: round"/>
   </g>
   <g id="line2d_122">
    <path d="M 780.582375 385.19285 
L 832.821375 385.19285 
" clip-path="url(#p89e22453c3)" style="fill: none; stroke: #454545; stroke-width: 1.5; stroke-linecap: round"/>
   </g>
   <g id="line2d_123">
    <path d="M 845.881125 378.560166 
L 898.120125 378.560166 
" clip-path="url(#p89e22453c3)" style="fill: none; stroke: #454545; stroke-width: 1.5; stroke-linecap: round"/>
   </g>
   <g id="line2d_124">
    <path d="M 911.179875 493.305596 
L 963.418875 493.305596 
" clip-path="url(#p89e22453c3)" style="fill: none; stroke: #454545; stroke-width: 1.5; stroke-linecap: round"/>
   </g>
   <g id="line2d_125">
    <path d="M 976.478625 361.315188 
L 1028.717625 361.315188 
" clip-path="url(#p89e22453c3)" style="fill: none; stroke: #454545; stroke-width: 1.5; stroke-linecap: round"/>
   </g>
   <g id="line2d_126">
    <path d="M 1041.777375 424.988953 
L 1094.016375 424.988953 
" clip-path="url(#p89e22453c3)" style="fill: none; stroke: #454545; stroke-width: 1.5; stroke-linecap: round"/>
   </g>
   <g id="line2d_127">
    <path d="M 1107.076125 486.460667 
L 1159.315125 486.460667 
" clip-path="url(#p89e22453c3)" style="fill: none; stroke: #454545; stroke-width: 1.5; stroke-linecap: round"/>
   </g>
   <g id="line2d_128">
    <path d="M 1172.374875 406.417438 
L 1224.613875 406.417438 
" clip-path="url(#p89e22453c3)" style="fill: none; stroke: #454545; stroke-width: 1.5; stroke-linecap: round"/>
   </g>
   <g id="line2d_129">
    <path d="M 1237.673625 411.723585 
L 1289.912625 411.723585 
" clip-path="url(#p89e22453c3)" style="fill: none; stroke: #454545; stroke-width: 1.5; stroke-linecap: round"/>
   </g>
   <g id="line2d_130">
    <path d="M 1302.972375 488.052511 
L 1355.211375 488.052511 
" clip-path="url(#p89e22453c3)" style="fill: none; stroke: #454545; stroke-width: 1.5; stroke-linecap: round"/>
   </g>
   <g id="line2d_131">
    <path d="M 1368.271125 257.84532 
L 1420.510125 257.84532 
" clip-path="url(#p89e22453c3)" style="fill: none; stroke: #454545; stroke-width: 1.5; stroke-linecap: round"/>
   </g>
   <g id="patch_24">
    <path d="M 55.76625 672.66 
L 55.76625 12.96 
" style="fill: none; stroke: #ffffff; stroke-width: 1.25; stroke-linejoin: miter; stroke-linecap: square"/>
   </g>
   <g id="patch_25">
    <path d="M 55.76625 672.66 
L 1427.04 672.66 
" style="fill: none; stroke: #ffffff; stroke-width: 1.25; stroke-linejoin: miter; stroke-linecap: square"/>
   </g>
  </g>
 </g>
 <defs>
  <clipPath id="p89e22453c3">
   <rect x="55.76625" y="12.96" width="1371.27375" height="659.7"/>
  </clipPath>
 </defs>
</svg>
